<svg width="231" height="41" fill="none" xmlns="http://www.w3.org/2000/svg"><path d="M13.27 10.291c2.098 0 3.925.346 5.482 1.038 1.556.692 2.756 1.687 3.6 2.984.843 1.297 1.264 2.81 1.264 4.54s-.421 3.244-1.264 4.541c-.844 1.297-2.044 2.292-3.6 2.984-1.557.692-3.384 1.038-5.481 1.038H9.995v5.578H2.34V10.291h10.93zm-.486 11.222c1.038 0 1.816-.227 2.335-.681.52-.476.779-1.135.779-1.978 0-.844-.26-1.492-.779-1.946-.519-.476-1.297-.714-2.335-.714h-2.79v5.32h2.79zm23.072 5.773h-2.075v5.708h-7.654V10.291h10.93c2.097 0 3.924.346 5.48 1.038 1.557.692 2.757 1.687 3.6 2.984.844 1.297 1.265 2.81 1.265 4.54 0 1.622-.367 3.038-1.102 4.25-.735 1.21-1.795 2.172-3.179 2.886l4.768 7.005h-8.173l-3.86-5.708zm3.828-8.432c0-.844-.26-1.492-.779-1.946-.519-.476-1.297-.714-2.335-.714h-2.79v5.32h2.79c1.038 0 1.816-.228 2.335-.682.519-.476.779-1.135.779-1.978z" fill="#CE091D"/><path d="M104.202 21.027h6.649v9.6c-1.34.93-2.897 1.643-4.67 2.14-1.773.497-3.514.746-5.222.746-2.421 0-4.594-.497-6.519-1.492-1.924-1.016-3.438-2.422-4.54-4.216-1.081-1.816-1.622-3.87-1.622-6.162s.54-4.335 1.622-6.13c1.102-1.816 2.627-3.222 4.573-4.216 1.967-1.016 4.184-1.524 6.648-1.524 2.227 0 4.217.378 5.968 1.135 1.773.735 3.243 1.816 4.411 3.243l-4.898 4.313c-1.427-1.665-3.124-2.497-5.091-2.497-1.687 0-3.027.508-4.022 1.524-.995 1.017-1.492 2.4-1.492 4.152 0 1.708.487 3.08 1.46 4.119.994 1.037 2.313 1.556 3.956 1.556.973 0 1.903-.183 2.789-.55v-5.741zm32.289-10.736v22.703h-6.292l-8.627-10.313v10.313h-7.46V10.291h6.292l8.627 10.314V10.29h7.46zm15.59 23.222c-2.443 0-4.637-.508-6.583-1.524-1.946-1.017-3.471-2.422-4.573-4.216-1.103-1.817-1.654-3.86-1.654-6.13s.551-4.303 1.654-6.098c1.102-1.816 2.627-3.232 4.573-4.248 1.946-1.016 4.14-1.524 6.583-1.524 2.444 0 4.638.508 6.584 1.524 1.946 1.016 3.47 2.432 4.573 4.248 1.103 1.795 1.654 3.827 1.654 6.098 0 2.27-.551 4.313-1.654 6.13-1.103 1.794-2.627 3.2-4.573 4.216-1.946 1.016-4.14 1.524-6.584 1.524zm0-6.194c.952 0 1.806-.228 2.563-.682a5.1 5.1 0 001.848-1.978c.454-.865.681-1.87.681-3.016s-.227-2.14-.681-2.984c-.454-.865-1.07-1.524-1.848-1.978-.757-.476-1.611-.714-2.563-.714-.951 0-1.816.238-2.594.714-.757.454-1.362 1.113-1.816 1.978-.454.843-.682 1.838-.682 2.984s.228 2.151.682 3.016c.454.843 1.059 1.503 1.816 1.978.778.454 1.643.681 2.594.681zm35.474-.26v5.935h-20.854v-4.703l10.378-12.064h-10.054V10.29h20.011v4.703L176.658 27.06h10.897zm2.222-16.768h7.655v22.703h-7.655V10.291zm31.609 22.703l-.064-10.346-4.93 8.303h-3.373l-4.93-7.946v9.99h-6.973V10.29h6.292l7.395 12.098 7.2-12.098h6.292l.064 22.703h-6.973z" fill="#11263C"/><mask id="a" maskUnits="userSpaceOnUse" x="49" y="2" width="38" height="38"><circle cx="67.992" cy="21.494" r="18.5" fill="#C4C4C4"/></mask><g mask="url(#a)" fill="#CE091D" stroke="#CE091D" stroke-width=".5"><path d="M56.94 48.956h0l.006.004c6.809 4.038 13.889 8.237 22.85 8.237 8.86 0 15.882-4.135 22.621-8.103l.232-.137h.002c6.736-4.02 13.675-8.112 22.363-8.112h.25v-.943h-.25c-8.963 0-16.074 4.201-22.855 8.241h-.001c-6.736 4.018-13.675 8.111-22.363 8.111-8.687 0-15.596-4.092-22.363-8.111h0l-.006-.003c-6.809-4.039-13.889-8.238-22.85-8.238-8.962 0-16.073 4.201-22.855 8.241h0C8.119 50.3 4.416 52.473.482 54.03l-.225.088.082.228.147.413.087.243.24-.094c3.779-1.484 7.344-3.573 10.779-5.587l.62-.363h.001c6.767-4.02 13.676-8.112 22.364-8.112 8.687 0 15.596 4.093 22.363 8.111z"/><path d="M56.94 45.975h0l.006.003c6.809 4.038 13.889 8.237 22.85 8.237 8.96 0 16.04-4.199 22.849-8.237l.005-.003h.001c6.736-4.019 13.675-8.111 22.363-8.111h.25v-.944h-.25c-8.963 0-16.074 4.2-22.855 8.24h-.001c-6.736 4.019-13.675 8.112-22.363 8.112-8.687 0-15.596-4.093-22.363-8.112h0l-.006-.003c-6.809-4.038-13.889-8.237-22.85-8.237-8.962 0-16.073 4.2-22.855 8.24h0C8.119 47.316 4.416 49.49.482 51.046l-.239.095.101.236.178.413.095.223.226-.089c3.972-1.559 7.678-3.759 11.275-5.894l.095-.056h0c6.737-4.019 13.676-8.111 22.364-8.111 8.687 0 15.596 4.092 22.363 8.111z"/><path d="M56.94 42.993h0l.006.003c6.809 4.038 13.889 8.237 22.85 8.237 8.96 0 16.04-4.199 22.849-8.237l.005-.003h.001c6.736-4.019 13.675-8.112 22.363-8.112h.25v-.943h-.25c-8.963 0-16.074 4.201-22.855 8.241h-.001c-6.736 4.019-13.675 8.111-22.363 8.111-8.688 0-15.626-4.092-22.363-8.11v-.001l-.006-.003c-6.809-4.038-13.889-8.238-22.85-8.238-8.962 0-16.073 4.201-22.855 8.241h0C8.119 44.335 4.416 46.51.482 48.065l-.225.089.082.227.147.413.087.243.24-.094c4.007-1.573 7.772-3.797 11.4-5.95h0c6.767-4.02 13.676-8.112 22.364-8.112 8.687 0 15.596 4.093 22.363 8.112z"/><path d="M56.94 40.04h0l.006.004c6.809 4.038 13.889 8.237 22.85 8.237 8.96 0 16.04-4.2 22.849-8.237l.005-.003h.001c6.736-4.02 13.675-8.112 22.363-8.112h.25v-.943h-.25c-8.963 0-16.074 4.201-22.855 8.241h-.001c-6.736 4.018-13.675 8.111-22.363 8.111-8.688 0-15.626-4.093-22.363-8.11v-.001l-.006-.003c-6.809-4.039-13.889-8.238-22.85-8.238-8.962 0-16.073 4.201-22.855 8.241h0c-3.602 2.156-7.305 4.33-11.239 5.886l-.225.088.082.228.147.413.087.243.24-.094c4.007-1.573 7.772-3.797 11.4-5.95h0c6.767-4.02 13.676-8.112 22.364-8.112 8.687 0 15.596 4.093 22.363 8.111z"/><path d="M56.94 37.061h0l.006.003c6.809 4.038 13.889 8.237 22.85 8.237 8.96 0 16.04-4.199 22.849-8.237l.005-.003h.001c6.736-4.019 13.675-8.111 22.363-8.111h.25v-.943h-.25c-8.963 0-16.074 4.2-22.855 8.24h-.001c-6.736 4.019-13.675 8.112-22.363 8.112-8.687 0-15.596-4.093-22.363-8.112h0l-.006-.003c-6.809-4.038-13.889-8.237-22.85-8.237-8.962 0-16.073 4.2-22.855 8.24h0c-3.602 2.156-7.305 4.33-11.239 5.886l-.239.095.101.236.178.413.095.223.226-.089c3.972-1.559 7.678-3.759 11.275-5.894l.095-.056h0c6.767-4.019 13.676-8.111 22.364-8.111 8.687 0 15.596 4.092 22.363 8.111z"/><path d="M56.94 34.11h0l.006.003c6.809 4.038 13.889 8.237 22.85 8.237 8.86 0 15.882-4.135 22.621-8.103l.232-.137h.002c6.736-4.019 13.675-8.112 22.363-8.112h.25v-.942h-.25c-8.963 0-16.074 4.2-22.855 8.24h-.001c-6.736 4.019-13.675 8.111-22.363 8.111-8.687 0-15.596-4.092-22.363-8.11h0l-.006-.004c-6.809-4.038-13.889-8.237-22.85-8.237-8.962 0-16.073 4.2-22.855 8.24h0c-3.602 2.156-7.305 4.33-11.239 5.886l-.239.094.101.237.178.413.095.223.226-.089c3.972-1.56 7.678-3.759 11.275-5.894l.095-.056h0c6.767-4.019 13.676-8.112 22.364-8.112 8.687 0 15.596 4.093 22.363 8.112z"/><path d="M12.213 31.157h0c6.767-4.019 13.676-8.111 22.364-8.111 8.654 0 15.543 4.06 22.286 8.036l.077.045h0l.006.004c6.809 4.038 13.889 8.237 22.85 8.237 8.96 0 16.04-4.2 22.849-8.238l.005-.003h.001c6.736-4.018 13.675-8.111 22.363-8.111h.25v-.943h-.25c-8.963 0-16.074 4.201-22.855 8.24l-.001.001c-6.736 4.018-13.675 8.111-22.363 8.111-8.687 0-15.596-4.092-22.363-8.111h0l-.006-.003c-6.809-4.039-13.889-8.238-22.85-8.238-8.962 0-16.073 4.201-22.855 8.24v.001C8.119 32.47 4.416 34.644.482 36.2l-.233.093.093.233.177.443.092.23.232-.09c3.972-1.56 7.678-3.76 11.275-5.895l.095-.056z"/><path d="M56.94 28.147h0l.006.003c6.809 4.038 13.889 8.237 22.85 8.237 8.96 0 16.04-4.199 22.849-8.237l.005-.003h.001c6.736-4.019 13.675-8.111 22.363-8.111h.25v-.944h-.25c-8.963 0-16.074 4.2-22.855 8.24h-.001c-6.736 4.019-13.675 8.112-22.363 8.112-8.687 0-15.596-4.093-22.363-8.112h0l-.006-.003c-6.809-4.038-13.889-8.237-22.85-8.237-8.962 0-16.073 4.2-22.855 8.24h0C8.119 29.49 4.416 31.664.482 33.22l-.239.094.101.237.178.413.095.223.226-.089c3.972-1.559 7.678-3.759 11.275-5.894l.095-.056h0c6.767-4.019 13.676-8.111 22.364-8.111 8.687 0 15.596 4.092 22.363 8.11z"/><path d="M56.94 25.196h0l.006.003c6.809 4.038 13.889 8.237 22.85 8.237 8.86 0 15.882-4.135 22.621-8.103l.232-.137h.002c6.736-4.019 13.675-8.112 22.363-8.112h.25v-.942h-.25c-8.963 0-16.074 4.2-22.855 8.24h-.001c-6.736 4.019-13.675 8.111-22.363 8.111-8.687 0-15.596-4.092-22.363-8.11v-.001l-.006-.003c-6.809-4.038-13.889-8.237-22.85-8.237-8.962 0-16.073 4.2-22.855 8.24h0c-3.602 2.156-7.305 4.33-11.239 5.886l-.239.094.101.237.178.413.095.223.226-.089c3.972-1.56 7.678-3.759 11.275-5.894l.095-.056h0c6.767-4.02 13.676-8.112 22.364-8.112 8.687 0 15.596 4.093 22.363 8.112z"/><path d="M56.94 22.213h0l.006.003c6.809 4.039 13.889 8.238 22.85 8.238 8.96 0 16.04-4.2 22.849-8.238l.005-.003h.001c6.736-4.018 13.675-8.111 22.363-8.111h.25v-.943h-.25c-8.963 0-16.074 4.201-22.855 8.24h-.001c-6.736 4.02-13.675 8.112-22.363 8.112-8.687 0-15.596-4.092-22.363-8.111h0l-.006-.003c-6.809-4.039-13.889-8.238-22.85-8.238-8.962 0-16.073 4.201-22.855 8.24v.001C8.119 23.555 4.416 25.73.482 27.285l-.239.095.101.236.178.413.095.223.226-.088c3.972-1.56 7.678-3.76 11.275-5.895l.095-.056h0c6.737-4.018 13.676-8.111 22.364-8.111 8.687 0 15.596 4.093 22.363 8.111z"/><path d="M56.94 19.233h0l.006.003c6.809 4.038 13.889 8.237 22.85 8.237 8.96 0 16.04-4.199 22.849-8.237l.005-.003h.001c6.736-4.019 13.675-8.112 22.363-8.112h.25v-.942h-.25c-8.963 0-16.074 4.2-22.855 8.24h-.001c-6.736 4.019-13.675 8.112-22.363 8.112-8.687 0-15.596-4.093-22.363-8.112h0l-.006-.003c-6.809-4.038-13.889-8.237-22.85-8.237-8.962 0-16.073 4.2-22.855 8.24h0C8.119 20.576 4.416 22.75.482 24.306l-.225.089.082.228.147.413.087.243.24-.095c4.007-1.573 7.772-3.797 11.4-5.95h0c6.737-4.019 13.676-8.112 22.364-8.112 8.687 0 15.596 4.093 22.363 8.112z"/><path d="M56.94 16.28h0l.006.004c6.809 4.038 13.889 8.237 22.85 8.237 8.96 0 16.04-4.199 22.849-8.237l.005-.003h.001c6.736-4.019 13.675-8.112 22.363-8.112h.25v-.942h-.25c-8.963 0-16.074 4.2-22.855 8.24h-.001c-6.736 4.019-13.675 8.111-22.363 8.111-8.687 0-15.596-4.092-22.363-8.11v-.001l-.006-.003c-6.809-4.038-13.889-8.237-22.85-8.237-8.962 0-16.073 4.2-22.855 8.24h0c-3.602 2.156-7.305 4.33-11.239 5.886l-.225.089.082.227.147.413.087.243.24-.094c4.007-1.573 7.772-3.797 11.4-5.95h0c6.737-4.019 13.676-8.112 22.364-8.112 8.687 0 15.596 4.093 22.363 8.112z"/><path d="M56.94 13.301h0l.006.003c6.809 4.039 13.889 8.238 22.85 8.238 8.96 0 16.04-4.2 22.849-8.238l.005-.003h.001c6.736-4.018 13.675-8.111 22.363-8.111h.25v-.943h-.25c-8.963 0-16.074 4.201-22.855 8.24h-.001c-6.736 4.02-13.675 8.112-22.363 8.112-8.687 0-15.596-4.093-22.363-8.111h0l-.006-.004c-6.809-4.038-13.889-8.237-22.85-8.237-8.962 0-16.073 4.201-22.855 8.24v.001c-3.602 2.155-7.305 4.33-11.239 5.885l-.239.095.101.236.178.413.095.223.226-.088c3.972-1.56 7.678-3.76 11.275-5.895l.095-.056h0C18.98 9.282 25.89 5.19 34.577 5.19c8.687 0 15.596 4.092 22.363 8.111z"/><path d="M56.94 10.348h0l.006.003c6.809 4.038 13.889 8.238 22.85 8.238 8.86 0 15.882-4.136 22.621-8.103l.232-.138h.002c6.736-4.019 13.675-8.111 22.363-8.111h.25v-.943h-.25c-8.963 0-16.074 4.2-22.855 8.24h-.001c-6.736 4.019-13.675 8.112-22.363 8.112-8.687 0-15.596-4.093-22.363-8.112h0l-.006-.003c-6.809-4.038-13.889-8.237-22.85-8.237-8.962 0-16.073 4.2-22.855 8.24h0C8.119 11.69 4.416 13.865.482 15.42l-.239.095.101.236.178.413.095.223.226-.088c3.972-1.56 7.678-3.76 11.275-5.895l.095-.056h0C18.95 6.329 25.89 2.237 34.578 2.237c8.687 0 15.596 4.092 22.363 8.111z"/><path d="M56.94 7.369h0l.006.003c6.809 4.038 13.889 8.237 22.85 8.237 8.96 0 16.04-4.199 22.849-8.237l.005-.003h.001c6.736-4.019 13.675-8.112 22.363-8.112h.25v-.943h-.25c-8.963 0-16.074 4.201-22.855 8.241h-.001c-6.736 4.019-13.675 8.111-22.363 8.111-8.687 0-15.596-4.092-22.363-8.111h0l-.006-.003c-6.809-4.039-13.889-8.238-22.85-8.238-8.962 0-16.073 4.201-22.855 8.241h0C8.119 8.711 4.416 10.885.482 12.441l-.239.094.101.237.178.413.095.223.226-.089C4.815 11.76 8.52 9.56 12.118 7.425l.095-.056h0C18.98 3.349 25.89-.743 34.577-.743c8.687 0 15.596 4.093 22.363 8.112z"/><path d="M56.94 4.387h0l.006.003c6.809 4.039 13.889 8.238 22.85 8.238 8.96 0 16.04-4.2 22.849-8.238l.005-.003h.001c6.736-4.018 13.675-8.111 22.363-8.111h.25v-.943h-.25c-8.963 0-16.074 4.201-22.855 8.24h-.001c-6.736 4.02-13.675 8.112-22.363 8.112-8.687 0-15.596-4.093-22.363-8.111h0l-.006-.004c-6.809-4.038-13.889-8.237-22.85-8.237-8.962 0-16.073 4.201-22.855 8.24h0C8.119 5.73 4.416 7.904.482 9.46l-.225.09.082.227.147.413.087.243.24-.094C4.72 8.804 8.4 6.65 11.943 4.575l.269-.158h.002C18.95.396 25.889-3.725 34.576-3.725c8.687 0 15.596 4.092 22.363 8.111z"/><path d="M56.94 1.436h0l.006.003c6.809 4.038 13.889 8.237 22.85 8.237 8.96 0 16.04-4.199 22.849-8.237l.005-.003h.001c6.736-4.019 13.675-8.111 22.363-8.111h.25v-.943h-.25c-8.963 0-16.074 4.2-22.855 8.24h-.001c-6.736 4.019-13.675 8.112-22.363 8.112-8.687 0-15.596-4.093-22.363-8.112h0L57.426.62c-6.809-4.038-13.889-8.237-22.85-8.237-8.962 0-16.073 4.2-22.855 8.24h0C8.119 2.779 4.416 4.953.482 6.509l-.225.089.082.228.147.413.087.243.24-.095c4.007-1.572 7.772-3.797 11.4-5.95h0c6.767-4.02 13.677-8.112 22.364-8.112 8.687 0 15.596 4.092 22.363 8.11z"/><path d="M56.94-1.545h0l.006.003c6.809 4.038 13.889 8.237 22.85 8.237 8.96 0 16.04-4.199 22.849-8.237l.005-.003h.001c6.736-4.02 13.675-8.112 22.363-8.112h.25v-.943h-.25c-8.963 0-16.074 4.201-22.855 8.241h-.001C95.422 1.66 88.483 5.752 79.795 5.752c-8.687 0-15.596-4.092-22.363-8.111h0l-.006-.003C50.617-6.401 43.537-10.6 34.576-10.6c-8.962 0-16.073 4.201-22.855 8.241h0C8.119-.203 4.416 1.971.482 3.527l-.225.088.082.228.147.413.087.243.24-.094c4.007-1.573 7.772-3.797 11.4-5.95h0c6.767-4.02 13.676-8.112 22.364-8.112 8.687 0 15.596 4.093 22.363 8.112z"/><path d="M56.94-4.497h0l.006.003c6.809 4.039 13.889 8.238 22.85 8.238 8.86 0 15.882-4.135 22.621-8.103l.232-.137h.002c6.736-4.02 13.675-8.112 22.363-8.112h.25v-.943h-.25c-8.963 0-16.074 4.201-22.855 8.24l-.001.001c-6.736 4.018-13.675 8.111-22.363 8.111-8.664 0-15.589-4.1-22.31-8.08l-.053-.031h0l-.006-.003c-6.809-4.039-13.889-8.238-22.85-8.238-8.962 0-16.073 4.201-22.855 8.24v.001C8.119-3.154 4.416-.98.482.575l-.23.091.089.232.147.383.09.235.235-.092C4.72-.11 8.4-2.263 11.943-4.338l.269-.158h.001c6.767-4.02 13.676-8.112 22.364-8.112 8.687 0 15.596 4.093 22.363 8.111zm.002 53.454h0l.005.004c6.81 4.038 13.89 8.237 22.85 8.237 8.86 0 15.883-4.135 22.622-8.103l.232-.137h.002c6.736-4.02 13.675-8.112 22.363-8.112h.25v-.943h-.25c-8.963 0-16.074 4.201-22.856 8.241h0c-6.736 4.018-13.675 8.111-22.363 8.111-8.688 0-15.596-4.092-22.363-8.111h0l-.006-.003c-6.809-4.039-13.889-8.238-22.85-8.238-8.962 0-16.073 4.201-22.855 8.241h0C8.12 50.3 4.418 52.474.484 54.03l-.225.088.082.228.147.413.087.243.24-.094c3.779-1.484 7.344-3.573 10.779-5.587l.62-.363h.001c6.767-4.02 13.676-8.112 22.364-8.112 8.687 0 15.596 4.093 22.363 8.111z"/><path d="M56.942 45.976h0l.005.003c6.81 4.038 13.89 8.238 22.85 8.238s16.04-4.2 22.85-8.238l.005-.003h.001c6.736-4.019 13.675-8.111 22.363-8.111h.25v-.943h-.25c-8.963 0-16.074 4.2-22.856 8.24h0c-6.736 4.019-13.675 8.112-22.363 8.112-8.688 0-15.596-4.093-22.363-8.112h0l-.006-.003c-6.809-4.038-13.889-8.237-22.85-8.237-8.962 0-16.073 4.2-22.855 8.24h0C8.12 47.319 4.418 49.493.484 51.049l-.239.095.101.236.177.413.096.223.226-.089c3.972-1.559 7.678-3.759 11.275-5.894l.095-.056h0c6.737-4.019 13.676-8.111 22.364-8.111 8.687 0 15.596 4.092 22.363 8.111z"/><path d="M56.942 42.994h0l.005.003c6.81 4.038 13.89 8.237 22.85 8.237s16.04-4.199 22.85-8.237l.005-.003h.001c6.736-4.019 13.675-8.112 22.363-8.112h.25v-.942h-.25c-8.963 0-16.074 4.2-22.856 8.24h0c-6.736 4.019-13.675 8.111-22.363 8.111-8.688 0-15.626-4.092-22.363-8.11v-.001l-.006-.003c-6.809-4.038-13.889-8.237-22.85-8.237-8.962 0-16.073 4.2-22.855 8.24h0C8.12 44.336 4.418 46.51.484 48.066l-.225.088.082.228.147.413.087.243.24-.094c4.007-1.573 7.772-3.797 11.4-5.95h0c6.767-4.02 13.676-8.112 22.364-8.112 8.687 0 15.596 4.093 22.363 8.112z"/><path d="M56.942 40.041h0l.005.004c6.81 4.038 13.89 8.237 22.85 8.237s16.04-4.2 22.85-8.237l.005-.004h.001c6.736-4.018 13.675-8.111 22.363-8.111h.25v-.943h-.25c-8.963 0-16.074 4.201-22.856 8.241h0c-6.736 4.018-13.675 8.111-22.363 8.111-8.688 0-15.626-4.093-22.363-8.11v-.001l-.006-.003c-6.809-4.039-13.889-8.238-22.85-8.238-8.962 0-16.073 4.201-22.855 8.241h0C8.12 41.384 4.418 43.558.484 45.114l-.225.088.082.228.147.413.087.243.24-.094c4.007-1.573 7.772-3.797 11.4-5.95h0c6.767-4.02 13.676-8.112 22.364-8.112 8.687 0 15.596 4.093 22.363 8.111z"/><path d="M56.942 37.062h0l.005.003c6.81 4.038 13.89 8.237 22.85 8.237s16.04-4.199 22.85-8.237l.005-.003h.001c6.736-4.019 13.675-8.111 22.363-8.111h.25v-.943h-.25c-8.963 0-16.074 4.2-22.856 8.24h0c-6.736 4.019-13.675 8.112-22.363 8.112-8.688 0-15.596-4.093-22.363-8.112h0l-.006-.003c-6.809-4.038-13.889-8.237-22.85-8.237-8.962 0-16.073 4.2-22.855 8.24h0C8.12 38.405 4.418 40.579.484 42.135l-.239.095.101.236.177.413.096.223.226-.089c3.972-1.559 7.678-3.759 11.275-5.894l.095-.056h0c6.767-4.019 13.676-8.111 22.364-8.111 8.687 0 15.596 4.092 22.363 8.11z"/><path d="M56.942 34.11h0l.005.004c6.81 4.038 13.89 8.237 22.85 8.237 8.86 0 15.883-4.135 22.622-8.103l.232-.137h.002c6.736-4.019 13.675-8.112 22.363-8.112h.25v-.942h-.25c-8.963 0-16.074 4.2-22.856 8.24h0c-6.736 4.019-13.675 8.111-22.363 8.111-8.688 0-15.596-4.092-22.363-8.11h0l-.006-.004c-6.809-4.038-13.889-8.237-22.85-8.237-8.962 0-16.073 4.2-22.855 8.24h0C8.12 35.454 4.418 37.628.484 39.184l-.239.094.101.237.177.413.096.223.226-.089c3.972-1.56 7.678-3.759 11.275-5.894l.095-.056h0C18.982 30.093 25.891 26 34.579 26c8.687 0 15.596 4.093 22.363 8.112z"/><path d="M12.215 31.158h0c6.767-4.019 13.676-8.111 22.364-8.111 8.654 0 15.543 4.06 22.286 8.036l.077.045h0l.005.003c6.81 4.039 13.89 8.238 22.85 8.238s16.04-4.2 22.85-8.238l.005-.003h.001c6.736-4.018 13.675-8.111 22.363-8.111h.25v-.943h-.25c-8.963 0-16.074 4.201-22.856 8.24v.001c-6.736 4.018-13.675 8.111-22.363 8.111-8.688 0-15.596-4.093-22.363-8.111h0l-.006-.003c-6.809-4.039-13.889-8.238-22.85-8.238-8.962 0-16.073 4.201-22.855 8.24v.001C8.12 32.471 4.418 34.645.484 36.2l-.233.093.093.233.177.442.092.231.232-.09c3.972-1.56 7.678-3.76 11.275-5.895l.095-.056z"/><path d="M56.942 28.148h0l.005.003c6.81 4.038 13.89 8.237 22.85 8.237s16.04-4.199 22.85-8.237l.005-.003h.001c6.736-4.019 13.675-8.111 22.363-8.111h.25v-.944h-.25c-8.963 0-16.074 4.2-22.856 8.24h0c-6.736 4.019-13.675 8.112-22.363 8.112-8.688 0-15.596-4.093-22.363-8.112h0l-.006-.003c-6.809-4.038-13.889-8.237-22.85-8.237-8.962 0-16.073 4.2-22.855 8.24h0C8.12 29.49 4.418 31.665.484 33.22l-.239.095.101.236.177.413.096.223.226-.089c3.971-1.559 7.678-3.759 11.275-5.894l.095-.056h0c6.767-4.019 13.676-8.111 22.364-8.111 8.687 0 15.596 4.092 22.363 8.11z"/><path d="M56.942 25.197h0l.005.003c6.81 4.038 13.89 8.237 22.85 8.237 8.86 0 15.883-4.135 22.622-8.103l.232-.137h.002c6.736-4.019 13.675-8.112 22.363-8.112h.25v-.942h-.25c-8.963 0-16.074 4.2-22.856 8.24h0c-6.736 4.019-13.675 8.112-22.363 8.112-8.688 0-15.596-4.093-22.363-8.112h0l-.006-.003c-6.809-4.038-13.889-8.237-22.85-8.237-8.962 0-16.073 4.2-22.855 8.24h0C8.12 26.54 4.418 28.714.484 30.27l-.239.094.101.237.177.413.096.223.226-.089c3.971-1.56 7.678-3.759 11.275-5.894l.095-.056h0c6.767-4.02 13.676-8.112 22.364-8.112 8.687 0 15.596 4.093 22.363 8.112z"/><path d="M56.942 22.214h0l.005.003c6.81 4.039 13.89 8.238 22.85 8.238s16.04-4.2 22.85-8.238l.005-.003h.001c6.736-4.018 13.675-8.111 22.363-8.111h.25v-.943h-.25c-8.963 0-16.074 4.201-22.856 8.24h0c-6.736 4.02-13.675 8.112-22.363 8.112-8.688 0-15.596-4.093-22.363-8.111h0l-.006-.003c-6.809-4.039-13.889-8.238-22.85-8.238-8.962 0-16.073 4.201-22.855 8.24v.001C8.12 23.556 4.418 25.731.484 27.286l-.239.095.101.236.177.413.096.223.226-.088c3.972-1.56 7.678-3.76 11.275-5.895l.095-.056h0c6.737-4.018 13.676-8.111 22.364-8.111 8.687 0 15.596 4.092 22.363 8.111z"/><path d="M56.942 19.234h0l.005.003c6.81 4.038 13.89 8.237 22.85 8.237s16.04-4.199 22.85-8.237l.005-.003h.001c6.736-4.019 13.675-8.112 22.363-8.112h.25v-.942h-.25c-8.963 0-16.074 4.2-22.856 8.24h0c-6.736 4.019-13.675 8.112-22.363 8.112-8.688 0-15.596-4.093-22.363-8.112h0l-.006-.003c-6.809-4.038-13.889-8.237-22.85-8.237-8.962 0-16.073 4.2-22.855 8.24h0C8.12 20.577 4.418 22.75.484 24.307l-.225.089.082.227.147.414.087.242.24-.094c4.007-1.573 7.772-3.797 11.4-5.95h0c6.737-4.019 13.676-8.112 22.364-8.112 8.687 0 15.596 4.093 22.363 8.112z"/><path d="M56.942 16.282h0l.005.003c6.81 4.038 13.89 8.237 22.85 8.237s16.04-4.199 22.85-8.237l.005-.003h.001c6.736-4.019 13.675-8.112 22.363-8.112h.25v-.942h-.25c-8.963 0-16.074 4.2-22.856 8.24h0c-6.736 4.019-13.675 8.111-22.363 8.111-8.688 0-15.596-4.092-22.363-8.111h0l-.006-.003c-6.809-4.038-13.889-8.237-22.85-8.237-8.962 0-16.073 4.2-22.855 8.24h0C8.12 17.625 4.418 19.799.484 21.355l-.225.089.082.227.147.413.087.243.24-.094c4.007-1.573 7.772-3.797 11.4-5.95h0C18.953 12.262 25.892 8.17 34.58 8.17c8.687 0 15.596 4.093 22.363 8.112z"/><path d="M56.942 13.302h0l.005.003c6.81 4.039 13.89 8.238 22.85 8.238s16.04-4.2 22.85-8.238l.005-.003h.001c6.736-4.018 13.675-8.111 22.363-8.111h.25v-.943h-.25c-8.963 0-16.074 4.201-22.856 8.24h0c-6.736 4.02-13.675 8.112-22.363 8.112-8.688 0-15.596-4.093-22.363-8.111h0l-.006-.004C50.62 8.447 43.54 4.248 34.578 4.248c-8.962 0-16.073 4.201-22.855 8.24v.001C8.12 14.644 4.418 16.819.484 18.374l-.239.095.101.236.177.413.096.223.226-.088c3.972-1.56 7.678-3.76 11.275-5.895l.095-.056h0c6.767-4.019 13.676-8.111 22.364-8.111 8.687 0 15.596 4.092 22.363 8.111z"/><path d="M56.942 10.349h0l.005.003c6.81 4.038 13.89 8.238 22.85 8.238 8.86 0 15.883-4.136 22.622-8.103l.232-.137.002-.001c6.736-4.019 13.675-8.111 22.363-8.111h.25v-.943h-.25c-8.963 0-16.074 4.2-22.856 8.24h0c-6.736 4.019-13.675 8.112-22.363 8.112-8.688 0-15.596-4.093-22.363-8.112h0l-.006-.003C50.62 5.494 43.54 1.295 34.578 1.295c-8.962 0-16.073 4.2-22.855 8.24h0C8.12 11.692 4.418 13.866.484 15.422l-.239.095.101.236.177.413.096.223.226-.089c3.971-1.559 7.678-3.758 11.275-5.894l.095-.056h0c6.738-4.02 13.677-8.112 22.365-8.112 8.687 0 15.596 4.092 22.363 8.111z"/><path d="M56.942 7.37h0l.005.003c6.81 4.038 13.89 8.237 22.85 8.237s16.04-4.199 22.85-8.237l.005-.003h.001c6.736-4.02 13.675-8.112 22.363-8.112h.25v-.943h-.25c-8.963 0-16.074 4.201-22.856 8.241h0c-6.736 4.019-13.675 8.111-22.363 8.111-8.688 0-15.596-4.092-22.363-8.111h0l-.006-.003C50.62 2.514 43.54-1.685 34.578-1.685c-8.962 0-16.073 4.201-22.855 8.241h0C8.12 8.712 4.418 10.886.484 12.442l-.239.094.101.237.177.413.096.223.226-.089c3.971-1.56 7.678-3.759 11.275-5.894l.095-.056h0C18.982 3.35 25.891-.742 34.58-.742c8.687 0 15.596 4.093 22.363 8.112z"/><path d="M56.942 4.388h0l.005.003c6.81 4.039 13.89 8.238 22.85 8.238s16.04-4.2 22.85-8.238l.005-.003h.001c6.736-4.018 13.675-8.111 22.363-8.111h.25v-.943h-.25c-8.963 0-16.074 4.201-22.856 8.24h0c-6.736 4.02-13.675 8.112-22.363 8.112-8.688 0-15.596-4.093-22.363-8.112h0l-.006-.003C50.62-.467 43.54-4.666 34.578-4.666c-8.962 0-16.073 4.201-22.855 8.24h0C8.12 5.73 4.418 7.905.484 9.46l-.225.09.082.227.147.413.087.243.24-.094c3.907-1.534 7.586-3.688 11.13-5.763l.269-.158h.002C18.953.397 25.89-3.724 34.578-3.724c8.687 0 15.596 4.092 22.363 8.111z"/><path d="M56.942 1.437h0l.005.003c6.81 4.038 13.89 8.237 22.85 8.237s16.04-4.199 22.85-8.237l.005-.003h.001c6.736-4.019 13.675-8.111 22.363-8.111h.25v-.943h-.25c-8.963 0-16.074 4.2-22.856 8.24h0c-6.736 4.019-13.675 8.112-22.363 8.112-8.688 0-15.596-4.093-22.363-8.112h0L57.428.62C50.62-3.418 43.54-7.617 34.578-7.617c-8.962 0-16.073 4.2-22.855 8.24h0C8.12 2.78 4.418 4.954.484 6.51l-.225.089.082.228.147.413.087.243.24-.095c4.007-1.573 7.772-3.797 11.4-5.95h0c6.767-4.019 13.676-8.111 22.364-8.111 8.687 0 15.596 4.092 22.363 8.11z"/><path d="M56.942-1.545h0l.005.004c6.81 4.038 13.89 8.237 22.85 8.237s16.04-4.199 22.85-8.237l.005-.003h.001c6.736-4.02 13.675-8.112 22.363-8.112h.25v-.943h-.25c-8.963 0-16.074 4.201-22.856 8.241h0C95.424 1.66 88.485 5.753 79.797 5.753c-8.688 0-15.596-4.092-22.363-8.111h0l-.006-.003C50.62-6.4 43.54-10.6 34.578-10.6c-8.962 0-16.073 4.201-22.855 8.241h0C8.12-.202 4.418 1.972.484 3.528l-.225.088.082.228.147.413.087.243.24-.094c4.007-1.573 7.772-3.797 11.4-5.95h0c6.767-4.02 13.676-8.112 22.364-8.112 8.687 0 15.596 4.093 22.363 8.111z"/><path d="M56.942-4.496h0l.005.003c6.81 4.039 13.89 8.238 22.85 8.238 8.86 0 15.883-4.135 22.622-8.103l.232-.137h.002c6.736-4.02 13.675-8.112 22.363-8.112h.25v-.943h-.25c-8.963 0-16.074 4.201-22.856 8.24h0c-6.736 4.02-13.675 8.112-22.363 8.112-8.664 0-15.589-4.1-22.31-8.08l-.053-.031h0l-.006-.003C50.62-9.351 43.54-13.55 34.578-13.55c-8.962 0-16.073 4.201-22.855 8.24v.001C8.12-3.153 4.418-.979.484.576l-.23.091L.343.9l.147.383.09.235.235-.092c3.907-1.534 7.586-3.687 11.13-5.762l.269-.158h.001c6.767-4.02 13.676-8.112 22.364-8.112 8.687 0 15.596 4.093 22.363 8.111z"/></g><circle cx="67.992" cy="21.494" r="10.5" fill="#fff"/><g clip-path="url(#clip0)"><path d="M68.008 10.994c-5.79 0-10.5 4.71-10.5 10.5s4.71 10.5 10.5 10.5 10.5-4.71 10.5-10.5-4.71-10.5-10.5-10.5zm.667 3.411l2.7-1.451a9.231 9.231 0 013.791 2.795l-.643 2.97-2.06 1.008-3.788-2.76v-2.562zm-4.011-1.46l2.7 1.458v2.564l-3.787 2.76-2.07-1.01-.643-2.987a9.217 9.217 0 013.8-2.784zm-4.23 13.739a9.127 9.127 0 01-1.568-4.297l2.222-2.414 2.027.99L64.64 25.3l-1.29 1.546-2.916-.161zm9.914 3.684a9.13 9.13 0 01-2.34.314 9.15 9.15 0 01-2.808-.443l-.825-2.57 1.316-1.581h4.639l1.292 1.53-1.274 2.75zm2.298-3.567l-1.269-1.503 1.547-4.334 2.018-.988 2.209 2.412a9.102 9.102 0 01-1.24 3.768l-3.265.645z" fill="#CE091D"/></g><defs><clipPath id="clip0"><path fill="#fff" transform="translate(57.508 10.994)" d="M0 0h21v21H0z"/></clipPath></defs></svg>