<svg width="24" height="24" fill="none" xmlns="http://www.w3.org/2000/svg"><g clip-path="url(#clip0)" fill="#154D80"><path d="M12.469 19.031a.469.469 0 11-.938 0 .469.469 0 01.938 0zm9.984-4.218A2.816 2.816 0 0019.641 12a2.816 2.816 0 00-2.813 2.813 2.816 2.816 0 002.813 2.812 2.816 2.816 0 002.812-2.813zm-2.812 1.874a1.877 1.877 0 01-1.875-1.875 1.876 1.876 0 013.75 0 1.877 1.877 0 01-1.875 1.876z"/><path d="M19.64 17.625c-1.18 0-2.358.49-3.16 1.285A5.598 5.598 0 0012 16.687a5.615 5.615 0 00-4.479 2.223c-.802-.794-1.98-1.285-3.162-1.285C1.996 17.625 0 19.557 0 21.844v.937c0 .26.21.469.469.469H23.53c.26 0 .469-.21.469-.469v-.937c0-2.287-1.996-4.219-4.36-4.219zM.938 21.844c0-1.779 1.568-3.282 3.422-3.282 1.015 0 2.022.45 2.645 1.165a5.625 5.625 0 00-.629 2.585H.937v-.468zM12 17.625a4.686 4.686 0 014.688 4.688H7.313A4.692 4.692 0 0112 17.625zm11.063 4.688h-5.438c0-.903-.217-1.79-.629-2.586.623-.715 1.63-1.165 2.645-1.165 1.855 0 3.422 1.503 3.422 3.282v.468z"/><path d="M7.172 14.813A2.816 2.816 0 004.359 12a2.816 2.816 0 00-2.812 2.813 2.816 2.816 0 002.812 2.812 2.816 2.816 0 002.813-2.813zm-2.813 1.874a1.877 1.877 0 01-1.875-1.875 1.876 1.876 0 013.75 0 1.877 1.877 0 01-1.875 1.876zm11.391-3.749A3.754 3.754 0 0012 9.188a3.754 3.754 0 00-3.75 3.75 3.754 3.754 0 003.75 3.75 3.754 3.754 0 003.75-3.75zM12 15.75a2.816 2.816 0 01-2.813-2.813A2.816 2.816 0 0112 10.126a2.816 2.816 0 012.813 2.813A2.816 2.816 0 0112 15.75zm3.71-12.274a.468.468 0 00-.378-.319l-2.022-.293-.905-1.851a.468.468 0 00-.842 0l-.905 1.85-2.022.294a.469.469 0 00-.26.8L9.84 5.384l-.345 2.015a.468.468 0 00.68.494l1.809-.951 1.81.95a.469.469 0 00.68-.493l-.346-2.015 1.464-1.427a.469.469 0 00.118-.48zm-2.413 1.408a.468.468 0 00-.135.415l.227 1.322-1.187-.624a.47.47 0 00-.436 0l-1.187.624.227-1.322a.469.469 0 00-.135-.415l-.96-.936 1.326-.192a.468.468 0 00.354-.258l.593-1.212.593 1.212c.068.14.2.236.353.258l1.327.192-.96.936zm9.419 2.106a.468.468 0 00-.378-.32l-1.37-.199-.612-1.241a.469.469 0 00-.84 0l-.614 1.241-1.37.2a.468.468 0 00-.26.799l.992.967-.235 1.364a.469.469 0 00.68.494l1.226-.644 1.226.644a.469.469 0 00.68-.494l-.234-1.364.991-.967a.469.469 0 00.119-.48zm-1.94.947a.468.468 0 00-.135.415l.115.671-.602-.317a.469.469 0 00-.437 0l-.603.317.115-.67a.469.469 0 00-.134-.416l-.488-.475.674-.098a.469.469 0 00.353-.256l.301-.611.302.61c.068.139.2.235.353.257l.674.098-.488.475zM6.779 6.99a.468.468 0 00-.378-.32l-1.37-.199-.613-1.241a.468.468 0 00-.84 0l-.613 1.241-1.37.2a.468.468 0 00-.26.799l.991.967L2.092 9.8a.468.468 0 00.68.494l1.226-.644 1.225.644a.469.469 0 00.68-.494L5.67 8.437l.992-.967a.469.469 0 00.118-.48zm-1.94.947a.469.469 0 00-.136.415l.116.671-.603-.317a.468.468 0 00-.436 0l-.603.317.115-.67a.468.468 0 00-.135-.416l-.488-.475.674-.098a.469.469 0 00.353-.256l.302-.611.3.61c.07.139.201.235.354.257l.674.098-.488.475zm9.215 11.239a.469.469 0 10-.514.783c.433.285.78.682 1.001 1.148a.468.468 0 10.847-.403 3.765 3.765 0 00-1.334-1.528z"/></g><defs><clipPath id="clip0"><path fill="#fff" d="M0 0h24v24H0z"/></clipPath></defs></svg>