<svg width="24" height="20" fill="none" xmlns="http://www.w3.org/2000/svg"><path d="M23.85 7.023l-.626-1.083a.469.469 0 00-.812.47l.626 1.082a.182.182 0 01-.067.25l-1.654.954a.184.184 0 01-.25-.067l-3.325-5.76a.183.183 0 01.067-.25l1.653-.954c.087-.05.2-.02.25.067l.591 1.024a.469.469 0 10.812-.469l-.591-1.024a1.122 1.122 0 00-1.53-.41l-1.654.954a1.117 1.117 0 00-.507.63h-4.686c-.658 0-1.277.257-1.742.722l-.48.48a5.546 5.546 0 00-1.286-.152H7.184a1.117 1.117 0 00-.524-.69l-1.653-.954a1.11 1.11 0 00-.85-.112c-.29.077-.531.263-.68.522L.15 8.013c-.15.26-.19.561-.112.85.077.29.262.531.522.68l1.653.955a1.113 1.113 0 00.764.13l1.353 1.354a1.675 1.675 0 00.462 1.519 1.68 1.68 0 001.1.49 1.675 1.675 0 00.484 1.37c.318.319.742.494 1.192.494h.036v.036c0 .45.175.874.493 1.192.319.319.742.494 1.193.494l.036-.001v.037c0 .45.175.873.493 1.192.319.318.742.494 1.193.494.45 0 .874-.176 1.192-.494l.667-.667a1.69 1.69 0 00.412-.674c.296.218.648.328 1 .328a1.681 1.681 0 001.61-1.185 1.684 1.684 0 002.113-.221c.237-.237.394-.532.46-.852a1.687 1.687 0 001.724-2.793l-1.094-1.094 1.997-1.997a1.114 1.114 0 00.692-.142l1.653-.954c.26-.15.445-.391.522-.68.078-.29.038-.592-.112-.85zM1.03 8.732a.182.182 0 01-.067-.25l3.325-5.76a.182.182 0 01.25-.067l1.653.954c.087.05.118.163.067.25L2.933 9.62a.183.183 0 01-.25.067l-1.654-.954zm4.207 3.576c0-.2.078-.388.22-.53l.404-.404a.746.746 0 011.059 0 .747.747 0 010 1.059l-.405.405a.75.75 0 01-1.278-.53zm2.332 2.61a.744.744 0 01-.53-.22.744.744 0 01-.219-.53c0-.2.078-.387.22-.529l.666-.666a.746.746 0 011.06 0 .746.746 0 01-.001 1.059l-.667.666a.744.744 0 01-.529.22zm1.722 1.722a.744.744 0 01-.53-.22.744.744 0 01-.219-.53c0-.2.078-.387.22-.529l.666-.667a.746.746 0 011.06 0 .752.752 0 01-.001 1.06l-.667.666a.744.744 0 01-.53.22zm2.918.835l-.667.667a.743.743 0 01-.53.22.744.744 0 01-.529-.22.743.743 0 01-.22-.53c0-.2.079-.387.22-.529l.667-.667a.746.746 0 011.06 0 .75.75 0 010 1.06zm7.32-3.012a.744.744 0 01-.53.22.743.743 0 01-.53-.22l-4.474-4.474a.469.469 0 00-.663.662l4.012 4.013c.142.141.22.33.22.53s-.078.387-.22.529a.744.744 0 01-.529.22.743.743 0 01-.53-.22l-4.82-4.822a.469.469 0 00-.664.663l4.012 4.013c.142.141.22.33.22.53s-.078.387-.22.529a.75.75 0 01-1.059 0l-.882-.883-.004-.003a1.681 1.681 0 00-1.225-.489l.001-.037a1.681 1.681 0 00-1.723-1.685l.001-.037a1.684 1.684 0 00-1.847-1.678 1.688 1.688 0 00-2.877-1.113l-.405.405-.001.001-1.04-1.04 3.262-5.652H8.64c.159 0 .318.008.476.024l-.536.536a1.675 1.675 0 00-.494 1.193A1.681 1.681 0 009.77 7.864a1.68 1.68 0 001.193-.494l1.265-1.265 7.3 7.299a.75.75 0 010 1.059zm-4.504-6.889a2.66 2.66 0 001.1-2.155.469.469 0 00-.938 0c0 .612-.323 1.17-.839 1.479l-1.785-1.786a.468.468 0 00-.663-.004l-1.6 1.6a.75.75 0 01-1.058-1.06l1.826-1.826a1.516 1.516 0 011.079-.447h4.804l3.305 5.723.024.04-1.846 1.846-3.41-3.41z" fill="#154D80"/></svg>