<svg width="81" height="80" fill="none" xmlns="http://www.w3.org/2000/svg"><mask id="a" maskUnits="userSpaceOnUse" x="0" y="0" width="81" height="80"><circle cx="40.998" cy="40" r="40" fill="#C4C4C4"/></mask><g clip-path="url(#clip0)" mask="url(#a)"><path d="M41-1.598C18.027-1.598-.6 17.026-.6 40.001c0 22.974 18.625 41.598 41.6 41.598 22.976 0 41.6-18.624 41.6-41.599C82.6 17.027 63.976-1.597 41-1.597zm0 12.439c7.601 0 13.76 6.161 13.76 13.76S48.602 38.36 41 38.36c-7.598 0-13.758-6.16-13.758-13.76 0-7.598 6.16-13.76 13.758-13.76zm-.01 59.882a30.53 30.53 0 01-19.88-7.331 5.863 5.863 0 01-2.058-4.457c0-7.706 6.237-13.873 13.944-13.873h16.01c7.71 0 13.923 6.167 13.923 13.873a5.85 5.85 0 01-2.056 4.455 30.52 30.52 0 01-19.883 7.333z" fill="#F3F4F7"/></g><defs><clipPath id="clip0"><path fill="#fff" transform="translate(-.6 -1.6)" d="M0 0h83.2v83.2H0z"/></clipPath></defs></svg>