<svg width="140" height="140" fill="none" xmlns="http://www.w3.org/2000/svg"><g clip-path="url(#clip0)"><path d="M79.522 93c-.523-.573-1.184-1.002-1.868-1.358-1.488-.777-3.116-1.247-4.732-1.672v12.523c2.623-.296 5.635-1.248 7.012-3.697.658-1.17.788-2.607.52-3.91-.145-.705-.445-1.353-.932-1.887zm.398 5.82l.014-.024-.014.024zM60.617 72.98a4.697 4.697 0 00-.812 2.201c-.078.797-.034 1.684.269 2.434.288.714.892 1.242 1.515 1.667.7.476 1.469.847 2.252 1.162.657.265 1.397.518 2.193.762V69.874c-2.013.43-4.212 1.347-5.417 3.105zm19.368 25.722l-.051.092.051-.092zm.068-.117c.004-.008.005-.008 0 0z" fill="#0D5394"/><path d="M77.334 30.462C87.984 21.515 95.1 1.36 90.72.478 84.9-.694 72.265 4.445 66.158 5.35 57.495 6.396 48.06-4.044 42.765 1.775c-4.306 4.731 3.087 21.937 14.653 29.433-34.508 16.96-83.011 102.102 1.605 108.28 117.083 8.548 58.455-92.499 18.31-109.026z" fill="#0D5394"/><path d="M59.942 113a4.78 4.78 0 01-4.78-4.779v-2.967h-2.838a2.324 2.324 0 010-4.648h2.839v-4.367h-.902a4.26 4.26 0 110-8.52h.902V63h18.07c2.372 0 4.534.47 6.488 1.408 1.953.94 3.605 2.207 4.953 3.803a17.41 17.41 0 013.21 5.352A17.02 17.02 0 0189 79.62a17.85 17.85 0 01-1.884 8.028 15.476 15.476 0 01-5.302 6.197c-2.28 1.596-5 2.394-8.163 2.394h-8.93v4.367h6.885a2.324 2.324 0 110 4.648h-6.885v2.967A4.78 4.78 0 0159.94 113zm4.779-25.282h8.302c2.186 0 3.768-.727 4.744-2.183 1.024-1.502 1.535-3.474 1.535-5.915 0-2.582-.604-4.578-1.814-5.986-1.162-1.409-2.79-2.113-4.883-2.113H64.72v16.197z" fill="#fff"/><path d="M79.884 98.884l-.051.091.051-.091z" fill="#0D5394"/></g><defs><clipPath id="clip0"><path fill="#fff" d="M0 0h140v140H0z"/></clipPath></defs></svg>