<svg width="25" height="25" fill="none" xmlns="http://www.w3.org/2000/svg"><path d="M7.036 17.693a13.1 13.1 0 014.765-1.162v-2.833H.506a11.963 11.963 0 002.576 6.758 13.164 13.164 0 013.954-2.763zm4.766-9.649V.994a11.981 11.981 0 00-7.779 3.483 11.852 11.852 0 007.779 3.567zM.506 12.29H11.8V9.456a13.099 13.099 0 01-4.765-1.161A13.167 13.167 0 013.082 5.53a11.963 11.963 0 00-2.576 6.76zm20.482-7.813A11.981 11.981 0 0013.209.994v7.05a11.85 11.85 0 007.779-3.567zm-7.779 13.467v7.05a11.981 11.981 0 007.779-3.483 11.85 11.85 0 00-7.779-3.567zm11.296-4.246H13.209v2.834a13.1 13.1 0 014.773 1.165 13.164 13.164 0 013.947 2.76 11.963 11.963 0 002.576-6.759zm-2.651-8.09a13.163 13.163 0 01-3.872 2.684 13.098 13.098 0 01-4.773 1.165v2.833h11.296a11.963 11.963 0 00-2.576-6.759l-.075.077zM11.802 17.944a11.85 11.85 0 00-7.779 3.567 11.981 11.981 0 007.779 3.483v-7.05z" fill="#CDD3D9"/></svg>