<svg width="24" height="24" fill="none" xmlns="http://www.w3.org/2000/svg"><g clip-path="url(#clip0)" fill="#0D5394"><path d="M8.09 2.182c0-.716.558-1.239 1.274-1.239H14.6c.715 0 1.274.523 1.274 1.239v1.356h.943V2.182C16.817.946 15.836 0 14.6 0H9.364C8.128 0 7.146.946 7.146 2.182v1.356h.944V2.182zM6.404 24H17.56c1.075 0 1.91-.946 1.91-2.122V7.312H4.493v14.566c0 1.176.835 2.122 1.91 2.122zm8.585-14.435a.472.472 0 11.944 0V20.71a.472.472 0 01-.944 0V9.565zm-3.479 0a.472.472 0 11.944 0V20.71a.472.472 0 01-.944 0V9.565zm-3.479 0a.472.472 0 01.944 0V20.71a.472.472 0 01-.944 0V9.565zM4.01 6.368h15.944a1.18 1.18 0 100-2.358H4.01a1.18 1.18 0 100 2.358z"/></g><defs><clipPath id="clip0"><path fill="#fff" d="M0 0h24v24H0z"/></clipPath></defs></svg>