<svg width="20" height="20" fill="none" xmlns="http://www.w3.org/2000/svg"><g clip-path="url(#clip0)" fill="#154D80"><path d="M16.053 10.268v-1.87a6.065 6.065 0 00-4.297-5.794v-.846A1.76 1.76 0 009.998 0 1.76 1.76 0 008.24 1.758v.846a6.065 6.065 0 00-4.297 5.794v1.87a9.2 9.2 0 01-2.571 6.397.586.586 0 00.423.991h5.332A2.935 2.935 0 009.998 20a2.935 2.935 0 002.87-2.344h5.333a.586.586 0 00.423-.991 9.2 9.2 0 01-2.571-6.397zm-6.64-8.51a.587.587 0 011.171 0v.614a6.1 6.1 0 00-1.172 0v-.614zm.585 17.07a1.76 1.76 0 01-1.657-1.172h3.314a1.76 1.76 0 01-1.657 1.172zm-6.94-2.344a10.36 10.36 0 002.057-6.216v-1.87a4.888 4.888 0 014.883-4.882 4.888 4.888 0 014.883 4.882v1.87c0 2.263.723 4.428 2.057 6.216H3.058zm14.559-8.087a.586.586 0 101.172 0 8.732 8.732 0 00-2.574-6.215.586.586 0 10-.829.829 7.567 7.567 0 012.232 5.386zm-15.82.587a.586.586 0 00.586-.586 7.57 7.57 0 012.23-5.386.586.586 0 10-.828-.829 8.731 8.731 0 00-2.574 6.215c0 .324.262.586.586.586z"/></g><defs><clipPath id="clip0"><path fill="#fff" d="M0 0h20v20H0z"/></clipPath></defs></svg>