<svg width="24" height="24" fill="none" xmlns="http://www.w3.org/2000/svg"><path d="M12 20a8 8 0 10-8-8 8.01 8.01 0 008 8zm-7.2-8a7.172 7.172 0 01.21-1.7l3.322 2.798-1.389 4.02A7.176 7.176 0 014.8 12zm8.81-2.829a.4.4 0 00.323.24l4.297.483-3.288 2.77a.4.4 0 00-.12.436l1.359 3.933-4.084-1.021a.404.404 0 00-.194 0l-4.084 1.02L9.18 13.1a.4.4 0 00-.121-.437L5.77 9.893l4.297-.482a.4.4 0 00.323-.24L12 5.415l1.61 3.756zm-5.784 8.685L12 16.812l4.174 1.044a7.151 7.151 0 01-8.348 0zm9.23-.738l-1.388-4.02 3.321-2.797a7.13 7.13 0 01-1.932 6.817zM18.6 9.13l-4.346-.488-1.634-3.81A7.21 7.21 0 0118.6 9.13zm-7.22-4.299L9.746 8.642 5.4 9.13a7.21 7.21 0 015.98-4.299z" fill="#154D80"/><path d="M2 12c0 5.523 4.477 10 10 10s10-4.477 10-10S17.523 2 12 2c-5.52.006-9.994 4.48-10 10zm10-9.2a9.2 9.2 0 019.2 9.2 9.2 9.2 0 01-9.2 9.2A9.2 9.2 0 012.8 12 9.21 9.21 0 0112 2.8z" fill="#154D80"/><path d="M10.674 14.38l.947.315a.39.39 0 00-.02.105v.4a.4.4 0 00.8 0v-.245l.673.224a.4.4 0 00.526-.38v-2a.4.4 0 00-.273-.379l-2.127-.709v-1.556l1.6.533v.512a.4.4 0 00.8 0v-.8a.4.4 0 00-.273-.38l-.927-.308V9.2a.4.4 0 00-.8 0v.245l-.673-.225a.4.4 0 00-.527.38V12a.4.4 0 00.274.38l2.126.708v1.157l-1.6-.534V13.6a.4.4 0 00-.8 0v.4a.4.4 0 00.274.38z" fill="#154D80"/></svg>