<svg width="25" height="25" fill="none" xmlns="http://www.w3.org/2000/svg"><g clip-path="url(#clip0)" fill="#CDD3D9"><path d="M5.187 14.598A5.256 5.256 0 018.49 8.845l.687-.262a6.631 6.631 0 014.498-5.101 5.266 5.266 0 00-3.396-2.215A17.06 17.06 0 007.665.994a17.09 17.09 0 00-2.66.284A5.213 5.213 0 00.836 5.52a23.618 23.618 0 000 7.875 5.164 5.164 0 002.04 3.316H5.64a42.63 42.63 0 01-.453-2.113zm3.076 5.908c-1.163-.843-2.072-2.39-2.072-2.39v3.32h4.085c-.695-.11-1.392-.48-2.013-.93zm-5.179-2.39h1.703v3.32H3.084v-3.32z"/><path d="M20.006 4.625c-1.496-.266-3.587-.318-5.247-.016l-.026.005a5.266 5.266 0 00-4.236 4.3c-.368 2.209-.28 4.008.317 6.406H9.416c-.451-1.916-.59-3.495-.442-5.206a3.889 3.889 0 00-2.447 4.26c.097.58.218 1.166.359 1.74.311 1.267 1.115 2.474 2.205 3.314.179.137 1.215.622 1.851.629h11.193a5.165 5.165 0 002.04-3.316 23.65 23.65 0 000-7.874c-.361-2.14-2.033-3.863-4.17-4.242zM11.68 21.463h7.14v3.53h-7.14v-3.53zm8.545 0h1.702v3.53h-1.702v-3.53z"/></g><defs><clipPath id="clip0"><path fill="#fff" transform="translate(.506 .994)" d="M0 0h24v24H0z"/></clipPath></defs></svg>