<svg width="20" height="20" fill="none" xmlns="http://www.w3.org/2000/svg"><path d="M19.885 4.178a.641.641 0 00-.5-.274L6.98 3.369a.641.641 0 10-.055 1.282l11.566.499-2.274 7.095H6.097L4.266 2.29a.642.642 0 00-.396-.481L.877.632a.642.642 0 00-.47 1.195L3.07 2.873l1.86 10.13a.642.642 0 00.632.526h.308l-.704 1.958a.534.534 0 00.503.715h.494c-.306.341-.494.79-.494 1.284 0 1.061.863 1.925 1.925 1.925a1.927 1.927 0 001.925-1.925c0-.494-.188-.943-.495-1.284h4.198c-.307.341-.495.79-.495 1.284 0 1.061.864 1.925 1.925 1.925a1.927 1.927 0 001.926-1.925c0-.494-.188-.943-.495-1.284h.602a.535.535 0 100-1.07H6.428l.578-1.603h9.677a.64.64 0 00.611-.446L19.97 4.74a.64.64 0 00-.084-.563zM7.594 18.342a.856.856 0 11.001-1.713.856.856 0 01-.001 1.713zm7.058 0a.856.856 0 11.002-1.713.856.856 0 01-.002 1.713z" fill="#154D80"/></svg>