<svg width="15" height="15" fill="none" xmlns="http://www.w3.org/2000/svg"><g clip-path="url(#clip0)" fill="#fff"><path d="M5.098 11.285a1.667 1.667 0 100 3.334 1.667 1.667 0 000-3.334zM14.43 4.41a.311.311 0 00-.245-.122H3.364l-.221-1.235a1.842 1.842 0 00-1.492-1.49l-.8-.14a.307.307 0 00-.108.603l.803.141c.507.09.903.487.993.993l1.085 6.12a1.529 1.529 0 001.508 1.266h6.435a1.528 1.528 0 001.468-1.088l1.44-4.774a.299.299 0 00-.045-.273zm-2.896 6.875a1.667 1.667 0 100 3.334 1.667 1.667 0 000-3.334z"/></g><defs><clipPath id="clip0"><path fill="#fff" transform="translate(.49 .994)" d="M0 0h14v14H0z"/></clipPath></defs></svg>