<svg width="24" height="24" fill="none" xmlns="http://www.w3.org/2000/svg"><g clip-path="url(#clip0)" fill="#154D80"><path d="M11.05 16.278a.47.47 0 10-.664-.663.47.47 0 00.664.663zM8.834 5.155a5.16 5.16 0 005.155 5.155 5.16 5.16 0 005.155-5.155A5.16 5.16 0 0013.989 0a5.16 5.16 0 00-5.155 5.155zm9.372 0a4.222 4.222 0 01-4.217 4.217A4.222 4.222 0 019.77 5.155 4.222 4.222 0 0113.99.937a4.222 4.222 0 014.217 4.218z"/><path d="M5.421 23.862a.468.468 0 00.662.004l2.272-2.238c.386-.386.503-.958.333-1.455l.489-.47c.263-.255.61-.395.976-.395h6.23c1.105 0 2.15-.425 2.941-1.195.033-.032-.247.298 4.25-5.077a1.877 1.877 0 00-.222-2.643 1.88 1.88 0 00-2.63.21l-2.765 2.842a1.884 1.884 0 00-1.457-.698h-5.226a6.045 6.045 0 00-2.347-.468c-2.256 0-4.227 1.042-5.284 2.996a1.4 1.4 0 00-1.254.388L.16 17.9a.469.469 0 000 .661l5.261 5.302zm3.506-10.646c.718 0 1.412.144 2.063.43.06.025.123.038.188.038H16.5a.938.938 0 010 1.874h-3.824a.469.469 0 000 .938H16.5a1.876 1.876 0 001.858-2.12c2.675-2.75 3.052-3.135 3.068-3.155a.94.94 0 011.321-.111.94.94 0 01.11 1.322l-4.203 5.025c-.614.59-1.42.914-2.272.914h-6.23a2.33 2.33 0 00-1.626.657l-.398.384-3.672-3.671c.858-1.61 2.468-2.525 4.471-2.525zm-5.874 3.11a.467.467 0 01.58-.066c.081.05-.152-.163 4.059 4.042a.47.47 0 01.002.66l-1.936 1.909-4.605-4.64 1.9-1.905zM13.428 2.343v.549a1.408 1.408 0 00-.937 1.325c0 .775.63 1.406 1.406 1.406a.47.47 0 010 .937c-.2 0-.417-.126-.609-.354a.469.469 0 00-.717.603c.25.298.545.505.857.61v.547a.469.469 0 00.937 0v-.549a1.407 1.407 0 00-.468-2.731.47.47 0 010-.938c.166 0 .341.085.507.245a.469.469 0 00.652-.673 1.81 1.81 0 00-.69-.431v-.546a.469.469 0 10-.938 0z"/></g><defs><clipPath id="clip0"><path fill="#fff" d="M0 0h23.953v24H0z"/></clipPath></defs></svg>