<svg width="140" height="140" fill="none" xmlns="http://www.w3.org/2000/svg"><g clip-path="url(#clip0)"><path d="M32.068 86.432H17.105c-4.524 0-8.204 3.68-8.204 8.203v37.162c0 4.523 3.68 8.203 8.204 8.203h14.963c4.524 0 8.204-3.68 8.204-8.203V94.635c0-4.523-3.68-8.203-8.204-8.203zm99.023 8.39c-.151-5.352-1.138-8.404-3.203-9.895-7.534-5.438-20.583.961-28.5 5.775 2.028 3.515 3.142 14.304-4.727 17.59-5.068 2.117-5.43 2.175-24.385 5.235-1.84.295-3.555-.988-3.844-2.853-.29-1.871.961-3.628 2.794-3.924 18.546-2.993 18.546-2.993 22.89-4.807 2.994-1.25 1.907-6.531 1.478-7.772l-10.695 1.603c-3.18.472-6.45-.039-9.456-1.48-1.618-.775-4.063-1.946-8.228-1.415-9.348 1.192-8.36 1.65-11.624 3.406.028 0-1.318.71-3.254.71h-1.863v34.801c0 1.156-.101 1.531-.074 1.531.739-.068 4.664-.037 5.402.062.681 0 31.364 2.509 33.885 2.509 8.62 0 16.982-3.812 22.717-10.452l16.482-18.833c2.96-3.552 4.324-7.539 4.205-11.791zm-52.19-16.619c21.561 0 39.102-17.54 39.102-39.101S100.462 0 78.901 0C57.341 0 39.8 17.54 39.8 39.102c0 21.56 17.54 39.101 39.101 39.101z" fill="#CE091D"/><path d="M71.35 60a4.014 4.014 0 01-4.014-4.014v-2.493H64.95a1.952 1.952 0 010-3.904h2.385V45.92h-.758a3.579 3.579 0 110-7.158h.758V18h15.178c1.993 0 3.81.394 5.45 1.183 1.642.789 3.029 1.854 4.162 3.195a14.626 14.626 0 012.695 4.495c.626 1.657.938 3.352.938 5.088 0 2.366-.527 4.614-1.582 6.743a13 13 0 01-4.454 5.206c-1.915 1.34-4.2 2.011-6.857 2.011h-7.501v3.668h5.783a1.952 1.952 0 010 3.904h-5.783v2.493A4.014 4.014 0 0171.35 60zm4.015-21.237h6.974c1.836 0 3.164-.61 3.985-1.833.86-1.262 1.289-2.919 1.289-4.97 0-2.169-.508-3.845-1.524-5.028-.977-1.183-2.344-1.774-4.102-1.774h-6.622v13.605z" fill="#fff"/></g><defs><clipPath id="clip0"><path fill="#fff" d="M0 0h140v140H0z"/></clipPath></defs></svg>