<svg width="20" height="20" fill="none" xmlns="http://www.w3.org/2000/svg"><path d="M16.788 1.347H3.193A2.58 2.58 0 00.615 3.924v8.32a2.58 2.58 0 002.569 2.578v3.775l5.425-3.775h8.179a2.58 2.58 0 002.577-2.578v-8.32a2.58 2.58 0 00-2.577-2.577zm1.479 10.897a1.48 1.48 0 01-1.48 1.48H8.266l-3.983 2.77v-2.77h-1.09a1.48 1.48 0 01-1.48-1.48v-8.32c0-.815.664-1.479 1.48-1.479h13.595c.815 0 1.479.664 1.479 1.48v8.319z" fill="#154D80"/><path d="M5.633 5.23h8.713v1.1H5.633v-1.1zm0 2.344h8.713v1.099H5.633V7.574zm0 2.344h8.713v1.099H5.633V9.918z" fill="#154D80"/></svg>