<svg width="21" height="14" fill="none" xmlns="http://www.w3.org/2000/svg"><path d="M10.56 4.278a2.73 2.73 0 00-2.728 2.728 2.73 2.73 0 002.727 2.727 2.73 2.73 0 002.728-2.727 2.73 2.73 0 00-2.728-2.728z" fill="#CDD3D9"/><path d="M10.56.188c-4.545 0-8.427 2.827-10 6.818 1.573 3.99 5.455 6.818 10 6.818 4.55 0 8.428-2.827 10-6.818-1.572-3.991-5.45-6.819-10-6.819zm0 11.363a4.547 4.547 0 01-4.545-4.545 4.547 4.547 0 014.546-4.546 4.547 4.547 0 014.545 4.546 4.547 4.547 0 01-4.545 4.545z" fill="#CDD3D9"/></svg>