<svg width="161" height="105" fill="none" xmlns="http://www.w3.org/2000/svg"><path d="M107.858 19.742a3.33 3.33 0 00-2.664-2.243l-14.882-2.172-6.659-13.481A3.326 3.326 0 0080.686 0a3.326 3.326 0 00-2.967 1.846l-6.659 13.48L56.177 17.5a3.33 3.33 0 00-2.663 2.243 3.276 3.276 0 00.841 3.388l10.77 10.49-2.546 14.836a3.326 3.326 0 001.309 3.224 3.293 3.293 0 003.48.257l13.318-7.009 13.317 7.01c.514.256 2.173.677 3.481-.258 1.028-.724 1.519-1.986 1.309-3.224L96.246 33.62l10.771-10.49c.888-.864 1.215-2.196.841-3.388zM90.452 30.116c-.771.747-1.121 1.845-.958 2.92L91.2 42.99l-8.949-4.696c-1.542-.514-1.542-.514-3.06 0l-8.925 4.696 1.705-9.953a3.258 3.258 0 00-.958-2.92l-7.219-7.056 10-1.449a3.311 3.311 0 002.476-1.799l4.463-9.041 4.462 9.041c.49.982 1.402 1.66 2.477 1.8l10 1.448-7.22 7.056z" fill="#E73A4B"/><path d="M107.858 71.68a3.33 3.33 0 00-2.664-2.242l-14.882-2.173-6.659-13.48a3.326 3.326 0 00-2.967-1.846 3.326 3.326 0 00-2.967 1.845L71.06 67.265l-14.883 2.173a3.33 3.33 0 00-2.663 2.243 3.276 3.276 0 00.841 3.387l10.77 10.49-2.546 14.837a3.326 3.326 0 001.309 3.224 3.294 3.294 0 003.48.257l13.318-7.01 13.317 7.01c.514.257 2.173.677 3.481-.257 1.028-.725 1.519-1.986 1.309-3.224l-2.547-14.836 10.771-10.49a3.36 3.36 0 00.841-3.388zM90.452 82.055c-.771.748-1.121 1.846-.958 2.92l1.706 9.953-8.949-4.696c-1.542-.514-1.542-.514-3.06 0l-8.925 4.697 1.705-9.953a3.258 3.258 0 00-.958-2.92l-7.219-7.057 10-1.448a3.311 3.311 0 002.476-1.8l4.463-9.04 4.462 9.04c.49.982 1.402 1.66 2.477 1.8l10 1.448-7.22 7.056zm70.225-25.064a3.332 3.332 0 00-2.664-2.243l-14.882-2.172-6.659-13.481a3.327 3.327 0 00-2.967-1.846 3.324 3.324 0 00-2.967 1.846l-6.659 13.48-14.883 2.173a3.33 3.33 0 00-2.663 2.243 3.277 3.277 0 00.841 3.388l10.771 10.49-2.547 14.836a3.327 3.327 0 001.308 3.224 3.294 3.294 0 003.482.257l13.317-7.009 13.317 7.01c.491.256 2.15.677 3.481-.258 1.028-.724 1.519-1.986 1.309-3.224l-2.547-14.836 10.771-10.49a3.277 3.277 0 00.841-3.388zm-17.453 10.35c-.771.748-1.121 1.846-.958 2.92l1.706 9.954-8.925-4.696c-1.542-.514-1.542-.514-3.061 0l-8.925 4.696 1.706-9.953a3.26 3.26 0 00-.958-2.92l-7.219-7.033 9.999-1.449a3.313 3.313 0 002.477-1.799l4.462-9.041 4.463 9.041c.49.982 1.401 1.66 2.476 1.8l10 1.448-7.243 7.032zm-88.14-10.35c-.397-1.191-1.425-2.08-2.663-2.243l-14.883-2.172-6.658-13.481a3.326 3.326 0 00-2.967-1.846 3.326 3.326 0 00-2.968 1.846l-6.658 13.48-14.883 2.173a3.33 3.33 0 00-2.663 2.243 3.276 3.276 0 00.84 3.388l10.771 10.49-2.546 14.836a3.326 3.326 0 001.308 3.224 3.293 3.293 0 003.481.257l13.318-7.009 13.317 7.01c.49.256 2.15.677 3.48-.258 1.029-.724 1.52-1.986 1.31-3.224L43.472 70.87l10.77-10.49c.888-.864 1.215-2.196.841-3.388zm-17.452 10.35c-.771.748-1.122 1.846-.958 2.92l1.705 9.954-8.925-4.696c-1.541-.514-1.541-.514-3.06 0l-8.925 4.696 1.705-9.953a3.259 3.259 0 00-.957-2.92l-7.243-7.033 10-1.449a3.312 3.312 0 002.476-1.799l4.463-9.041 4.462 9.041c.49.982 1.402 1.66 2.476 1.8l10 1.448-7.22 7.032z" fill="#E73A4B"/></svg>