<svg width="20" height="20" fill="none" xmlns="http://www.w3.org/2000/svg"><path d="M18.548 7.446l-.975-.166a8.086 8.086 0 00-.294-.709l.575-.803c.5-.703.42-1.65-.19-2.253l-1.171-1.172a1.738 1.738 0 00-2.249-.19l-.806.575a8.042 8.042 0 00-.758-.312l-.161-.955A1.745 1.745 0 0010.792 0H9.137c-.86 0-1.586.614-1.727 1.459l-.17.993c-.24.087-.475.187-.707.298l-.792-.57a1.733 1.733 0 00-1.018-.327c-.471 0-.91.182-1.238.514L2.311 3.538a1.745 1.745 0 00-.189 2.253l.584.82c-.108.232-.204.47-.29.713l-.956.161A1.745 1.745 0 000 9.211v1.656c0 .859.614 1.585 1.459 1.726l.993.17c.087.24.187.476.298.707l-.569.79c-.5.702-.42 1.65.19 2.253l1.171 1.172a1.738 1.738 0 002.249.189l.82-.584c.215.1.439.192.668.274l.163.976c.142.846.868 1.46 1.726 1.46h1.66c.858 0 1.584-.614 1.726-1.46l.165-.975c.242-.087.48-.185.71-.293l.8.572c.298.214.65.327 1.02.327.466 0 .905-.182 1.236-.514l1.172-1.172a1.745 1.745 0 00.189-2.252l-.575-.808c.111-.236.21-.473.294-.708l.974-.163A1.745 1.745 0 0020 10.828V9.175c.01-.859-.6-1.586-1.45-1.73zm.28 3.382a.577.577 0 01-.482.57l-1.292.216a.631.631 0 00-.502.439 6.846 6.846 0 01-.468 1.129.631.631 0 00.046.661l.761 1.07a.577.577 0 01-.063.744l-1.172 1.172a.566.566 0 01-.407.17.569.569 0 01-.336-.107l-1.065-.76a.631.631 0 00-.664-.047 6.896 6.896 0 01-1.13.468.632.632 0 00-.436.5l-.22 1.293a.577.577 0 01-.57.482h-1.66a.577.577 0 01-.57-.482l-.216-1.292a.632.632 0 00-.435-.5 6.856 6.856 0 01-1.094-.45.634.634 0 00-.66.046l-1.084.77a.566.566 0 01-.738-.065l-1.174-1.173a.572.572 0 01-.063-.74l.757-1.053a.63.63 0 00.045-.67 6.7 6.7 0 01-.474-1.124.633.633 0 00-.498-.434l-1.31-.223a.577.577 0 01-.482-.57V9.21c0-.283.203-.523.483-.57l1.276-.216a.631.631 0 00.501-.44 6.81 6.81 0 01.46-1.132.632.632 0 00-.046-.66l-.769-1.081a.576.576 0 01.062-.744l1.176-1.172.004-.005a.561.561 0 01.405-.167.57.57 0 01.334.106l1.057.761a.63.63 0 00.67.045c.36-.192.739-.352 1.124-.474a.633.633 0 00.434-.498l.223-1.31a.577.577 0 01.57-.482h1.657c.283 0 .523.203.57.483l.216 1.276c.04.239.209.43.44.502.396.12.791.282 1.174.482a.632.632 0 00.662-.045l1.072-.763a.566.566 0 01.738.065l1.173 1.173c.2.199.226.511.062.742l-.762 1.065a.632.632 0 00-.045.663 6.9 6.9 0 01.468 1.131.631.631 0 00.5.436l1.291.22h.001a.562.562 0 01.475.562v1.664z" fill="#154D80"/><path d="M10 6.111A3.893 3.893 0 006.11 10 3.893 3.893 0 0010 13.888 3.893 3.893 0 0013.888 10 3.893 3.893 0 0010 6.11zm0 6.606A2.72 2.72 0 017.283 10 2.72 2.72 0 0110 7.283 2.72 2.72 0 0112.717 10 2.72 2.72 0 0110 12.717z" fill="#154D80"/></svg>