<svg width="24" height="24" fill="none" xmlns="http://www.w3.org/2000/svg"><path d="M22.8 11.2h-3.6V2a2.002 2.002 0 00-2-2H4a1.6 1.6 0 00-1.6 1.6v4.8H1.2a.4.4 0 00-.4.4v2.4c0 .22.18.4.4.4h1.2V14c0 .22.18.4.4.4h2v8A1.6 1.6 0 006.4 24h13.2a1.6 1.6 0 000-3.2h-.4v-6.4h3.6a.4.4 0 00.4-.4v-2.4a.4.4 0 00-.4-.4zM3.2 1.6a.8.8 0 011.6 0v4.8H3.2V1.6zM1.6 7.2h11.2a.4.4 0 00.398-.349L14.576 8l-1.378 1.149A.4.4 0 0012.8 8.8H1.6V7.2zm1.6 6.4v-4h1.6v4H3.2zm17.2 8.8a.8.8 0 01-.8.8H7.787c.141-.243.215-.519.215-.8v-.8h11.6a.8.8 0 01.8.8zm-2-1.6H7.6a.4.4 0 00-.4.4v1.2a.8.8 0 01-1.6 0V9.6h6.8v.4a.4.4 0 00.657.307l2.4-2a.4.4 0 000-.614l-2.4-2a.4.4 0 00-.656.307v.4H5.6V1.6a1.583 1.583 0 00-.222-.8H17.2A1.2 1.2 0 0118.4 2v9.2h-6.8v-.4a.4.4 0 00-.657-.307l-2.4 2a.4.4 0 000 .614l2.4 2a.4.4 0 00.657-.307v-.4h6.8v6.4zm4-7.2H11.2a.39.39 0 00-.15.03.398.398 0 00-.042.026.402.402 0 00-.08.054.402.402 0 00-.035.046.37.37 0 00-.05.074.35.35 0 00-.019.058.344.344 0 00-.02.06L9.427 12.8l1.378-1.149a.302.302 0 00.02.06c.004.021.01.04.018.06a.37.37 0 00.05.073c.01.016.023.031.036.046.024.02.05.04.08.054.013.01.027.018.042.025.048.02.099.031.15.031h11.2v1.6z" fill="#154D80"/><path d="M7.2 2.4h4v.8h-4v-.8zm0 1.6h4v.8h-4V4zm1.599 13.6h8v.8h-8v-.8zm0 1.6h8v.8h-8v-.8zM14.4 16h2.4v.8h-2.4V16z" fill="#154D80"/></svg>