<svg width="25" height="25" fill="none" xmlns="http://www.w3.org/2000/svg"><g clip-path="url(#clip0)" fill="#CDD3D9"><path d="M24.117 2.575l-3.012-1.507a.703.703 0 00-.944.315l-8.09 16.18h-7.85a3.715 3.715 0 000 7.431h9.038c.266 0 .51-.15.629-.389L24.43 3.518a.703.703 0 00-.314-.943z"/><path d="M7.134 12.944c2.865 0 5.222-1.222 5.222-2.962v-.98c-.254.21-.54.404-.857.58-1.173.646-2.723 1.003-4.365 1.003-1.64 0-3.189-.356-4.36-1.001a5.57 5.57 0 01-.862-.58v.978c0 1.745 2.365 2.963 5.222 2.963z"/><path d="M7.134 9.179c2.865 0 5.222-1.223 5.222-2.963 0-1.745-2.365-2.962-5.222-2.962-2.865 0-5.222 1.222-5.222 2.962 0 1.745 2.365 2.963 5.222 2.963z"/></g><defs><clipPath id="clip0"><path fill="#fff" transform="translate(.506 .994)" d="M0 0h24v24H0z"/></clipPath></defs></svg>