<svg width="25" height="25" fill="none" xmlns="http://www.w3.org/2000/svg"><g clip-path="url(#clip0)" fill="#CDD3D9"><path d="M14.803 12.994a2.297 2.297 0 11-4.594 0 2.297 2.297 0 014.594 0z"/><path d="M17.878 8.93a2.125 2.125 0 00-.515-.792 2.133 2.133 0 00-.793-.515c-.242-.095-.607-.207-1.279-.237-.727-.034-.945-.04-2.784-.04-1.84 0-2.058.006-2.785.04-.672.03-1.037.142-1.28.237-.299.11-.57.286-.792.515a2.136 2.136 0 00-.515.792c-.094.243-.207.608-.237 1.28-.033.726-.04.944-.04 2.784 0 1.84.007 2.058.04 2.785.03.672.143 1.036.237 1.28.11.299.286.57.515.791.223.23.493.406.793.516.242.094.607.207 1.28.237.726.033.943.04 2.783.04 1.84 0 2.059-.007 2.785-.04.672-.03 1.037-.143 1.28-.237a2.282 2.282 0 001.307-1.308c.095-.243.207-.607.238-1.28.033-.726.04-.944.04-2.784 0-1.84-.007-2.057-.04-2.784-.031-.672-.143-1.037-.238-1.28zm-5.371 7.602a3.538 3.538 0 110-7.076 3.538 3.538 0 010 7.076zm3.678-6.39a.827.827 0 110-1.653.827.827 0 010 1.654z"/><path d="M12.506.994c-6.627 0-12 5.374-12 12 0 6.627 5.373 12 12 12 6.626 0 12-5.373 12-12 0-6.626-5.374-12-12-12zm6.849 14.841c-.033.733-.15 1.234-.32 1.673a3.523 3.523 0 01-2.016 2.015c-.438.17-.939.287-1.672.32-.735.034-.97.042-2.841.042-1.872 0-2.106-.008-2.841-.042-.733-.033-1.234-.15-1.673-.32a3.376 3.376 0 01-1.22-.795 3.377 3.377 0 01-.795-1.22c-.17-.438-.287-.94-.32-1.673-.034-.735-.042-.97-.042-2.84 0-1.872.008-2.107.042-2.842.033-.733.15-1.234.32-1.672.173-.46.444-.877.795-1.22a3.37 3.37 0 011.22-.796c.439-.17.94-.286 1.673-.32.735-.033.97-.041 2.84-.041 1.872 0 2.107.008 2.842.041.733.034 1.234.15 1.672.32.46.173.877.445 1.221.795.35.344.622.76.795 1.22.17.439.287.94.32 1.673.034.735.041.97.041 2.841 0 1.872-.007 2.106-.041 2.841z"/></g><defs><clipPath id="clip0"><path fill="#fff" transform="translate(.506 .994)" d="M0 0h24v24H0z"/></clipPath></defs></svg>