<svg width="39" height="38" fill="none" xmlns="http://www.w3.org/2000/svg"><path d="M19.535 14c-2.755 0-5 2.246-5 5s2.245 5 5 5c2.754 0 5-2.246 5-5s-2.246-5-5-5z" fill="#154D80"/><path d="M31.948 0H7.103A6.575 6.575 0 00.535 6.568v24.864A6.575 6.575 0 007.103 38h24.864a6.575 6.575 0 006.568-6.568V6.568C38.515 2.946 35.57 0 31.948 0zM19.525 29.968c-6.042 0-10.977-4.916-10.977-10.977 0-6.062 4.916-10.978 10.977-10.978 6.062 0 10.978 4.916 10.978 10.978 0 6.06-4.935 10.977-10.978 10.977zM34.52 6.718a2.723 2.723 0 01-2.721 2.721 2.723 2.723 0 01-2.721-2.721 2.723 2.723 0 012.72-2.721 2.723 2.723 0 012.722 2.721z" fill="#154D80"/></svg>