<svg width="31" height="31" fill="none" xmlns="http://www.w3.org/2000/svg"><g clip-path="url(#clip0)" fill="#154D80"><path d="M29.874 21.542s.055.329 0 .833c-.947 5.414-11.942 6.64-14.385.293-2.429 6.335-13.436 5.135-14.385-.293-.054-.504 0-.833 0-.833.232-2.239 2.239-2.728 2.239-2.728-.669.953-.36 2.033-.36 2.033.32 1.606 3.686 1.983 5.781-.237 1.52-1.609 2.994-1.756 2.994-1.756 2.238-.232 3.724 1.399 3.727 1.397.083-.085 1.538-1.625 3.736-1.397 0 0 1.474.147 2.992 1.756 2.097 2.22 5.462 1.842 5.783.237 0 0 .308-1.08-.36-2.033 0 0 2.007.49 2.238 2.728zM27.705 9.968a.586.586 0 100-1.17.586.586 0 000 1.17zm-24.397 0a.586.586 0 100-1.172.586.586 0 000 1.172z"/><path d="M6.895 16.998c2.1 0 4.519-1.17 5.882-2.845 1.246-1.53 1.917-3.348 1.827-4.923.218-.223.523-.432.9-.432s.681.209.9.432c-.09 1.575.58 3.394 1.826 4.923 1.407 1.728 3.664 2.845 5.75 2.845 4.976 0 6.95-5.443 6.441-8.338-.54-3.076-3.12-4.207-6.243-4.207-1.208 0-2.287.084-3.212.249a.594.594 0 00-.069-.005H10.112a.582.582 0 00-.1.01c-.955-.167-2.096-.254-3.316-.254-3.854 0-5.69 1.817-6.11 4.207-.546 3.113 1.696 8.338 6.309 8.338zm8.609-9.372a2.26 2.26 0 00-1.153.324 4.4 4.4 0 00-1.432-2.087h5.169a4.398 4.398 0 00-1.432 2.087 2.261 2.261 0 00-1.152-.324zm13.763 1.236c.392 2.23-1.125 6.964-5.287 6.964-1.721 0-3.667-.97-4.842-2.413-1.012-1.242-1.819-3.071-1.503-4.603.373-1.805 1.584-2.578 3.378-2.925.877-.17 1.972-.26 3.165-.26 2.526 0 4.654.761 5.09 3.237zm-27.527 0c.427-2.429 2.499-3.237 4.956-3.237 1.356 0 3.636.13 4.842.743 1.013.513 1.596 1.29 1.835 2.442.316 1.536-.491 3.36-1.504 4.604-1.35 1.657-3.525 2.412-4.974 2.412-3.862 0-5.572-4.585-5.155-6.963z"/><path d="M3.653 11.115a.586.586 0 00-.312.768c.502 1.193 1.27 2.068 2.16 2.465a.586.586 0 00.477-1.07c-.609-.271-1.176-.946-1.557-1.85a.586.586 0 00-.768-.313zm21.621 3.284c.08 0 .16-.016.238-.051.89-.397 1.656-1.273 2.158-2.466a.586.586 0 10-1.08-.454c-.38.905-.947 1.579-1.555 1.85a.586.586 0 00.239 1.12z"/></g><defs><clipPath id="clip0"><path fill="#fff" transform="translate(.506 .994)" d="M0 0h30v30H0z"/></clipPath></defs></svg>