<svg width="24" height="24" fill="none" xmlns="http://www.w3.org/2000/svg"><g clip-path="url(#clip0)" fill="#154D80"><path d="M13.453 0a.703.703 0 00-.703.703v9.89c0 .39.315.704.703.704h9.844a.703.703 0 00.703-.703C24 4.775 19.278 0 13.453 0zm.703 9.89V1.434c4.482.344 8.07 3.952 8.411 8.458h-8.41zm.6 12.535l-3.412-9.146V3.563a.703.703 0 00-.703-.704C4.85 2.86 0 7.554 0 13.406 0 19.215 4.803 24 10.64 24a10.5 10.5 0 003.705-.671.703.703 0 00.41-.904zm-4.115.169c-5.092 0-9.235-4.122-9.235-9.188 0-4.806 3.767-8.757 8.531-9.114v9.114c0 .084.016.167.045.246l3.202 8.582a9.101 9.101 0 01-2.543.36z"/><path d="M23.297 12.703h-9.844a.703.703 0 00-.659.95l3.457 9.263a.703.703 0 00.906.413C21.25 21.789 24 17.8 24 13.406a.703.703 0 00-.703-.703zm-5.985 9.035l-2.846-7.633h8.1c-.254 3.294-2.278 6.238-5.254 7.633z"/></g><defs><clipPath id="clip0"><path fill="#fff" d="M0 0h24v24H0z"/></clipPath></defs></svg>