<svg width="29" height="28" fill="none" xmlns="http://www.w3.org/2000/svg"><g clip-path="url(#clip0)" fill="#CE091D"><path d="M14.535 0a7.008 7.008 0 00-7 7 1.75 1.75 0 103.5 0 3.5 3.5 0 117 0c0 1.518-.892 2.449-2.358 3.803-1.357 1.249-2.892 2.664-2.892 4.947a1.75 1.75 0 103.5 0c0-.713.67-1.367 1.764-2.376 1.47-1.356 3.486-3.214 3.486-6.374a7.008 7.008 0 00-7-7zm0 21a3.5 3.5 0 100 7 3.5 3.5 0 000-7z"/></g><defs><clipPath id="clip0"><path fill="#fff" transform="translate(.535)" d="M0 0h28v28H0z"/></clipPath></defs></svg>