<svg width="25" height="25" fill="none" xmlns="http://www.w3.org/2000/svg"><g clip-path="url(#clip0)"><path d="M20.99.994a20.35 20.35 0 00-4.844.583l7.776 7.776c.387-1.584.584-3.21.584-4.843A3.52 3.52 0 0020.99.994zM14.6 2.021a20.574 20.574 0 00-8.075 4.992 20.502 20.502 0 00-4.991 8.077l8.877 8.877a20.567 20.567 0 008.076-4.992 20.5 20.5 0 004.99-8.077l-8.876-8.877zm3.325 6.549l-1.612 1.612.206.205a.704.704 0 01-.995.995l-.206-.206-1.817 1.818.205.206a.704.704 0 01-.994.995l-.206-.206-1.818 1.818.206.205a.704.704 0 01-.995.995l-.206-.206-1.612 1.612a.704.704 0 01-.994-.994l1.612-1.612-.206-.206a.704.704 0 01.995-.995l.205.206 1.818-1.818-.206-.206a.704.704 0 01.995-.994l.206.205 1.818-1.817-.206-.206a.704.704 0 01.995-.995l.205.206 1.612-1.612a.704.704 0 01.995.995zM1.09 16.635a20.364 20.364 0 00-.584 4.843 3.52 3.52 0 003.515 3.516c1.666 0 3.29-.201 4.845-.582L1.09 16.634z" fill="#CDD3D9"/></g><defs><clipPath id="clip0"><path fill="#fff" transform="translate(.506 .994)" d="M0 0h24v24H0z"/></clipPath></defs></svg>