<svg width="24" height="24" fill="none" xmlns="http://www.w3.org/2000/svg"><path d="M22.234 4a3.25 3.25 0 11-6.5 0 3.25 3.25 0 016.5 0z" fill="#154D80"/><path d="M18.984 8c-2.206 0-4-1.794-4-4s1.794-4 4-4 4 1.794 4 4-1.794 4-4 4zm0-6.5a2.503 2.503 0 00-2.5 2.5c0 1.378 1.121 2.5 2.5 2.5 1.38 0 2.5-1.122 2.5-2.5s-1.12-2.5-2.5-2.5zm3.25 18.5a3.25 3.25 0 11-6.5 0 3.25 3.25 0 016.5 0z" fill="#154D80"/><path d="M18.984 24c-2.206 0-4-1.794-4-4s1.794-4 4-4 4 1.794 4 4-1.794 4-4 4zm0-6.5a2.503 2.503 0 00-2.5 2.5c0 1.378 1.121 2.5 2.5 2.5 1.38 0 2.5-1.122 2.5-2.5s-1.12-2.5-2.5-2.5zM8.234 12a3.25 3.25 0 11-6.5 0 3.25 3.25 0 016.5 0z" fill="#154D80"/><path d="M4.984 16c-2.206 0-4-1.794-4-4s1.794-4 4-4 4 1.794 4 4-1.794 4-4 4zm0-6.5a2.503 2.503 0 00-2.5 2.5c0 1.378 1.121 2.5 2.5 2.5 1.38 0 2.5-1.122 2.5-2.5s-1.12-2.5-2.5-2.5z" fill="#154D80"/><path d="M7.347 11.52a1.002 1.002 0 01-.496-1.87l9.278-5.29a.998.998 0 011.365.375c.273.479.105 1.09-.374 1.364l-9.28 5.29a.993.993 0 01-.493.13zm9.277 8.25a.993.993 0 01-.494-.13l-9.28-5.29a1.001 1.001 0 01.99-1.739l9.28 5.29a1.001 1.001 0 01-.496 1.87z" fill="#154D80"/></svg>