<svg width="25" height="25" fill="none" xmlns="http://www.w3.org/2000/svg"><path d="M12.506.994c-6.617 0-12 5.384-12 12 0 6.617 5.383 12 12 12 6.616 0 12-5.383 12-12 0-6.616-5.384-12-12-12zm.762 3.899l3.085-1.66a10.55 10.55 0 014.334 3.196l-.735 3.393-2.354 1.153-4.33-3.154V4.893zM8.684 3.225l3.085 1.665v2.93l-4.327 3.155L5.076 9.82l-.735-3.414a10.534 10.534 0 014.343-3.181zm-4.833 15.7a10.43 10.43 0 01-1.793-4.91l2.54-2.76 2.316 1.133 1.744 4.955-1.474 1.767-3.333-.185zm11.33 4.21a10.43 10.43 0 01-2.675.36c-1.12 0-2.196-.18-3.209-.506l-.943-2.937 1.504-1.808h5.301l1.478 1.75-1.457 3.142zm2.626-4.076l-1.45-1.718 1.768-4.953 2.305-1.13 2.525 2.758a10.401 10.401 0 01-1.418 4.306l-3.73.737z" fill="#CDD3D9"/></svg>