<svg width="27" height="26" fill="none" xmlns="http://www.w3.org/2000/svg"><path d="M13.506.244c-7.03 0-12.75 5.72-12.75 12.75 0 7.031 5.72 12.75 12.75 12.75s12.75-5.719 12.75-12.75c0-7.03-5.72-12.75-12.75-12.75zM5.319 21.553a11.816 11.816 0 01-3.666-8.558c0-.071.004-.14.005-.21l3.302 1.137 2.31 5.954-1.951 1.677zM8.02 4.063l5.995-2.157 4.291 4.003-3.526 5.049-6.56-1.247-.2-5.648zm13.402 17.743c-.248.224-.506.436-.771.638l-4.928 2.105-3.228-3.364 4.19-4.715 5.597.688-.86 4.648zM23 5.907a11.79 11.79 0 012.359 7.088c0 .07-.005.141-.006.212l-.668-.17-2.016-5.685L23 5.907z" fill="#154D80"/></svg>