<svg width="140" height="140" fill="none" xmlns="http://www.w3.org/2000/svg"><circle cx="70" cy="70" r="70" fill="#154D80"/><path d="M70 120c27.615 0 50-22.385 50-50S97.615 20 70 20 20 42.385 20 70c.032 27.601 22.399 49.968 50 50zM25 70a44.82 44.82 0 011.318-10.621l20.758 17.483-8.68 25.125A44.849 44.849 0 0125 70zm55.064-17.68a2.497 2.497 0 002.017 1.498l26.859 3.017-20.55 17.31a2.502 2.502 0 00-.753 2.728l8.493 24.582-25.523-6.38a2.518 2.518 0 00-1.214 0l-25.523 6.38 8.493-24.582a2.502 2.502 0 00-.753-2.729l-20.55-17.31 26.859-3.016a2.497 2.497 0 002.018-1.499L70 28.845 80.064 52.32zm-36.15 54.278L70 100.077l26.085 6.521c-15.586 11.202-36.584 11.202-52.17 0zm57.69-4.611l-8.68-25.125 20.758-17.483a44.557 44.557 0 01-12.078 42.608zm9.644-49.924l-27.162-3.05-10.21-23.816a45.07 45.07 0 0137.372 26.866zM66.124 25.196l-10.21 23.817-27.162 3.05a45.068 45.068 0 0137.372-26.867z" fill="#fff"/></svg>