<svg width="21" height="20" fill="none" xmlns="http://www.w3.org/2000/svg"><g clip-path="url(#clip0)"><path d="M20.305 7.705a.586.586 0 00-.473-.398l-6.2-.901L10.86.788a.586.586 0 00-1.05 0L7.036 6.406l-6.2.9a.586.586 0 00-.325 1l4.486 4.373-1.059 6.175a.586.586 0 00.85.618l5.546-2.916 5.545 2.916a.586.586 0 00.85-.618L15.67 12.68l4.487-4.373a.586.586 0 00.148-.6z" fill="#0D5394"/></g><defs><clipPath id="clip0"><path fill="#fff" transform="translate(.334)" d="M0 0h20v20H0z"/></clipPath></defs></svg>