<svg width="20" height="20" fill="none" xmlns="http://www.w3.org/2000/svg"><g clip-path="url(#clip0)" fill="#154D80"><path d="M14.576 5.407a.561.561 0 00-.449-.378l-2.507-.366-1.122-2.271a.56.56 0 00-.5-.311.56.56 0 00-.5.311L8.377 4.663l-2.508.366a.561.561 0 00-.448.378.552.552 0 00.141.57l1.815 1.768-.43 2.5a.555.555 0 00.807.586l2.244-1.18 2.244 1.18c.086.043.366.114.586-.043a.55.55 0 00.22-.544l-.428-2.499 1.814-1.767a.566.566 0 00.142-.571zm-2.933 1.748a.567.567 0 00-.16.492l.287 1.676-1.508-.79c-.26-.087-.26-.087-.516 0l-1.503.79.287-1.676a.549.549 0 00-.161-.492l-1.217-1.19 1.685-.243a.558.558 0 00.417-.303l.752-1.523.752 1.523c.083.165.236.28.417.303l1.685.244-1.216 1.189zm8.327 5.277a.561.561 0 00-.448-.377l-2.508-.367-1.121-2.27a.56.56 0 00-.5-.312.56.56 0 00-.5.311l-1.122 2.271-2.507.367a.561.561 0 00-.449.377.552.552 0 00.142.571l1.814 1.767-.429 2.5a.555.555 0 00.807.587l2.244-1.181 2.243 1.18c.083.044.362.114.587-.043a.55.55 0 00.22-.543l-.429-2.5 1.815-1.767a.552.552 0 00.141-.57zm-2.94 1.744a.567.567 0 00-.161.492l.287 1.677-1.503-.791c-.26-.087-.26-.087-.516 0l-1.504.79.288-1.676a.549.549 0 00-.162-.492l-1.216-1.185 1.685-.244a.558.558 0 00.417-.303l.752-1.523.751 1.523c.083.165.237.28.418.303l1.684.244-1.22 1.185z"/><path d="M9.183 12.432a.555.555 0 00-.448-.377l-2.508-.367-1.121-2.27a.56.56 0 00-.5-.312.56.56 0 00-.5.311l-1.122 2.271-2.507.367a.561.561 0 00-.449.377.552.552 0 00.142.571l1.814 1.767-.429 2.5a.555.555 0 00.807.587l2.244-1.181 2.243 1.18c.083.044.362.114.587-.043a.55.55 0 00.22-.543l-.429-2.5 1.815-1.767a.566.566 0 00.141-.57zm-2.94 1.744a.567.567 0 00-.161.492l.287 1.677-1.504-.791c-.26-.087-.26-.087-.515 0l-1.504.79.288-1.676a.549.549 0 00-.162-.492l-1.22-1.185 1.685-.244a.558.558 0 00.417-.303l.752-1.523.751 1.523c.083.165.237.28.418.303l1.684.244-1.216 1.185z"/></g><defs><clipPath id="clip0"><path fill="#fff" d="M0 0h20v20H0z"/></clipPath></defs></svg>