<svg width="56" height="53" fill="none" xmlns="http://www.w3.org/2000/svg"><path d="M55.225 19.968a3.33 3.33 0 00-2.663-2.243l-14.883-2.173-6.659-13.48A3.326 3.326 0 0028.053.225a3.326 3.326 0 00-2.967 1.845l-6.659 13.481-14.882 2.173A3.33 3.33 0 00.88 19.968a3.276 3.276 0 00.841 3.388l10.77 10.49-2.546 14.836a3.326 3.326 0 001.309 3.224 3.293 3.293 0 003.48.257l13.318-7.01 13.317 7.01c.514.257 2.173.677 3.482-.257 1.028-.724 1.518-1.986 1.308-3.224l-2.547-14.836 10.77-10.49a3.36 3.36 0 00.842-3.388zM37.819 30.34c-.77.748-1.121 1.846-.958 2.92l1.706 9.954-8.948-4.697c-1.543-.514-1.543-.514-3.061 0l-8.925 4.697 1.706-9.953a3.259 3.259 0 00-.958-2.92l-7.22-7.056 10-1.45a3.311 3.311 0 002.476-1.798l4.463-9.042 4.462 9.042c.49.981 1.402 1.659 2.477 1.799l10 1.448-7.22 7.056z" fill="#E73A4B"/></svg>