<svg width="140" height="140" fill="none" xmlns="http://www.w3.org/2000/svg"><circle cx="95" cy="95" r="45" fill="#CE091D"/><circle cx="95" cy="95" r="33" fill="#CE091D" stroke="#fff" stroke-width="4"/><path d="M84.59 118a2.24 2.24 0 01-2.24-2.24v-6.784h-3.87a1.76 1.76 0 010-3.52h3.872v-4.224h-3.648a1.984 1.984 0 010-3.968h3.648V72.56h15.616c2.773 0 5.162.704 7.168 2.112 2.048 1.408 3.605 3.2 4.672 5.376 1.109 2.176 1.664 4.437 1.664 6.784 0 2.474-.512 4.82-1.536 7.04a13.217 13.217 0 01-4.48 5.312c-1.963 1.365-4.31 2.048-7.04 2.048H86.83v4.224h9.44a1.76 1.76 0 010 3.52h-9.44v6.784a2.24 2.24 0 01-2.24 2.24zm2.24-20.736h11.33c2.09 0 3.776-.491 5.056-1.472 1.322-.982 2.282-2.262 2.88-3.84.597-1.58.896-3.286.896-5.12 0-1.878-.363-3.584-1.088-5.12-.726-1.58-1.771-2.838-3.136-3.776-1.366-.94-3.05-1.408-5.056-1.408H86.83v20.736z" fill="#fff"/><path d="M96.123 33.123A13.873 13.873 0 0082.25 19.375a1.125 1.125 0 110-2.25 16.11 16.11 0 0116.124 16.002l-1.124 1.498-1.127-1.502zm-4.273-.698l4.5 6a1.125 1.125 0 001.8 0l4.5-6a1.126 1.126 0 00-1.8-1.35l-3.6 4.8-3.6-4.8a1.123 1.123 0 00-1.575-.225 1.125 1.125 0 00-.225 1.575zM33.123 96.123A13.873 13.873 0 0119.375 82.25a1.125 1.125 0 10-2.25 0 16.11 16.11 0 0016.002 16.124l1.498-1.124-1.502-1.127zm-.698-4.273l6 4.5a1.125 1.125 0 010 1.8l-6 4.5a1.126 1.126 0 01-1.35-1.8l4.8-3.6-4.8-3.6a1.123 1.123 0 01-.225-1.575 1.125 1.125 0 011.575-.225z" fill="#CE091D"/><circle cx="35" cy="35" r="35" fill="#CE091D"/><path d="M35 60c13.807 0 25-11.193 25-25S48.807 10 35 10 10 21.193 10 35c.016 13.8 11.2 24.984 25 25zM12.5 35c.007-1.79.228-3.573.66-5.31l10.378 8.74-4.34 12.564A22.425 22.425 0 0112.5 35zm27.532-8.84c.177.413.562.7 1.009.75l13.43 1.507-10.276 8.655a1.25 1.25 0 00-.377 1.364l4.247 12.291-12.762-3.19a1.26 1.26 0 00-.606 0l-12.762 3.19 4.247-12.29a1.25 1.25 0 00-.377-1.365L15.53 28.417l13.43-1.508c.446-.05.831-.336 1.008-.75L35 14.424l5.032 11.737zM21.957 53.299L35 50.039l13.043 3.26a22.347 22.347 0 01-26.086 0zm28.845-2.305l-4.34-12.563 10.379-8.742a22.28 22.28 0 01-6.039 21.305zm4.822-24.962l-13.581-1.526-5.105-11.908a22.534 22.534 0 0118.686 13.434zM33.062 12.598l-5.105 11.908-13.58 1.526a22.534 22.534 0 0118.685-13.434z" fill="#fff"/></svg>