<svg width="41" height="36" fill="none" xmlns="http://www.w3.org/2000/svg"><path d="M20.49 3.96a3.954 3.954 0 003.766-2.73c-1.026.283-2.333.453-3.767.453-1.433 0-2.74-.17-3.766-.453a3.954 3.954 0 003.766 2.73z" fill="#CDD3D9"/><path d="M40.44 5.959a.916.916 0 00-.476-.524l-7.626-3.52A36.882 36.882 0 0027.394.612a.896.896 0 00-1.05.686c-.61 2.683-2.984 4.692-5.854 4.692s-5.245-2.008-5.854-4.69a.897.897 0 00-1.05-.687A37.023 37.023 0 008.64 1.914l-7.623 3.52a.897.897 0 00-.476.525.89.89 0 00.048.706l3.31 6.533a.899.899 0 001.064.458l3.677-1.09V34.49c0 .498.406.904.906.904h21.89a.905.905 0 00.902-.904V12.567l3.68 1.09a.898.898 0 001.063-.458l3.312-6.534a.907.907 0 00.047-.706z" fill="#CDD3D9"/></svg>