<svg width="20" height="18" fill="none" xmlns="http://www.w3.org/2000/svg"><path fill="#0D5394" d="M5 2h10v15H5z"/><rect x="14" y="2" width="4" height="5" rx="2" fill="#0D5394"/><rect x="2" y="2" width="4" height="6" rx="2" fill="#0D5394"/><path d="M14.321 17.889H5.68a.997.997 0 01-.997-.997V8.003l-.557.557a.995.995 0 01-1.41 0L.291 6.135a.997.997 0 010-1.41L4.724.293c.216-.217.528-.322.83-.284a1.01 1.01 0 01.125-.008H6.91c.338 0 .653.171.836.455.392.606 1.277.997 2.253.997.977 0 1.861-.391 2.254-.997A.996.996 0 0113.09 0h1.232a.88.88 0 01.126.008.999.999 0 01.83.284l4.43 4.433a.997.997 0 010 1.409L17.285 8.56a.994.994 0 01-1.41 0l-.557-.557v8.89c0 .55-.446.996-.997.996zm-7.646-1.993h6.65V5.597a.997.997 0 011.7-.704l1.554 1.553 1.015-1.016-3.188-3.19a.994.994 0 01-.745-.247h-.086c-.822.907-2.14 1.452-3.575 1.452-1.434 0-2.752-.545-3.575-1.452h-.086a.995.995 0 01-.746.247L2.405 5.43 3.42 6.448l1.553-1.554a.995.995 0 011.702.704v10.3z" fill="#0D5394"/></svg>