<svg width="21" height="20" fill="none" xmlns="http://www.w3.org/2000/svg"><path d="M10.666 11.25a1.25 1.25 0 100-2.5 1.25 1.25 0 000 2.5z" fill="#0D5394"/><path d="M18.675 9.219a8.06 8.06 0 00-7.228-7.228V0H9.885v1.991A8.06 8.06 0 002.657 9.22H.666v1.562h1.991a8.06 8.06 0 007.228 7.228V20h1.562v-1.99a8.061 8.061 0 007.228-7.228h1.99V9.22h-1.99zm-1.572 1.562a6.497 6.497 0 01-5.656 5.656v-1.984H9.885v1.984a6.497 6.497 0 01-5.656-5.656h1.984V9.22H4.229a6.497 6.497 0 015.656-5.656v1.984h1.562V3.563a6.497 6.497 0 015.656 5.656H15.12v1.562h1.984z" fill="#0D5394"/></svg>