<svg width="25" height="25" fill="none" xmlns="http://www.w3.org/2000/svg"><g clip-path="url(#clip0)" fill="#CDD3D9"><path d="M14.962 18.935c.795-.088 1.598-.335 2.418-.744a.69.69 0 00.086-.044c1.134-.582 2.3-1.476 3.52-2.696 1.227-1.227 2.123-2.397 2.704-3.535a7.417 7.417 0 00.715-2.05 5.927 5.927 0 00-.244-3.07.688.688 0 00-.045-.123c-.401-1.078-1.114-2.133-2.136-3.154l-.006-.007-.002-.001-.001-.002c-1.027-1.024-2.086-1.737-3.17-2.136a.697.697 0 00-.12-.043 5.926 5.926 0 00-3.05-.236 7.418 7.418 0 00-2.049.715c-1.138.58-2.307 1.477-3.534 2.704-1.22 1.22-2.114 2.386-2.696 3.52a.697.697 0 00-.044.086c-.41.82-.656 1.623-.744 2.418l-.669 6.083-4.772 4.773a2.112 2.112 0 000 2.983c.41.412.951.617 1.491.617.54 0 1.08-.205 1.492-.617l4.773-4.772 6.083-.67zm-6.147-.74l-1.512-1.51.234-2.13c.39.637.892 1.265 1.507 1.881l.002.002.007.008a10.28 10.28 0 001.89 1.516l-2.128.234zm1.738-12.182l1.476 1.475-1.99 1.99-1.212-1.214c.422-.72.996-1.469 1.726-2.251zM13.8 3.292l1.213 1.213-1.989 1.989-1.476-1.476c.784-.73 1.531-1.304 2.252-1.726zm6.666.732l-1.973 1.973-1.491-1.492 1.67-1.67c.6.269 1.196.665 1.794 1.189zm2.19 2.782l-1.677 1.677-1.491-1.492 1.973-1.973c.525.596.923 1.19 1.195 1.788zm.367 2.808a5.41 5.41 0 01-.187.725l-.862-.862L23.08 8.37c.037.411.018.826-.058 1.244zm-2.541 4.337l-1.492-1.49 1.99-1.99 1.228 1.23c-.422.72-.995 1.467-1.727 2.25zm-3.246 2.72l-1.229-1.227 1.989-1.99 1.491 1.492c-.782.73-1.53 1.304-2.251 1.726zm-6.683-.745l1.974-1.974 1.492 1.492-1.678 1.677c-.597-.272-1.191-.67-1.788-1.195zm-2.184-2.789l1.672-1.671 1.492 1.492L9.56 14.93c-.525-.598-.921-1.194-1.19-1.793zm2.666-2.665l1.99-1.99 1.49 1.492-1.988 1.99-1.492-1.492zm2.486 2.486l1.99-1.99L17 12.46l-1.988 1.99-1.492-1.492zm2.983-2.984l1.99-1.989 1.49 1.492-1.988 1.989-1.492-1.492zm.995-2.983l-1.99 1.989-1.492-1.492 1.99-1.988 1.49 1.491zm-8.453 3.48l-1.094 1.095a4.493 4.493 0 01.011-.875c.039-.35.117-.705.237-1.066l.846.847zm4.858 7.075l1.109-1.108.862.862c-.361.12-.716.198-1.066.237a4.507 4.507 0 01-.905.01zm1.982-15.069a4.655 4.655 0 011.216-.06L16.006 3.51l-.846-.847a5.4 5.4 0 01.725-.187zm5.807 16.893a2.816 2.816 0 00-2.812 2.812 2.816 2.816 0 002.812 2.812 2.816 2.816 0 002.813-2.812 2.816 2.816 0 00-2.813-2.813z"/></g><defs><clipPath id="clip0"><path fill="#fff" transform="translate(.506 .994)" d="M0 0h24v24H0z"/></clipPath></defs></svg>