<svg width="119" height="95" fill="none" xmlns="http://www.w3.org/2000/svg"><path d="M86.641 20.193a3.33 3.33 0 00-2.663-2.242l-14.883-2.173-6.659-13.481A3.326 3.326 0 0059.47.45a3.326 3.326 0 00-2.967 1.846l-6.659 13.48-14.882 2.174a3.33 3.33 0 00-2.664 2.242 3.276 3.276 0 00.841 3.388L43.91 34.07l-2.547 14.836a3.326 3.326 0 001.309 3.225 3.293 3.293 0 003.48.257l13.318-7.01 13.317 7.01c.514.256 2.173.677 3.482-.258 1.028-.724 1.518-1.986 1.308-3.224L75.03 34.07 85.8 23.581c.888-.864 1.215-2.196.841-3.388zM69.235 30.567c-.77.747-1.121 1.846-.958 2.92l1.706 9.953-8.949-4.696c-1.541-.514-1.541-.514-3.06 0l-8.925 4.696 1.706-9.953a3.258 3.258 0 00-.958-2.92l-7.22-7.056 10-1.448a3.311 3.311 0 002.476-1.8l4.463-9.041 4.462 9.042c.491.98 1.402 1.658 2.477 1.799l10 1.448-7.22 7.056zm49.45 31.328a3.33 3.33 0 00-2.663-2.243l-14.883-2.173-6.658-13.48a3.326 3.326 0 00-2.968-1.847 3.326 3.326 0 00-2.967 1.846l-6.659 13.48-14.882 2.174a3.33 3.33 0 00-2.664 2.243 3.276 3.276 0 00.842 3.387l10.77 10.49-2.547 14.837a3.326 3.326 0 001.309 3.224 3.293 3.293 0 003.481.257l13.317-7.01 13.318 7.01c.49.257 2.149.677 3.481-.257 1.028-.725 1.518-1.986 1.308-3.224l-2.546-14.836 10.77-10.49a3.277 3.277 0 00.841-3.388zm-17.452 10.35c-.771.747-1.122 1.845-.958 2.92l1.705 9.953-8.925-4.696c-1.542-.514-1.542-.514-3.06 0l-8.925 4.696 1.705-9.953a3.258 3.258 0 00-.958-2.92l-7.219-7.033 10-1.448a3.311 3.311 0 002.476-1.8l4.463-9.041 4.462 9.042c.49.98 1.402 1.658 2.477 1.799l9.999 1.448-7.242 7.033zm-46.586-10.35c-.397-1.192-1.425-2.08-2.664-2.243l-14.882-2.173-6.659-13.48a3.326 3.326 0 00-2.967-1.847 3.326 3.326 0 00-2.967 1.846l-6.659 13.48-14.882 2.174a3.33 3.33 0 00-2.664 2.243 3.276 3.276 0 00.841 3.387l10.77 10.49L9.369 90.61a3.326 3.326 0 001.309 3.224 3.293 3.293 0 003.48.257l13.318-7.01 13.317 7.01c.49.257 2.15.677 3.481-.257 1.028-.725 1.519-1.986 1.309-3.224l-2.547-14.836 10.77-10.49a3.36 3.36 0 00.842-3.388zm-17.453 10.35c-.77.747-1.121 1.845-.958 2.92l1.706 9.953-8.925-4.696c-1.542-.514-1.542-.514-3.06 0l-8.926 4.696 1.706-9.953a3.259 3.259 0 00-.958-2.92l-7.243-7.033 10-1.448a3.312 3.312 0 002.476-1.8l4.463-9.041 4.462 9.042c.491.98 1.402 1.658 2.477 1.799l10 1.448-7.22 7.033z" fill="#E73A4B"/></svg>