<svg width="120" height="53" fill="none" xmlns="http://www.w3.org/2000/svg"><path d="M118.983 19.969a3.33 3.33 0 00-2.663-2.243l-14.883-2.173-6.658-13.48A3.326 3.326 0 0091.81.226a3.326 3.326 0 00-2.967 1.845l-6.658 13.481-14.883 2.173a3.33 3.33 0 00-2.663 2.243 3.276 3.276 0 00.84 3.387l10.771 10.49-2.546 14.837a3.326 3.326 0 001.308 3.224 3.293 3.293 0 003.481.257l13.317-7.01 13.318 7.01c.49.257 2.149.677 3.481-.257 1.028-.724 1.519-1.986 1.308-3.224l-2.546-14.836 10.77-10.49a3.274 3.274 0 00.841-3.388zm-17.452 10.35c-.771.748-1.122 1.846-.958 2.92l1.705 9.953-8.925-4.696c-1.542-.514-1.542-.514-3.06 0l-8.925 4.696 1.705-9.953a3.258 3.258 0 00-.957-2.92l-7.22-7.033 10-1.448a3.311 3.311 0 002.476-1.8l4.463-9.04 4.462 9.04c.49.982 1.402 1.66 2.477 1.8l9.999 1.448-7.242 7.033zM54.944 19.968c-.398-1.192-1.425-2.08-2.664-2.243l-14.882-2.173-6.659-13.48A3.326 3.326 0 0027.772.225a3.326 3.326 0 00-2.967 1.845l-6.659 13.481-14.883 2.173A3.33 3.33 0 00.6 19.968a3.276 3.276 0 00.841 3.388l10.77 10.49-2.546 14.836a3.326 3.326 0 001.308 3.224 3.293 3.293 0 003.482.257l13.317-7.01 13.317 7.01c.49.257 2.15.677 3.481-.257 1.028-.724 1.519-1.986 1.309-3.224l-2.547-14.836 10.77-10.49a3.361 3.361 0 00.842-3.388zM37.49 30.318c-.77.747-1.121 1.846-.958 2.92l1.706 9.953-8.925-4.696c-1.542-.514-1.542-.514-3.06 0l-8.926 4.696 1.706-9.953a3.258 3.258 0 00-.958-2.92l-7.243-7.033 10-1.448a3.311 3.311 0 002.476-1.8l4.463-9.04 4.462 9.04c.49.982 1.402 1.66 2.477 1.8l10 1.448-7.22 7.033z" fill="#E73A4B"/></svg>