<svg width="25" height="25" fill="none" xmlns="http://www.w3.org/2000/svg"><g clip-path="url(#clip0)"><path d="M12.506 24.994c6.627 0 12-5.372 12-12 0-6.627-5.373-12-12-12-6.628 0-12 5.373-12 12 0 6.628 5.372 12 12 12z" fill="#CDD3D9"/><path fill-rule="evenodd" clip-rule="evenodd" d="M12.053 18.257h.942s.284-.031.43-.188c.133-.143.129-.413.129-.413s-.018-1.264.568-1.45c.578-.184 1.32 1.221 2.108 1.761.595.41 1.047.32 1.047.32l2.104-.03s1.101-.068.58-.933c-.043-.071-.305-.64-1.565-1.81-1.32-1.225-1.143-1.027.446-3.145.968-1.29 1.355-2.078 1.234-2.415-.115-.322-.827-.237-.827-.237l-2.37.015s-.175-.024-.305.054c-.127.076-.21.254-.21.254s-.374.999-.874 1.848c-1.055 1.791-1.477 1.886-1.65 1.774-.4-.259-.3-1.041-.3-1.597 0-1.736.263-2.46-.513-2.647-.258-.063-.447-.104-1.106-.11-.845-.01-1.56.002-1.966.2-.27.133-.477.427-.35.444.156.02.51.095.698.351.243.33.235 1.073.235 1.073s.14 2.043-.326 2.297c-.32.174-.758-.181-1.698-1.806-.482-.833-.846-1.753-.846-1.753s-.07-.172-.195-.264a.982.982 0 00-.364-.147l-2.252.015s-.338.009-.462.156c-.11.13-.009.401-.009.401s1.763 4.124 3.759 6.202c1.83 1.905 3.908 1.78 3.908 1.78z" fill="#fff"/></g><defs><clipPath id="clip0"><path fill="#fff" transform="translate(.506 .994)" d="M0 0h24v24H0z"/></clipPath></defs></svg>