<svg width="41" height="23" fill="none" xmlns="http://www.w3.org/2000/svg"><path d="M38.966 1.01h-6.491a1.45 1.45 0 00-.753.211 1.476 1.476 0 00-.539.572s-2.588 4.832-3.42 6.46c-2.237 4.377-3.686 3.003-3.686.97V2.219c0-.585-.23-1.147-.638-1.56A2.164 2.164 0 0021.9.01h-4.88a3.865 3.865 0 00-1.936.357 3.922 3.922 0 00-1.518 1.267s2.478-.406 2.478 2.978c0 .839.043 3.253.081 5.277.008.299-.075.592-.238.841a1.443 1.443 0 01-.67.551 1.42 1.42 0 01-1.603-.383 43.235 43.235 0 01-4.928-9.083 1.38 1.38 0 00-.505-.588 1.354 1.354 0 00-.738-.218H1.544a.991.991 0 00-.828.433 1.024 1.024 0 00-.118.936C2.388 7.357 10.103 23 18.908 23h3.705c.389 0 .76-.156 1.035-.435.275-.278.43-.655.43-1.049V19.25c0-.285.081-.563.236-.8a1.42 1.42 0 012.188-.262l4.435 4.223c.398.379.924.59 1.47.59h5.826c2.809 0 2.809-1.976 1.277-3.504-1.078-1.076-4.968-5.231-4.968-5.231a2.055 2.055 0 01-.155-2.646c1.258-1.676 3.315-4.421 4.187-5.597 1.192-1.607 3.35-5.012.392-5.012z" fill="#154D80"/></svg>