<svg width="231" height="41" viewBox="0 0 231 41" fill="none" xmlns="http://www.w3.org/2000/svg">
<path d="M13.2706 10.2914C15.3679 10.2914 17.1949 10.6374 18.7516 11.3293C20.3084 12.0212 21.5084 13.0158 22.3516 14.3131C23.1949 15.6104 23.6165 17.1239 23.6165 18.8536C23.6165 20.5833 23.1949 22.0968 22.3516 23.3941C21.5084 24.6914 20.3084 25.686 18.7516 26.3779C17.1949 27.0698 15.3679 27.4158 13.2706 27.4158H9.99489V32.9941H2.34084V10.2914H13.2706ZM12.7841 21.5131C13.8219 21.5131 14.6003 21.286 15.1192 20.832C15.6381 20.3563 15.8976 19.6968 15.8976 18.8536C15.8976 18.0104 15.6381 17.3617 15.1192 16.9077C14.6003 16.432 13.8219 16.1941 12.7841 16.1941H9.99489V21.5131H12.7841ZM35.8565 27.286H33.7808V32.9941H26.1267V10.2914H37.0565C39.1538 10.2914 40.9808 10.6374 42.5375 11.3293C44.0943 12.0212 45.2943 13.0158 46.1375 14.3131C46.9808 15.6104 47.4024 17.1239 47.4024 18.8536C47.4024 20.4752 47.0348 21.8914 46.2997 23.1022C45.5646 24.3131 44.5051 25.2752 43.1213 25.9887L47.8889 32.9941H39.7159L35.8565 27.286ZM39.6835 18.8536C39.6835 18.0104 39.424 17.3617 38.9051 16.9077C38.3862 16.432 37.6078 16.1941 36.57 16.1941H33.7808V21.5131H36.57C37.6078 21.5131 38.3862 21.286 38.9051 20.832C39.424 20.3563 39.6835 19.6968 39.6835 18.8536Z" fill="#CE091D"/>
<path d="M104.202 21.0266H110.851V30.6266C109.511 31.5563 107.954 32.2698 106.181 32.7671C104.408 33.2644 102.667 33.5131 100.959 33.5131C98.5376 33.5131 96.3647 33.0158 94.4403 32.0212C92.516 31.005 91.0025 29.5995 89.8998 27.805C88.8187 25.9887 88.2782 23.9347 88.2782 21.6428C88.2782 19.3509 88.8187 17.3077 89.8998 15.5131C91.0025 13.6968 92.5268 12.2914 94.4728 11.2968C96.4403 10.2806 98.6566 9.77252 101.121 9.77252C103.348 9.77252 105.338 10.1509 107.089 10.9077C108.862 11.6428 110.332 12.7239 111.5 14.1509L106.602 18.4644C105.175 16.7995 103.478 15.9671 101.511 15.9671C99.8241 15.9671 98.4836 16.4752 97.489 17.4914C96.4944 18.5077 95.9971 19.8914 95.9971 21.6428C95.9971 23.3509 96.4836 24.7239 97.4566 25.7617C98.4511 26.7995 99.7701 27.3185 101.413 27.3185C102.386 27.3185 103.316 27.1347 104.202 26.7671V21.0266ZM136.491 10.2914V32.9941H130.199L121.572 22.6806V32.9941H114.112V10.2914H120.404L129.031 20.6049V10.2914H136.491ZM152.081 33.5131C149.638 33.5131 147.444 33.005 145.498 31.9887C143.552 30.9725 142.027 29.5671 140.925 27.7725C139.822 25.9563 139.271 23.9131 139.271 21.6428C139.271 19.3725 139.822 17.3401 140.925 15.5455C142.027 13.7293 143.552 12.3131 145.498 11.2968C147.444 10.2806 149.638 9.77252 152.081 9.77252C154.525 9.77252 156.719 10.2806 158.665 11.2968C160.611 12.3131 162.135 13.7293 163.238 15.5455C164.341 17.3401 164.892 19.3725 164.892 21.6428C164.892 23.9131 164.341 25.9563 163.238 27.7725C162.135 29.5671 160.611 30.9725 158.665 31.9887C156.719 33.005 154.525 33.5131 152.081 33.5131ZM152.081 27.3185C153.033 27.3185 153.887 27.0914 154.644 26.6374C155.422 26.1617 156.038 25.5022 156.492 24.659C156.946 23.7941 157.173 22.7887 157.173 21.6428C157.173 20.4968 156.946 19.5022 156.492 18.659C156.038 17.7941 155.422 17.1347 154.644 16.6806C153.887 16.2049 153.033 15.9671 152.081 15.9671C151.13 15.9671 150.265 16.2049 149.487 16.6806C148.73 17.1347 148.125 17.7941 147.671 18.659C147.217 19.5022 146.989 20.4968 146.989 21.6428C146.989 22.7887 147.217 23.7941 147.671 24.659C148.125 25.5022 148.73 26.1617 149.487 26.6374C150.265 27.0914 151.13 27.3185 152.081 27.3185ZM187.555 27.059V32.9941H166.701V28.2914L177.079 16.2266H167.025V10.2914H187.036V14.9941L176.658 27.059H187.555ZM189.777 10.2914H197.432V32.9941H189.777V10.2914ZM221.386 32.9941L221.322 22.6482L216.392 30.9509H213.019L208.089 23.005V32.9941H201.116V10.2914H207.408L214.803 22.3887L222.003 10.2914H228.295L228.359 32.9941H221.386Z" fill="#11263C"/>
<mask id="mask0" mask-type="alpha" maskUnits="userSpaceOnUse" x="49" y="2" width="38" height="38">
<circle cx="67.9922" cy="21.4941" r="18.5" fill="#C4C4C4"/>
</mask>
<g mask="url(#mask0)">
<path d="M56.9402 48.9565L56.9404 48.9565L56.9456 48.9596C63.7547 52.9979 70.8348 57.197 79.7952 57.197C88.6559 57.197 95.6785 53.0618 102.417 49.094L102.649 48.957L102.651 48.9562C109.387 44.9379 116.326 40.8451 125.014 40.8451H125.264V40.5951V40.1523V39.9023H125.014C116.051 39.9023 108.94 44.1033 102.159 48.143L102.158 48.1431C95.4218 52.1615 88.483 56.2542 79.7952 56.2542C71.1076 56.2542 64.1986 52.1616 57.4317 48.1429L57.4316 48.1428L57.4264 48.1397C50.6172 44.1014 43.5371 39.9023 34.5767 39.9023C25.614 39.9023 18.5033 44.1033 11.7214 48.143L11.721 48.1433C8.11874 50.2987 4.41597 52.4727 0.482269 54.0285L0.257479 54.1174L0.338783 54.3451L0.486364 54.7583L0.573103 55.0012L0.813159 54.9069C4.5919 53.4234 8.15727 51.3336 11.5919 49.3204C11.799 49.199 12.0056 49.0779 12.2118 48.9573L12.2131 48.9565C18.98 44.9377 25.889 40.8451 34.5767 40.8451C43.2644 40.8451 50.1734 44.9377 56.9402 48.9565Z" fill="#CE091D" stroke="#CE091D" stroke-width="0.5"/>
<path d="M56.9402 45.975L56.9404 45.9751L56.9456 45.9782C63.7547 50.0165 70.8348 54.2155 79.7952 54.2155C88.7557 54.2155 95.8358 50.0165 102.645 45.9782L102.65 45.9751L102.651 45.9748C109.387 41.9564 116.326 37.8636 125.014 37.8636H125.264V37.6136V37.1709V36.9209H125.014C116.051 36.9209 108.94 41.1219 102.159 45.1616L102.158 45.1617C95.4218 49.18 88.483 53.2728 79.7952 53.2728C71.1076 53.2728 64.1986 49.1802 57.4317 45.1614L57.4316 45.1613L57.4264 45.1583C50.6172 41.1199 43.5371 36.9209 34.5767 36.9209C25.614 36.9209 18.5033 41.1219 11.7214 45.1616L11.721 45.1618C8.11874 47.3173 4.41597 49.4912 0.482269 51.0471L0.24313 51.1417L0.344433 51.378L0.521529 51.7913L0.617023 52.0141L0.842675 51.9255C4.81457 50.3662 8.52083 48.1664 12.1184 46.0313L12.2131 45.9751L12.2135 45.9748C18.9502 41.9564 25.889 37.8636 34.5767 37.8636C43.2644 37.8636 50.1734 41.9563 56.9402 45.975Z" fill="#CE091D" stroke="#CE091D" stroke-width="0.5"/>
<path d="M56.9402 42.9926L56.9404 42.9927L56.9456 42.9957C63.7547 47.0341 70.8348 51.2331 79.7952 51.2331C88.7557 51.2331 95.8358 47.0341 102.645 42.9957L102.65 42.9927L102.651 42.9923C109.387 38.974 116.326 34.8812 125.014 34.8812H125.264V34.6312V34.1885V33.9385H125.014C116.051 33.9385 108.94 38.1395 102.159 42.1791L102.158 42.1792C95.4218 46.1976 88.483 50.2904 79.7952 50.2904C71.1075 50.2904 64.1687 46.1976 57.4321 42.1792L57.4316 42.1789L57.4264 42.1758C50.6173 38.1375 43.5371 33.9385 34.5767 33.9385C25.614 33.9385 18.5033 38.1395 11.7214 42.1791L11.721 42.1794C8.11874 44.3348 4.41597 46.5088 0.482269 48.0647L0.25748 48.1536L0.338783 48.3812L0.486363 48.7944L0.573102 49.0373L0.813159 48.9431C4.81966 47.3702 8.58516 45.1458 12.2131 42.9926L12.2131 42.9926C18.98 38.9738 25.889 34.8812 34.5767 34.8812C43.2644 34.8812 50.1734 38.9738 56.9402 42.9926Z" fill="#CE091D" stroke="#CE091D" stroke-width="0.5"/>
<path d="M56.9402 40.0404L56.9404 40.0405L56.9456 40.0436C63.7547 44.0819 70.8348 48.281 79.7952 48.281C88.7557 48.281 95.8358 44.0819 102.645 40.0436L102.65 40.0405L102.651 40.0402C109.387 36.0218 116.326 31.9291 125.014 31.9291H125.264V31.6791V31.2363V30.9863H125.014C116.051 30.9863 108.94 35.1873 102.159 39.227L102.158 39.2271C95.4218 43.2454 88.483 47.3382 79.7952 47.3382C71.1075 47.3382 64.1687 43.2454 57.4321 39.2271L57.4316 39.2268L57.4264 39.2237C50.6173 35.1854 43.5371 30.9863 34.5767 30.9863C25.614 30.9863 18.5033 35.1873 11.7214 39.227L11.721 39.2273C8.11874 41.3827 4.41597 43.5566 0.482269 45.1125L0.25748 45.2014L0.338783 45.4291L0.486363 45.8423L0.573102 46.0852L0.813159 45.9909C4.81966 44.418 8.58516 42.1936 12.2131 40.0405L12.2131 40.0404C18.98 36.0217 25.889 31.9291 34.5767 31.9291C43.2644 31.9291 50.1734 36.0217 56.9402 40.0404Z" fill="#CE091D" stroke="#CE091D" stroke-width="0.5"/>
<path d="M56.9402 37.061L56.9404 37.061L56.9455 37.0641C63.7547 41.1024 70.8348 45.3015 79.7952 45.3015C88.7557 45.3015 95.8358 41.1024 102.645 37.0641L102.65 37.061L102.651 37.0607C109.387 33.0424 116.326 28.9496 125.014 28.9496H125.264V28.6996V28.2568V28.0068H125.014C116.051 28.0068 108.94 32.2078 102.159 36.2475L102.158 36.2476C95.4218 40.2659 88.483 44.3587 79.7952 44.3587C71.1076 44.3587 64.1986 40.2661 57.4317 36.2473L57.4316 36.2473L57.4264 36.2442C50.6172 32.2059 43.5371 28.0068 34.5767 28.0068C25.614 28.0068 18.5033 32.2078 11.7214 36.2475L11.721 36.2478C8.11874 38.4032 4.41597 40.5772 0.482269 42.133L0.24313 42.2276L0.344433 42.464L0.521529 42.8772L0.617023 43.1L0.842675 43.0114C4.81456 41.4521 8.52082 39.2524 12.1184 37.1172L12.2131 37.061L12.2131 37.061C18.98 33.0422 25.889 28.9496 34.5767 28.9496C43.2644 28.9496 50.1734 33.0422 56.9402 37.061Z" fill="#CE091D" stroke="#CE091D" stroke-width="0.5"/>
<path d="M56.9402 34.1098L56.9404 34.1099L56.9455 34.1129C63.7547 38.1512 70.8348 42.3503 79.7952 42.3503C88.656 42.3503 95.6785 38.2151 102.417 34.2473L102.649 34.1103L102.651 34.1095C109.387 30.0912 116.326 25.9984 125.014 25.9984H125.264V25.7484V25.3057V25.0557H125.014C116.051 25.0557 108.94 29.2567 102.159 33.2963L102.158 33.2964C95.4218 37.3148 88.483 41.4075 79.7952 41.4075C71.1076 41.4075 64.1986 37.3149 57.4317 33.2962L57.4316 33.2961L57.4264 33.293C50.6172 29.2547 43.5371 25.0557 34.5767 25.0557C25.614 25.0557 18.5033 29.2567 11.7214 33.2963L11.721 33.2966C8.11874 35.452 4.41597 37.626 0.482269 39.1819L0.24313 39.2764L0.344433 39.5128L0.521529 39.926L0.617023 40.1489L0.842675 40.0603C4.81456 38.5009 8.52082 36.3012 12.1184 34.166L12.2131 34.1098L12.2131 34.1098C18.98 30.091 25.889 25.9984 34.5767 25.9984C43.2644 25.9984 50.1734 30.091 56.9402 34.1098Z" fill="#CE091D" stroke="#CE091D" stroke-width="0.5"/>
<path d="M12.2131 31.1569L12.2131 31.1569C18.98 27.1381 25.889 23.0455 34.5767 23.0455C43.2313 23.0455 50.1204 27.1069 56.8631 31.0819L56.9404 31.1274L56.9409 31.1278L56.9456 31.1305C63.7547 35.1688 70.8348 39.3679 79.7952 39.3679C88.7557 39.3679 95.8358 35.1688 102.645 31.1305L102.65 31.1274L102.651 31.1271C109.387 27.1088 116.326 23.016 125.014 23.016H125.264V22.766V22.3232V22.0732H125.014C116.051 22.0732 108.94 26.2742 102.159 30.3139L102.158 30.314C95.4218 34.3323 88.483 38.4251 79.7952 38.4251C71.1076 38.4251 64.1986 34.3325 57.4317 30.3137L57.4316 30.3137L57.4264 30.3106C50.6172 26.2723 43.5371 22.0732 34.5767 22.0732C25.614 22.0732 18.5033 26.2742 11.7214 30.3139L11.721 30.3142C8.11874 32.4696 4.41597 34.6436 0.482269 36.1994L0.248892 36.2917L0.3421 36.5248L0.519196 36.9675L0.611451 37.1981L0.842675 37.1074C4.81457 35.548 8.52083 33.3483 12.1184 31.2131L12.2131 31.1569Z" fill="#CE091D" stroke="#CE091D" stroke-width="0.5"/>
<path d="M56.9402 28.1469L56.9404 28.147L56.9456 28.15C63.7547 32.1884 70.8348 36.3874 79.7952 36.3874C88.7557 36.3874 95.8358 32.1884 102.645 28.15L102.65 28.147L102.651 28.1466C109.387 24.1283 116.326 20.0355 125.014 20.0355H125.264V19.7855V19.3428V19.0928H125.014C116.051 19.0928 108.94 23.2938 102.159 27.3334L102.158 27.3335C95.4218 31.3519 88.483 35.4447 79.7952 35.4447C71.1076 35.4447 64.1986 31.352 57.4317 27.3333L57.4316 27.3332L57.4264 27.3301C50.6172 23.2918 43.5371 19.0928 34.5767 19.0928C25.614 19.0928 18.5033 23.2938 11.7214 27.3334L11.721 27.3337C8.11874 29.4891 4.41597 31.6631 0.482269 33.219L0.24313 33.3135L0.344433 33.5499L0.521529 33.9631L0.617023 34.186L0.842675 34.0974C4.81454 32.538 8.52077 30.3383 12.1183 28.2032L12.2131 28.1469L12.2131 28.1469C18.98 24.1281 25.889 20.0355 34.5767 20.0355C43.2644 20.0355 50.1734 24.1281 56.9402 28.1469Z" fill="#CE091D" stroke="#CE091D" stroke-width="0.5"/>
<path d="M56.9402 25.1957L56.9404 25.1958L56.9456 25.1989C63.7547 29.2372 70.8348 33.4362 79.7952 33.4362C88.656 33.4362 95.6785 29.301 102.417 25.3333L102.649 25.1962L102.651 25.1955C109.387 21.1771 116.326 17.0843 125.014 17.0843H125.264V16.8343V16.3916V16.1416H125.014C116.051 16.1416 108.94 20.3426 102.159 24.3823L102.158 24.3824C95.4218 28.4007 88.483 32.4935 79.7952 32.4935C71.1076 32.4935 64.1986 28.4009 57.4317 24.3821L57.4316 24.382L57.4264 24.379C50.6172 20.3406 43.5371 16.1416 34.5767 16.1416C25.614 16.1416 18.5033 20.3426 11.7214 24.3823L11.721 24.3825C8.11874 26.538 4.41597 28.7119 0.482269 30.2678L0.24313 30.3624L0.344433 30.5987L0.521529 31.012L0.617023 31.2348L0.842675 31.1462C4.81454 29.5869 8.52077 27.3872 12.1183 25.252L12.2131 25.1958L12.2131 25.1957C18.98 21.1769 25.889 17.0843 34.5767 17.0843C43.2644 17.0843 50.1734 21.1769 56.9402 25.1957Z" fill="#CE091D" stroke="#CE091D" stroke-width="0.5"/>
<path d="M56.9402 22.2133L56.9404 22.2134L56.9456 22.2165C63.7547 26.2548 70.8348 30.4538 79.7952 30.4538C88.7557 30.4538 95.8358 26.2548 102.645 22.2165L102.65 22.2134L102.651 22.213C109.387 18.1947 116.326 14.1019 125.014 14.1019H125.264V13.8519V13.4092V13.1592H125.014C116.051 13.1592 108.94 17.3602 102.159 21.3999L102.158 21.3999C95.4218 25.4183 88.483 29.5111 79.7952 29.5111C71.1076 29.5111 64.1986 25.4185 57.4317 21.3997L57.4316 21.3996L57.4264 21.3965C50.6172 17.3582 43.5371 13.1592 34.5767 13.1592C25.614 13.1592 18.5033 17.3602 11.7214 21.3999L11.721 21.4001C8.11874 23.5555 4.41597 25.7295 0.482269 27.2854L0.24313 27.3799L0.344433 27.6163L0.521529 28.0295L0.617023 28.2524L0.842675 28.1638C4.81457 26.6044 8.52083 24.4047 12.1184 22.2695L12.2131 22.2133L12.2135 22.213C18.9502 18.1947 25.889 14.1019 34.5767 14.1019C43.2644 14.1019 50.1734 18.1945 56.9402 22.2133Z" fill="#CE091D" stroke="#CE091D" stroke-width="0.5"/>
<path d="M56.9402 19.2328L56.9404 19.2329L56.9456 19.236C63.7547 23.2743 70.8348 27.4733 79.7952 27.4733C88.7557 27.4733 95.8358 23.2743 102.645 19.236L102.65 19.2329L102.651 19.2326C109.387 15.2142 116.326 11.1215 125.014 11.1215H125.264V10.8715V10.4287V10.1787H125.014C116.051 10.1787 108.94 14.3797 102.159 18.4194L102.158 18.4195C95.4218 22.4378 88.483 26.5306 79.7952 26.5306C71.1076 26.5306 64.1986 22.438 57.4317 18.4192L57.4316 18.4191L57.4264 18.4161C50.6172 14.3778 43.5371 10.1787 34.5767 10.1787C25.614 10.1787 18.5033 14.3797 11.7214 18.4194L11.721 18.4196C8.11874 20.5751 4.41597 22.749 0.482269 24.3049L0.25748 24.3938L0.338783 24.6215L0.486363 25.0347L0.573102 25.2776L0.813159 25.1833C4.81966 23.6104 8.58516 21.386 12.2131 19.2329L12.2135 19.2326C18.9502 15.2142 25.889 11.1215 34.5767 11.1215C43.2644 11.1215 50.1734 15.2141 56.9402 19.2328Z" fill="#CE091D" stroke="#CE091D" stroke-width="0.5"/>
<path d="M56.9402 16.2807L56.9404 16.2808L56.9456 16.2838C63.7547 20.3221 70.8348 24.5212 79.7952 24.5212C88.7557 24.5212 95.8358 20.3221 102.645 16.2838L102.65 16.2808L102.651 16.2804C109.387 12.2621 116.326 8.1693 125.014 8.1693H125.264V7.9193V7.47656V7.22656H125.014C116.051 7.22656 108.94 11.4276 102.159 15.4672L102.158 15.4673C95.4218 19.4857 88.483 23.5784 79.7952 23.5784C71.1076 23.5784 64.1986 19.4858 57.4317 15.4671L57.4316 15.467L57.4264 15.4639C50.6172 11.4256 43.5371 7.22656 34.5767 7.22656C25.614 7.22656 18.5033 11.4276 11.7214 15.4672L11.721 15.4675C8.11874 17.6229 4.41597 19.7969 0.482269 21.3527L0.25748 21.4417L0.338783 21.6693L0.486363 22.0825L0.573102 22.3254L0.813159 22.2312C4.81966 20.6582 8.58516 18.4339 12.2131 16.2807L12.2135 16.2804C18.9502 12.2621 25.889 8.1693 34.5767 8.1693C43.2644 8.1693 50.1734 12.2619 56.9402 16.2807Z" fill="#CE091D" stroke="#CE091D" stroke-width="0.5"/>
<path d="M56.9402 13.3012L56.9404 13.3013L56.9455 13.3043C63.7547 17.3427 70.8348 21.5417 79.7952 21.5417C88.7557 21.5417 95.8358 17.3427 102.645 13.3043L102.65 13.3013L102.651 13.3009C109.387 9.28259 116.326 5.18981 125.014 5.18981H125.264V4.93981V4.49707V4.24707H125.014C116.051 4.24707 108.94 8.44807 102.159 12.4877L102.158 12.4878C95.4218 16.5062 88.483 20.599 79.7952 20.599C71.1076 20.599 64.1986 16.5063 57.4317 12.4876L57.4316 12.4875L57.4264 12.4844C50.6172 8.44611 43.5371 4.24707 34.5767 4.24707C25.614 4.24707 18.5033 8.44807 11.7214 12.4877L11.721 12.488C8.11874 14.6434 4.41597 16.8174 0.482269 18.3733L0.24313 18.4678L0.344433 18.7042L0.521529 19.1174L0.617023 19.3403L0.842675 19.2517C4.81456 17.6923 8.52082 15.4926 12.1184 13.3574L12.2131 13.3012L12.2131 13.3012C18.98 9.28242 25.889 5.18981 34.5767 5.18981C43.2644 5.18981 50.1734 9.28242 56.9402 13.3012Z" fill="#CE091D" stroke="#CE091D" stroke-width="0.5"/>
<path d="M56.9402 10.3481L56.9404 10.3481L56.9456 10.3512C63.7547 14.3895 70.8348 18.5886 79.7952 18.5886C88.656 18.5886 95.6785 14.4534 102.417 10.4856L102.649 10.3485L102.651 10.3478C109.387 6.32947 116.326 2.23669 125.014 2.23669H125.264V1.98669V1.54395V1.29395H125.014C116.051 1.29395 108.94 5.49494 102.159 9.53462L102.158 9.5347C95.4218 13.553 88.483 17.6458 79.7952 17.6458C71.1076 17.6458 64.1986 13.5532 57.4317 9.53445L57.4316 9.53438L57.4264 9.5313C50.6172 5.49299 43.5371 1.29395 34.5767 1.29395C25.614 1.29395 18.5033 5.49494 11.7214 9.53462L11.721 9.53487C8.11874 11.6903 4.41597 13.8643 0.482269 15.4201L0.24313 15.5147L0.344433 15.7511L0.521529 16.1643L0.617023 16.3871L0.842675 16.2985C4.81455 14.7392 8.52079 12.5395 12.1183 10.4043L12.2131 10.3481L12.2135 10.3478C18.9502 6.32947 25.889 2.23669 34.5767 2.23669C43.2644 2.23669 50.1734 6.32929 56.9402 10.3481Z" fill="#CE091D" stroke="#CE091D" stroke-width="0.5"/>
<path d="M56.9402 7.36857L56.9404 7.36865L56.9456 7.37172C63.7547 11.41 70.8348 15.6091 79.7952 15.6091C88.7557 15.6091 95.8358 11.41 102.645 7.37173L102.65 7.36865L102.651 7.36832C109.387 3.34998 116.326 -0.742806 125.014 -0.742806H125.264V-0.992806V-1.43555V-1.68555H125.014C116.051 -1.68555 108.94 2.51545 102.159 6.55513L102.158 6.55521C95.4218 10.5736 88.483 14.6663 79.7952 14.6663C71.1076 14.6663 64.1986 10.5737 57.4317 6.55496L57.4316 6.55488L57.4264 6.55182C50.6172 2.51349 43.5371 -1.68555 34.5767 -1.68555C25.614 -1.68555 18.5033 2.51545 11.7214 6.55513L11.721 6.55538C8.11874 8.71082 4.41597 10.8848 0.482269 12.4406L0.243131 12.5352L0.344432 12.7716L0.521528 13.1848L0.617022 13.4076L0.842675 13.3191C4.81454 11.7597 8.52077 9.56003 12.1183 7.42487L12.2131 7.36861L12.2131 7.36857C18.98 3.3498 25.889 -0.742806 34.5767 -0.742806C43.2644 -0.742806 50.1734 3.3498 56.9402 7.36857Z" fill="#CE091D" stroke="#CE091D" stroke-width="0.5"/>
<path d="M56.9402 4.38712L56.9404 4.3872L56.9455 4.39027C63.7547 8.42859 70.8348 12.6276 79.7952 12.6276C88.7557 12.6276 95.8358 8.42859 102.645 4.39027L102.65 4.3872L102.651 4.38688C109.387 0.36853 116.326 -3.72425 125.014 -3.72425H125.264V-3.97425V-4.41699V-4.66699H125.014C116.051 -4.66699 108.94 -0.465995 102.159 3.57368L102.158 3.57376C95.4218 7.59211 88.483 11.6849 79.7952 11.6849C71.1076 11.6849 64.1986 7.59228 57.4317 3.57351L57.4316 3.57344L57.4264 3.57037C50.6172 -0.467951 43.5371 -4.66699 34.5767 -4.66699C25.614 -4.66699 18.5033 -0.465995 11.7214 3.57368L11.721 3.57394C8.11874 5.72937 4.41597 7.90333 0.482269 9.4592L0.257479 9.5481L0.338783 9.77575L0.486363 10.189L0.573102 10.4318L0.813159 10.3376C4.72036 8.80366 8.39893 6.64986 11.9428 4.57489C12.0326 4.52236 12.1222 4.46987 12.2118 4.41744L12.2118 4.41745L12.2135 4.41639C18.9509 0.397608 25.8893 -3.72425 34.5767 -3.72425C43.2644 -3.72425 50.1734 0.368357 56.9402 4.38712Z" fill="#CE091D" stroke="#CE091D" stroke-width="0.5"/>
<path d="M56.9402 1.43595L56.9404 1.43603L56.9456 1.43911C63.7547 5.47742 70.8348 9.67646 79.7952 9.67646C88.7557 9.67646 95.8358 5.47742 102.645 1.4391L102.65 1.43603L102.651 1.43571C109.387 -2.58264 116.326 -6.67542 125.014 -6.67542H125.264V-6.92542V-7.36816V-7.61816H125.014C116.051 -7.61816 108.94 -3.41717 102.159 0.622509L102.158 0.622588C95.4218 4.64093 88.483 8.73372 79.7952 8.73372C71.1076 8.73372 64.1986 4.64111 57.4317 0.622342L57.4316 0.622265L57.4264 0.619195C50.6172 -3.41912 43.5371 -7.61816 34.5767 -7.61816C25.614 -7.61816 18.5033 -3.41717 11.7214 0.622508L11.721 0.622765C8.11874 2.7782 4.41597 4.95216 0.482269 6.50802L0.257479 6.59693L0.338783 6.82458L0.486363 7.23781L0.573102 7.48068L0.813159 7.38643C4.81966 5.81351 8.58516 3.58914 12.2131 1.43599L12.2131 1.43595C18.98 -2.58281 25.889 -6.67542 34.5767 -6.67542C43.2644 -6.67542 50.1734 -2.58281 56.9402 1.43595Z" fill="#CE091D" stroke="#CE091D" stroke-width="0.5"/>
<path d="M56.9402 -1.54549L56.9404 -1.54541L56.9455 -1.54234C63.7547 2.49598 70.8348 6.69501 79.7952 6.69501C88.7557 6.69501 95.8358 2.49598 102.645 -1.54234L102.65 -1.54541L102.651 -1.54574C109.387 -5.56409 116.326 -9.65687 125.014 -9.65687H125.264V-9.90687V-10.3496V-10.5996H125.014C116.051 -10.5996 108.94 -6.39861 102.159 -2.35893L102.158 -2.35886C95.4218 1.65949 88.483 5.75228 79.7952 5.75228C71.1076 5.75228 64.1986 1.65967 57.4317 -2.3591L57.4316 -2.35918L57.4264 -2.36225C50.6172 -6.40057 43.5371 -10.5996 34.5767 -10.5996C25.614 -10.5996 18.5033 -6.39861 11.7214 -2.35894L11.721 -2.35868C8.11874 -0.203243 4.41597 1.97071 0.482269 3.52658L0.257479 3.61549L0.338783 3.84314L0.486363 4.25637L0.573102 4.49923L0.813159 4.40499C4.81966 2.83207 8.58516 0.607694 12.2131 -1.54545L12.2131 -1.54549C18.98 -5.56426 25.889 -9.65687 34.5767 -9.65687C43.2644 -9.65687 50.1734 -5.56426 56.9402 -1.54549Z" fill="#CE091D" stroke="#CE091D" stroke-width="0.5"/>
<path d="M56.9402 -4.49666L56.9404 -4.49659L56.9455 -4.49352C63.7547 -0.455195 70.8348 3.74384 79.7952 3.74384C88.656 3.74384 95.6785 -0.39136 102.417 -4.35911L102.649 -4.49617L102.651 -4.49691C109.387 -8.51526 116.326 -12.608 125.014 -12.608H125.264V-12.858V-13.3008V-13.5508H125.014C116.051 -13.5508 108.94 -9.34978 102.159 -5.31011L102.158 -5.31003C95.4218 -1.29168 88.483 2.8011 79.7952 2.8011C71.1308 2.8011 64.2064 -1.29889 57.4853 -5.27854L57.4316 -5.31035L57.4314 -5.31044L57.4264 -5.31342C50.6172 -9.35174 43.5371 -13.5508 34.5767 -13.5508C25.614 -13.5508 18.5033 -9.34978 11.7214 -5.31011L11.721 -5.30985C8.11874 -3.15442 4.41597 -0.980458 0.482269 0.575409L0.251983 0.666492L0.340882 0.89763L0.488462 1.28134L0.578831 1.5163L0.813159 1.4243C4.72036 -0.109638 8.39893 -2.26345 11.9428 -4.33841C12.0326 -4.39095 12.1222 -4.44343 12.2118 -4.49586L12.2131 -4.49666C18.98 -8.51543 25.889 -12.608 34.5767 -12.608C43.2644 -12.608 50.1734 -8.51543 56.9402 -4.49666Z" fill="#CE091D" stroke="#CE091D" stroke-width="0.5"/>
<path d="M56.9422 48.9574L56.9423 48.9575L56.9475 48.9606C63.7567 52.9989 70.8368 57.198 79.7972 57.198C88.6579 57.198 95.6804 53.0628 102.419 49.095L102.651 48.9579L102.653 48.9572C109.389 44.9388 116.328 40.8461 125.016 40.8461H125.266V40.5961V40.1533V39.9033H125.016C116.053 39.9033 108.942 44.1043 102.16 48.144L102.16 48.1441C95.4237 52.1624 88.4849 56.2552 79.7972 56.2552C71.1095 56.2552 64.2005 52.1626 57.4336 48.1438L57.4335 48.1438L57.4283 48.1407C50.6192 44.1024 43.5391 39.9033 34.5786 39.9033C25.616 39.9033 18.5053 44.1043 11.7234 48.144L11.7229 48.1443C8.1207 50.2997 4.41792 52.4736 0.484222 54.0295L0.259432 54.1184L0.340737 54.3461L0.488317 54.7593L0.575056 55.0022L0.815112 54.9079C4.59385 53.4244 8.15922 51.3346 11.5939 49.3214C11.801 49.2 12.0076 49.0789 12.2137 48.9582L12.2151 48.9574C18.982 44.9387 25.8909 40.8461 34.5786 40.8461C43.2663 40.8461 50.1753 44.9387 56.9422 48.9574Z" fill="#CE091D" stroke="#CE091D" stroke-width="0.5"/>
<path d="M56.9422 45.976L56.9423 45.9761L56.9475 45.9791C63.7566 50.0175 70.8368 54.2165 79.7972 54.2165C88.7576 54.2165 95.8378 50.0175 102.647 45.9791L102.652 45.9761L102.653 45.9757C109.389 41.9574 116.328 37.8646 125.016 37.8646H125.266V37.6146V37.1719V36.9219H125.016C116.053 36.9219 108.942 41.1229 102.16 45.1626L102.16 45.1626C95.4237 49.181 88.4849 53.2738 79.7972 53.2738C71.1095 53.2738 64.2005 49.1812 57.4336 45.1624L57.4335 45.1623L57.4283 45.1592C50.6192 41.1209 43.5391 36.9219 34.5786 36.9219C25.616 36.9219 18.5053 41.1229 11.7234 45.1626L11.7229 45.1628C8.1207 47.3182 4.41792 49.4922 0.484222 51.0481L0.245083 51.1427L0.346386 51.379L0.523482 51.7922L0.618976 52.0151L0.844628 51.9265C4.81653 50.3671 8.52279 48.1674 12.1203 46.0322L12.215 45.976L12.2155 45.9757C18.9521 41.9574 25.8909 37.8646 34.5786 37.8646C43.2663 37.8646 50.1753 41.9572 56.9422 45.976Z" fill="#CE091D" stroke="#CE091D" stroke-width="0.5"/>
<path d="M56.9422 42.9936L56.9423 42.9936L56.9475 42.9967C63.7567 47.035 70.8368 51.2341 79.7972 51.2341C88.7576 51.2341 95.8377 47.035 102.647 42.9967L102.652 42.9936L102.653 42.9933C109.389 38.975 116.328 34.8822 125.016 34.8822H125.266V34.6322V34.1895V33.9395H125.016C116.053 33.9395 108.942 38.1404 102.16 42.1801L102.16 42.1802C95.4237 46.1986 88.4849 50.2913 79.7972 50.2913C71.1095 50.2913 64.1707 46.1986 57.4341 42.1802L57.4335 42.1799L57.4283 42.1768C50.6192 38.1385 43.5391 33.9395 34.5786 33.9395C25.616 33.9395 18.5053 38.1404 11.7234 42.1801L11.7229 42.1804C8.1207 44.3358 4.41792 46.5098 0.484222 48.0656L0.259433 48.1545L0.340736 48.3822L0.488316 48.7954L0.575055 49.0383L0.815112 48.9441C4.82161 47.3711 8.58711 45.1468 12.215 42.9936L12.2151 42.9936C18.982 38.9748 25.8909 34.8822 34.5786 34.8822C43.2663 34.8822 50.1753 38.9748 56.9422 42.9936Z" fill="#CE091D" stroke="#CE091D" stroke-width="0.5"/>
<path d="M56.9422 40.0414L56.9423 40.0415L56.9475 40.0446C63.7567 44.0829 70.8368 48.2819 79.7972 48.2819C88.7576 48.2819 95.8377 44.0829 102.647 40.0446L102.652 40.0415L102.653 40.0412C109.389 36.0228 116.328 31.93 125.016 31.93H125.266V31.68V31.2373V30.9873H125.016C116.053 30.9873 108.942 35.1883 102.16 39.228L102.16 39.2281C95.4237 43.2464 88.4849 47.3392 79.7972 47.3392C71.1095 47.3392 64.1707 43.2464 57.4341 39.2281L57.4335 39.2277L57.4283 39.2247C50.6192 35.1863 43.5391 30.9873 34.5786 30.9873C25.616 30.9873 18.5053 35.1883 11.7234 39.228L11.7229 39.2282C8.1207 41.3837 4.41792 43.5576 0.484222 45.1135L0.259433 45.2024L0.340736 45.43L0.488316 45.8433L0.575055 46.0861L0.815112 45.9919C4.82161 44.419 8.58711 42.1946 12.215 40.0415L12.2151 40.0414C18.982 36.0227 25.8909 31.93 34.5786 31.93C43.2663 31.93 50.1753 36.0227 56.9422 40.0414Z" fill="#CE091D" stroke="#CE091D" stroke-width="0.5"/>
<path d="M56.9422 37.0619L56.9423 37.062L56.9475 37.0651C63.7566 41.1034 70.8368 45.3024 79.7972 45.3024C88.7576 45.3024 95.8378 41.1034 102.647 37.0651L102.652 37.062L102.653 37.0617C109.389 33.0433 116.328 28.9506 125.016 28.9506H125.266V28.7006V28.2578V28.0078H125.016C116.053 28.0078 108.942 32.2088 102.16 36.2485L102.16 36.2486C95.4237 40.2669 88.4849 44.3597 79.7972 44.3597C71.1095 44.3597 64.2005 40.2671 57.4336 36.2483L57.4335 36.2482L57.4283 36.2452C50.6192 32.2069 43.5391 28.0078 34.5786 28.0078C25.616 28.0078 18.5053 32.2088 11.7234 36.2485L11.7229 36.2487C8.1207 38.4042 4.41792 40.5781 0.484222 42.134L0.245083 42.2286L0.346386 42.465L0.523482 42.8782L0.618976 43.101L0.844628 43.0124C4.81652 41.4531 8.52277 39.2534 12.1203 37.1182L12.215 37.062L12.2151 37.0619C18.982 33.0432 25.8909 28.9506 34.5786 28.9506C43.2663 28.9506 50.1753 33.0432 56.9422 37.0619Z" fill="#CE091D" stroke="#CE091D" stroke-width="0.5"/>
<path d="M56.9422 34.1108L56.9423 34.1108L56.9475 34.1139C63.7566 38.1522 70.8368 42.3513 79.7972 42.3513C88.6579 42.3513 95.6804 38.2161 102.419 34.2483L102.651 34.1112L102.653 34.1105C109.389 30.0922 116.328 25.9994 125.016 25.9994H125.266V25.7494V25.3066V25.0566H125.016C116.053 25.0566 108.942 29.2576 102.16 33.2973L102.16 33.2974C95.4237 37.3157 88.4849 41.4085 79.7972 41.4085C71.1095 41.4085 64.2005 37.3159 57.4336 33.2971L57.4335 33.2971L57.4283 33.294C50.6192 29.2557 43.5391 25.0566 34.5786 25.0566C25.616 25.0566 18.5053 29.2576 11.7234 33.2973L11.7229 33.2976C8.1207 35.453 4.41792 37.627 0.484222 39.1828L0.245083 39.2774L0.346386 39.5138L0.523482 39.927L0.618976 40.1498L0.844628 40.0612C4.81652 38.5019 8.52277 36.3022 12.1203 34.167L12.215 34.1108L12.2151 34.1108C18.982 30.092 25.8909 25.9994 34.5786 25.9994C43.2663 25.9994 50.1753 30.092 56.9422 34.1108Z" fill="#CE091D" stroke="#CE091D" stroke-width="0.5"/>
<path d="M12.215 31.1579L12.2151 31.1579C18.982 27.1391 25.8909 23.0465 34.5786 23.0465C43.2332 23.0465 50.1224 27.1078 56.865 31.0828L56.9423 31.1284L56.9429 31.1287L56.9475 31.1315C63.7566 35.1698 70.8368 39.3688 79.7972 39.3688C88.7576 39.3688 95.8377 35.1698 102.647 31.1315L102.652 31.1284L102.653 31.1281C109.389 27.1097 116.328 23.017 125.016 23.017H125.266V22.767V22.3242V22.0742H125.016C116.053 22.0742 108.942 26.2752 102.16 30.3149L102.16 30.315C95.4237 34.3333 88.4849 38.4261 79.7972 38.4261C71.1095 38.4261 64.2005 34.3335 57.4336 30.3147L57.4335 30.3147L57.4283 30.3116C50.6192 26.2733 43.5391 22.0742 34.5786 22.0742C25.616 22.0742 18.5053 26.2752 11.7234 30.3149L11.7229 30.3151C8.1207 32.4706 4.41792 34.6445 0.484222 36.2004L0.250845 36.2927L0.344053 36.5257L0.521149 36.9685L0.613404 37.1991L0.844628 37.1083C4.81652 35.549 8.52278 33.3493 12.1203 31.2141L12.215 31.1579Z" fill="#CE091D" stroke="#CE091D" stroke-width="0.5"/>
<path d="M56.9422 28.1479L56.9423 28.1479L56.9475 28.151C63.7566 32.1893 70.8368 36.3884 79.7972 36.3884C88.7576 36.3884 95.8378 32.1893 102.647 28.151L102.652 28.1479L102.653 28.1476C109.389 24.1293 116.328 20.0365 125.016 20.0365H125.266V19.7865V19.3438V19.0938H125.016C116.053 19.0938 108.942 23.2947 102.16 27.3344L102.16 27.3345C95.4237 31.3528 88.4849 35.4456 79.7972 35.4456C71.1095 35.4456 64.2005 31.353 57.4336 27.3343L57.4335 27.3342L57.4283 27.3311C50.6192 23.2928 43.5391 19.0938 34.5786 19.0938C25.616 19.0938 18.5053 23.2947 11.7234 27.3344L11.7229 27.3347C8.1207 29.4901 4.41792 31.6641 0.484222 33.2199L0.245083 33.3145L0.346386 33.5509L0.523482 33.9641L0.618976 34.1869L0.844628 34.0983C4.81649 32.539 8.52272 30.3393 12.1202 28.2042L12.215 28.1479L12.2151 28.1479C18.982 24.1291 25.8909 20.0365 34.5786 20.0365C43.2663 20.0365 50.1753 24.1291 56.9422 28.1479Z" fill="#CE091D" stroke="#CE091D" stroke-width="0.5"/>
<path d="M56.9422 25.1967L56.9423 25.1968L56.9475 25.1998C63.7566 29.2382 70.8368 33.4372 79.7972 33.4372C88.6579 33.4372 95.6804 29.302 102.419 25.3342L102.651 25.1972L102.653 25.1964C109.389 21.1781 116.328 17.0853 125.016 17.0853H125.266V16.8353V16.3926V16.1426H125.016C116.053 16.1426 108.942 20.3436 102.16 24.3833L102.16 24.3833C95.4237 28.4017 88.4849 32.4945 79.7972 32.4945C71.1095 32.4945 64.2005 28.4019 57.4336 24.3831L57.4335 24.383L57.4283 24.3799C50.6192 20.3416 43.5391 16.1426 34.5786 16.1426C25.616 16.1426 18.5053 20.3436 11.7234 24.3833L11.7229 24.3835C8.1207 26.5389 4.41792 28.7129 0.484222 30.2688L0.245083 30.3633L0.346386 30.5997L0.523482 31.0129L0.618976 31.2358L0.844628 31.1472C4.81649 29.5878 8.52272 27.3882 12.1202 25.253L12.215 25.1967L12.2151 25.1967C18.982 21.1779 25.8909 17.0853 34.5786 17.0853C43.2663 17.0853 50.1753 21.1779 56.9422 25.1967Z" fill="#CE091D" stroke="#CE091D" stroke-width="0.5"/>
<path d="M56.9422 22.2143L56.9423 22.2143L56.9475 22.2174C63.7567 26.2557 70.8368 30.4548 79.7972 30.4548C88.7576 30.4548 95.8377 26.2557 102.647 22.2174L102.652 22.2143L102.653 22.214C109.389 18.1957 116.328 14.1029 125.016 14.1029H125.266V13.8529V13.4102V13.1602H125.016C116.053 13.1602 108.942 17.3612 102.16 21.4008L102.16 21.4009C95.4237 25.4193 88.4849 29.512 79.7972 29.512C71.1095 29.512 64.2005 25.4194 57.4336 21.4007L57.4335 21.4006L57.4283 21.3975C50.6192 17.3592 43.5391 13.1602 34.5786 13.1602C25.616 13.1602 18.5053 17.3612 11.7234 21.4008L11.7229 21.4011C8.1207 23.5565 4.41792 25.7305 0.484222 27.2863L0.245083 27.3809L0.346386 27.6173L0.523482 28.0305L0.618976 28.2533L0.844628 28.1647C4.81652 26.6054 8.52278 24.4057 12.1203 22.2705L12.215 22.2143L12.2155 22.214C18.9521 18.1957 25.8909 14.1029 34.5786 14.1029C43.2663 14.1029 50.1753 18.1955 56.9422 22.2143Z" fill="#CE091D" stroke="#CE091D" stroke-width="0.5"/>
<path d="M56.9422 19.2338L56.9423 19.2339L56.9475 19.237C63.7566 23.2753 70.8368 27.4743 79.7972 27.4743C88.7576 27.4743 95.8377 23.2753 102.647 19.237L102.652 19.2339L102.653 19.2336C109.389 15.2152 116.328 11.1224 125.016 11.1224H125.266V10.8724V10.4297V10.1797H125.016C116.053 10.1797 108.942 14.3807 102.16 18.4204L102.16 18.4204C95.4237 22.4388 88.4849 26.5316 79.7972 26.5316C71.1095 26.5316 64.2005 22.439 57.4336 18.4202L57.4335 18.4201L57.4283 18.417C50.6192 14.3787 43.5391 10.1797 34.5786 10.1797C25.616 10.1797 18.5053 14.3807 11.7234 18.4204L11.7229 18.4206C8.1207 20.5761 4.41792 22.75 0.484222 24.3059L0.259433 24.3948L0.340736 24.6224L0.488316 25.0357L0.575055 25.2785L0.815112 25.1843C4.82161 23.6114 8.58711 21.387 12.215 19.2338L12.2155 19.2336C18.9521 15.2152 25.8909 11.1224 34.5786 11.1224C43.2663 11.1224 50.1753 15.215 56.9422 19.2338Z" fill="#CE091D" stroke="#CE091D" stroke-width="0.5"/>
<path d="M56.9422 16.2817L56.9423 16.2817L56.9475 16.2848C63.7566 20.3231 70.8368 24.5222 79.7972 24.5222C88.7576 24.5222 95.8377 20.3231 102.647 16.2848L102.652 16.2817L102.653 16.2814C109.389 12.2631 116.328 8.17028 125.016 8.17028H125.266V7.92028V7.47754V7.22754H125.016C116.053 7.22754 108.942 11.4285 102.16 15.4682L102.16 15.4683C95.4237 19.4866 88.4849 23.5794 79.7972 23.5794C71.1095 23.5794 64.2005 19.4868 57.4336 15.468L57.4335 15.468L57.4283 15.4649C50.6192 11.4266 43.5391 7.22754 34.5786 7.22754C25.616 7.22754 18.5053 11.4285 11.7234 15.4682L11.7229 15.4685C8.1207 17.6239 4.41792 19.7979 0.484222 21.3537L0.259433 21.4426L0.340736 21.6703L0.488316 22.0835L0.575055 22.3264L0.815112 22.2321C4.82161 20.6592 8.58711 18.4348 12.215 16.2817L12.2155 16.2814C18.9521 12.2631 25.8909 8.17028 34.5786 8.17028C43.2663 8.17028 50.1753 12.2629 56.9422 16.2817Z" fill="#CE091D" stroke="#CE091D" stroke-width="0.5"/>
<path d="M56.9422 13.3022L56.9423 13.3022L56.9475 13.3053C63.7566 17.3436 70.8368 21.5427 79.7972 21.5427C88.7576 21.5427 95.8378 17.3436 102.647 13.3053L102.652 13.3022L102.653 13.3019C109.389 9.28357 116.328 5.19079 125.016 5.19079H125.266V4.94079V4.49805V4.24805H125.016C116.053 4.24805 108.942 8.44905 102.16 12.4887L102.16 12.4888C95.4237 16.5071 88.4849 20.5999 79.7972 20.5999C71.1095 20.5999 64.2005 16.5073 57.4336 12.4886L57.4335 12.4885L57.4283 12.4854C50.6192 8.44709 43.5391 4.24805 34.5786 4.24805C25.616 4.24805 18.5053 8.44905 11.7234 12.4887L11.7229 12.489C8.1207 14.6444 4.41792 16.8184 0.484222 18.3742L0.245083 18.4688L0.346386 18.7052L0.523482 19.1184L0.618976 19.3412L0.844628 19.2526C4.81652 17.6933 8.52277 15.4936 12.1203 13.3584L12.215 13.3022L12.2151 13.3022C18.982 9.2834 25.8909 5.19079 34.5786 5.19079C43.2663 5.19079 50.1753 9.2834 56.9422 13.3022Z" fill="#CE091D" stroke="#CE091D" stroke-width="0.5"/>
<path d="M56.9422 10.349L56.9423 10.3491L56.9475 10.3522C63.7566 14.3905 70.8368 18.5895 79.7972 18.5895C88.6579 18.5895 95.6804 14.4543 102.419 10.4866L102.651 10.3495L102.653 10.3488C109.389 6.33044 116.328 2.23766 125.016 2.23766H125.266V1.98766V1.54492V1.29492H125.016C116.053 1.29492 108.942 5.49592 102.16 9.5356L102.16 9.53567C95.4237 13.554 88.4849 17.6468 79.7972 17.6468C71.1095 17.6468 64.2005 13.5542 57.4336 9.53543L57.4335 9.53535L57.4283 9.53228C50.6192 5.49396 43.5391 1.29492 34.5786 1.29492C25.616 1.29492 18.5053 5.49592 11.7234 9.53559L11.7229 9.53585C8.1207 11.6913 4.41792 13.8652 0.484222 15.4211L0.245083 15.5157L0.346386 15.7521L0.523482 16.1653L0.618976 16.3881L0.844628 16.2995C4.8165 14.7402 8.52274 12.5405 12.1203 10.4053L12.215 10.3491L12.2155 10.3488C18.9521 6.33044 25.8909 2.23766 34.5786 2.23766C43.2663 2.23766 50.1753 6.33027 56.9422 10.349Z" fill="#CE091D" stroke="#CE091D" stroke-width="0.5"/>
<path d="M56.9422 7.36955L56.9423 7.36962L56.9475 7.3727C63.7566 11.411 70.8368 15.6101 79.7972 15.6101C88.7576 15.6101 95.8377 11.411 102.647 7.3727L102.652 7.36962L102.653 7.3693C109.389 3.35095 116.328 -0.74183 125.016 -0.74183H125.266V-0.99183V-1.43457V-1.68457H125.016C116.053 -1.68457 108.942 2.51643 102.16 6.5561L102.16 6.55618C95.4237 10.5745 88.4849 14.6673 79.7972 14.6673C71.1095 14.6673 64.2005 10.5747 57.4336 6.55594L57.4335 6.55586L57.4283 6.55279C50.6192 2.51447 43.5391 -1.68457 34.5786 -1.68457C25.616 -1.68457 18.5053 2.51643 11.7234 6.5561L11.7229 6.55636C8.1207 8.71179 4.41792 10.8858 0.484222 12.4416L0.245084 12.5362L0.346385 12.7726L0.523482 13.1858L0.618975 13.4086L0.844628 13.32C4.81649 11.7607 8.52272 9.56101 12.1202 7.42584L12.215 7.36958L12.2151 7.36955C18.982 3.35078 25.8909 -0.74183 34.5786 -0.74183C43.2663 -0.74183 50.1753 3.35078 56.9422 7.36955Z" fill="#CE091D" stroke="#CE091D" stroke-width="0.5"/>
<path d="M56.9422 4.3881L56.9423 4.38818L56.9475 4.39125C63.7566 8.42957 70.8368 12.6286 79.7972 12.6286C88.7576 12.6286 95.8378 8.42957 102.647 4.39125L102.652 4.38818L102.653 4.38785C109.389 0.369507 116.328 -3.72328 125.016 -3.72328H125.266V-3.97328V-4.41602V-4.66602H125.016C116.053 -4.66602 108.942 -0.465019 102.16 3.57466L102.16 3.57474C95.4237 7.59308 88.4849 11.6859 79.7972 11.6859C71.1095 11.6859 64.2005 7.59326 57.4336 3.57449L57.4335 3.57441L57.4283 3.57135C50.6192 -0.466974 43.5391 -4.66602 34.5786 -4.66602C25.616 -4.66602 18.5053 -0.465019 11.7234 3.57466L11.7229 3.57491C8.1207 5.73035 4.41792 7.9043 0.484222 9.46017L0.259433 9.54908L0.340736 9.77673L0.488317 10.19L0.575055 10.4328L0.815112 10.3386C4.72232 8.80464 8.40088 6.65083 11.9448 4.57587C12.0345 4.52333 12.1242 4.47085 12.2137 4.41842L12.2137 4.41843L12.2155 4.41737C18.9529 0.398584 25.8912 -3.72328 34.5786 -3.72328C43.2663 -3.72328 50.1753 0.369334 56.9422 4.3881Z" fill="#CE091D" stroke="#CE091D" stroke-width="0.5"/>
<path d="M56.9422 1.43693L56.9423 1.43701L56.9475 1.44008C63.7566 5.4784 70.8368 9.67743 79.7972 9.67743C88.7576 9.67743 95.8378 5.4784 102.647 1.44008L102.652 1.43701L102.653 1.43668C109.389 -2.58166 116.328 -6.67445 125.016 -6.67445H125.266V-6.92445V-7.36719V-7.61719H125.016C116.053 -7.61719 108.942 -3.41619 102.16 0.623485L102.16 0.623564C95.4237 4.64191 88.4849 8.73469 79.7972 8.73469C71.1095 8.73469 64.2005 4.64209 57.4336 0.623318L57.4335 0.623242L57.4283 0.620172C50.6192 -3.41815 43.5391 -7.61719 34.5786 -7.61719C25.616 -7.61719 18.5053 -3.41619 11.7234 0.623485L11.7229 0.623741C8.1207 2.77918 4.41792 4.95313 0.484222 6.509L0.259432 6.59791L0.340736 6.82556L0.488317 7.23878L0.575056 7.48165L0.815112 7.38741C4.82161 5.81449 8.58711 3.59011 12.215 1.43697L12.2151 1.43693C18.982 -2.58184 25.8909 -6.67445 34.5786 -6.67445C43.2663 -6.67445 50.1753 -2.58184 56.9422 1.43693Z" fill="#CE091D" stroke="#CE091D" stroke-width="0.5"/>
<path d="M56.9422 -1.54451L56.9423 -1.54444L56.9475 -1.54137C63.7566 2.49695 70.8368 6.69599 79.7972 6.69599C88.7576 6.69599 95.8378 2.49695 102.647 -1.54137L102.652 -1.54444L102.653 -1.54476C109.389 -5.56311 116.328 -9.65589 125.016 -9.65589H125.266V-9.90589V-10.3486V-10.5986H125.016C116.053 -10.5986 108.942 -6.39763 102.16 -2.35796L102.16 -2.35788C95.4237 1.66047 88.4849 5.75325 79.7972 5.75325C71.1095 5.75325 64.2005 1.66064 57.4336 -2.35813L57.4335 -2.3582L57.4283 -2.36127C50.6192 -6.39959 43.5391 -10.5986 34.5786 -10.5986C25.616 -10.5986 18.5053 -6.39763 11.7234 -2.35796L11.7229 -2.3577C8.1207 -0.202267 4.41792 1.97169 0.484222 3.52756L0.259432 3.61647L0.340736 3.84412L0.488317 4.25734L0.575056 4.50021L0.815112 4.40597C4.82161 2.83304 8.58711 0.60867 12.215 -1.54448L12.2151 -1.54451C18.982 -5.56328 25.8909 -9.65589 34.5786 -9.65589C43.2663 -9.65589 50.1753 -5.56328 56.9422 -1.54451Z" fill="#CE091D" stroke="#CE091D" stroke-width="0.5"/>
<path d="M56.9422 -4.49569L56.9423 -4.49561L56.9475 -4.49254C63.7566 -0.454219 70.8368 3.74482 79.7972 3.74482C88.6579 3.74482 95.6804 -0.390384 102.419 -4.35814L102.651 -4.4952L102.653 -4.49593C109.389 -8.51428 116.328 -12.6071 125.016 -12.6071H125.266V-12.8571V-13.2998V-13.5498H125.016C116.053 -13.5498 108.942 -9.34881 102.16 -5.30913L102.16 -5.30905C95.4237 -1.2907 88.4849 2.80208 79.7972 2.80208C71.1327 2.80208 64.2084 -1.29792 57.4872 -5.27756L57.4335 -5.30937L57.4334 -5.30946L57.4283 -5.31244C50.6192 -9.35076 43.5391 -13.5498 34.5786 -13.5498C25.616 -13.5498 18.5053 -9.34881 11.7234 -5.30913L11.7229 -5.30887C8.1207 -3.15344 4.41792 -0.979482 0.484222 0.576385L0.253936 0.667469L0.342835 0.898606L0.490416 1.28232L0.580784 1.51727L0.815112 1.42528C4.72232 -0.108662 8.40088 -2.26247 11.9448 -4.33743C12.0345 -4.38997 12.1242 -4.44246 12.2137 -4.49488L12.2151 -4.49569C18.982 -8.51445 25.8909 -12.6071 34.5786 -12.6071C43.2663 -12.6071 50.1753 -8.51445 56.9422 -4.49569Z" fill="#CE091D" stroke="#CE091D" stroke-width="0.5"/>
</g>
<circle cx="67.9922" cy="21.4941" r="10.5" fill="white"/>
<g clip-path="url(#clip0)">
<path d="M68.0078 10.9941C62.2184 10.9941 57.5078 15.7047 57.5078 21.4941C57.5078 27.2836 62.2184 31.9941 68.0078 31.9941C73.7972 31.9941 78.5078 27.2836 78.5078 21.4941C78.5078 15.7047 73.7972 10.9941 68.0078 10.9941ZM68.6746 14.4053L71.3744 12.9537C72.8693 13.5456 74.1739 14.5156 75.1662 15.7493L74.5231 18.7182L72.4638 19.7275L68.6746 16.9673V14.4053ZM64.6636 12.9458L67.3634 14.4027V16.9673L63.5768 19.7275L61.507 18.7169L60.8639 15.7296C61.8587 14.4985 63.166 13.5338 64.6636 12.9458ZM60.4347 26.6838C59.5776 25.4369 59.0198 23.9708 58.8662 22.3866L61.0883 19.973L63.1148 20.9639L64.6413 25.2991L63.3511 26.8452L60.4347 26.6838ZM70.348 30.368C69.5986 30.5661 68.8176 30.6816 68.0078 30.6816C67.0287 30.6816 66.0863 30.5241 65.2004 30.2393L64.3748 27.6695L65.6912 26.0879H70.3296L71.6224 27.6183L70.348 30.368ZM72.6462 26.8006L71.377 25.2978L72.9244 20.9639L74.9417 19.9756L77.1507 22.388C77.0181 23.7543 76.5784 25.0287 75.9104 26.1561L72.6462 26.8006Z" fill="#CE091D"/>
</g>
<defs>
<clipPath id="clip0">
<rect width="21" height="21" fill="white" transform="translate(57.5078 10.9941)"/>
</clipPath>
</defs>
</svg>
