<svg width="24" height="24" viewBox="0 0 24 24" fill="none" xmlns="http://www.w3.org/2000/svg">
<g clip-path="url(#clip0)">
<path d="M12.4688 19.0312C12.4688 19.2902 12.2589 19.5 12 19.5C11.7411 19.5 11.5312 19.2902 11.5312 19.0312C11.5312 18.7723 11.7411 18.5625 12 18.5625C12.2589 18.5625 12.4688 18.7723 12.4688 19.0312Z" fill="#154D80"/>
<path d="M22.4531 14.8125C22.4531 13.2616 21.1915 12 19.6406 12C18.0897 12 16.8281 13.2616 16.8281 14.8125C16.8281 16.3634 18.0897 17.625 19.6406 17.625C21.1915 17.625 22.4531 16.3634 22.4531 14.8125ZM19.6406 16.6875C18.6068 16.6875 17.7656 15.8463 17.7656 14.8125C17.7656 13.7787 18.6068 12.9375 19.6406 12.9375C20.6744 12.9375 21.5156 13.7787 21.5156 14.8125C21.5156 15.8463 20.6744 16.6875 19.6406 16.6875Z" fill="#154D80"/>
<path d="M19.6406 17.625C18.4594 17.625 17.2815 18.1154 16.4791 18.9104C15.423 17.5225 13.7944 16.6875 12 16.6875C10.2816 16.6875 8.61639 17.4716 7.52106 18.9104C6.71851 18.1155 5.54077 17.625 4.35938 17.625C1.9964 17.625 0 19.5569 0 21.8438V22.7812C0 23.0402 0.209839 23.25 0.46875 23.25H23.5312C23.7902 23.25 24 23.0402 24 22.7812V21.8438C24 19.5569 22.0036 17.625 19.6406 17.625ZM0.9375 21.8438C0.9375 20.0651 2.50452 18.5625 4.35938 18.5625C5.37433 18.5625 6.38086 19.0122 7.00397 19.7271C6.59198 20.5228 6.375 21.4098 6.375 22.3125H0.9375V21.8438ZM12 17.625C14.6083 17.625 16.6875 19.7413 16.6875 22.3125H7.3125C7.3125 19.7071 9.43414 17.625 12 17.625ZM23.0625 22.3125H17.625C17.625 21.4098 17.408 20.5228 16.996 19.7271C17.6191 19.0122 18.6257 18.5625 19.6406 18.5625C21.4955 18.5625 23.0625 20.0651 23.0625 21.8438V22.3125Z" fill="#154D80"/>
<path d="M7.17188 14.8125C7.17188 13.2616 5.91028 12 4.35938 12C2.80847 12 1.54688 13.2616 1.54688 14.8125C1.54688 16.3634 2.80847 17.625 4.35938 17.625C5.91028 17.625 7.17188 16.3634 7.17188 14.8125ZM4.35938 16.6875C3.32556 16.6875 2.48438 15.8463 2.48438 14.8125C2.48438 13.7787 3.32556 12.9375 4.35938 12.9375C5.39319 12.9375 6.23438 13.7787 6.23438 14.8125C6.23438 15.8463 5.39319 16.6875 4.35938 16.6875Z" fill="#154D80"/>
<path d="M15.75 12.9375C15.75 10.8697 14.0678 9.1875 12 9.1875C9.93219 9.1875 8.25 10.8697 8.25 12.9375C8.25 15.0053 9.93219 16.6875 12 16.6875C14.0678 16.6875 15.75 15.0053 15.75 12.9375ZM12 15.75C10.4491 15.75 9.1875 14.4884 9.1875 12.9375C9.1875 11.3866 10.4491 10.125 12 10.125C13.5509 10.125 14.8125 11.3866 14.8125 12.9375C14.8125 14.4884 13.5509 15.75 12 15.75Z" fill="#154D80"/>
<path d="M15.7105 3.47626C15.6554 3.30652 15.5087 3.18292 15.332 3.15729L13.3101 2.86377L12.4049 1.01294C12.3263 0.85199 12.163 0.75 11.9839 0.75C11.8048 0.75 11.6415 0.85199 11.5627 1.01276L10.6577 2.86377L8.6358 3.1571C8.4591 3.18274 8.31244 3.30652 8.25732 3.47626C8.20221 3.646 8.24817 3.83221 8.37597 3.95673L9.84009 5.38367L9.49457 7.39874C9.46436 7.57452 9.53668 7.75232 9.68115 7.85706C9.82471 7.96143 10.0159 7.97626 10.1748 7.89276L11.9839 6.94153L13.7937 7.89276C13.9515 7.97589 14.1429 7.96198 14.2874 7.85706C14.4317 7.75214 14.504 7.57452 14.4738 7.39856L14.1279 5.38367L15.5918 3.95673C15.7196 3.83221 15.7656 3.646 15.7105 3.47626ZM13.2968 4.88434C13.1863 4.992 13.1358 5.14728 13.162 5.29926L13.3889 6.62109L12.202 5.99707C12.0654 5.92529 11.9022 5.92529 11.7656 5.99707L10.5791 6.62109L10.8058 5.29926C10.8318 5.14709 10.7813 4.992 10.6708 4.88434L9.71063 3.94849L11.0372 3.75586C11.1907 3.7337 11.3231 3.63702 11.391 3.49786L11.9839 2.28571L12.5766 3.49786C12.6447 3.63721 12.7771 3.7337 12.9304 3.75586L14.2572 3.94849L13.2968 4.88434Z" fill="#154D80"/>
<path d="M22.7165 6.9895C22.6614 6.81976 22.5147 6.69617 22.338 6.67053L20.9682 6.4715L20.3557 5.23004C20.2768 5.07001 20.114 4.96875 19.9355 4.96875C19.9355 4.96875 19.9355 4.96875 19.9353 4.96875C19.757 4.96875 19.594 5.07001 19.5151 5.23004L18.9022 6.4715L17.5322 6.67053C17.3557 6.69617 17.209 6.81976 17.1539 6.9895C17.0986 7.15924 17.1446 7.34546 17.2724 7.46997L18.2635 8.43658L18.0295 9.80072C17.9995 9.9765 18.0716 10.1541 18.2161 10.259C18.3604 10.364 18.5517 10.3779 18.7096 10.2949L19.9353 9.65094L21.1606 10.2949C21.3185 10.3779 21.51 10.364 21.6543 10.259C21.7986 10.1543 21.8707 9.9765 21.8407 9.80072L21.6067 8.43658L22.598 7.46997C22.7258 7.34546 22.7716 7.15924 22.7165 6.9895ZM20.7759 7.93744C20.6653 8.0451 20.615 8.2002 20.6412 8.35217L20.7562 9.02307L20.1536 8.70648C20.017 8.6347 19.8538 8.6347 19.7174 8.70648L19.1143 9.02325L19.2294 8.35217C19.2554 8.2002 19.2051 8.0451 19.0947 7.93744L18.6069 7.46173L19.2809 7.36395C19.4336 7.3418 19.5656 7.24585 19.6339 7.1076L19.9353 6.49695L20.2365 7.10742C20.3048 7.24585 20.4368 7.3418 20.5895 7.36395L21.2635 7.46173L20.7759 7.93744Z" fill="#154D80"/>
<path d="M6.77899 6.9895C6.72388 6.81976 6.57721 6.69617 6.40051 6.67053L5.0307 6.4715L4.41821 5.23004C4.33929 5.07001 4.17651 4.96875 3.99798 4.96875C3.81945 4.96875 3.65649 5.07001 3.57757 5.23004L2.96471 6.4715L1.59472 6.67053C1.4182 6.69617 1.27153 6.81976 1.21642 6.9895C1.16112 7.15924 1.20708 7.34546 1.33489 7.46997L2.32604 8.43658L2.09222 9.80072C2.062 9.9765 2.13433 10.1541 2.27862 10.259C2.4229 10.364 2.61425 10.3779 2.77227 10.2949L3.9978 9.65094L5.22314 10.2949C5.38208 10.3784 5.57324 10.3634 5.71679 10.259C5.86108 10.1543 5.93341 9.9765 5.9032 9.80072L5.66919 8.43658L6.66052 7.46997C6.78833 7.34546 6.83411 7.15924 6.77899 6.9895ZM4.83825 7.93744C4.72784 8.04511 4.67749 8.2002 4.70349 8.35217L4.81866 9.02307L4.21588 8.70648C4.07946 8.6347 3.91631 8.6347 3.7799 8.70648L3.17657 9.02325L3.29174 8.35217C3.31793 8.2002 3.26739 8.04511 3.15698 7.93744L2.66918 7.46173L3.34338 7.36395C3.4959 7.3418 3.62792 7.24585 3.69622 7.10761L3.99761 6.49695L4.29882 7.10742C4.36712 7.24585 4.49914 7.3418 4.65185 7.36395L5.32586 7.46173L4.83825 7.93744Z" fill="#154D80"/>
<path d="M14.0543 19.1757C13.8379 19.0335 13.5473 19.0937 13.4052 19.3101C13.263 19.5264 13.3232 19.817 13.5396 19.9592C13.973 20.244 14.3195 20.6409 14.5414 21.1071C14.6524 21.3406 14.9318 21.4404 15.166 21.3289C15.3998 21.2177 15.499 20.9379 15.3879 20.7043C15.0924 20.0832 14.6311 19.5546 14.0543 19.1757Z" fill="#154D80"/>
</g>
<defs>
<clipPath id="clip0">
<rect width="24" height="24" fill="white"/>
</clipPath>
</defs>
</svg>
