<svg width="24" height="20" viewBox="0 0 24 20" fill="none" xmlns="http://www.w3.org/2000/svg">
<path d="M23.8494 7.02331L23.2243 5.94049C23.0948 5.71634 22.8083 5.63951 22.584 5.76893C22.3598 5.89835 22.2829 6.18502 22.4124 6.40922L23.0376 7.49205C23.0706 7.54914 23.0632 7.60351 23.0559 7.63084C23.0486 7.65817 23.0277 7.70898 22.9706 7.74193L21.3175 8.69637C21.23 8.74671 21.118 8.71667 21.0676 8.62939L17.7419 2.86928C17.6914 2.78191 17.7215 2.66979 17.8089 2.61931L19.4619 1.66492C19.5493 1.61457 19.6615 1.64448 19.7119 1.73185L20.3031 2.7558C20.4326 2.98005 20.7192 3.05687 20.9434 2.92736C21.1676 2.79794 21.2444 2.51126 21.1149 2.28707L20.5238 1.26312C20.2149 0.728149 19.5284 0.544076 18.9933 0.85302L17.3401 1.80746C17.089 1.95249 16.9152 2.18071 16.8334 2.43739H12.147C11.489 2.43739 10.8705 2.6936 10.4051 3.15887L9.92496 3.63904C9.50395 3.53869 9.07262 3.48708 8.63885 3.48708H7.18371C7.11101 3.20626 6.9304 2.95352 6.65994 2.79733L5.00681 1.84289C4.7476 1.69323 4.44554 1.65353 4.15657 1.73096C3.8675 1.8084 3.62586 1.99383 3.47624 2.25299L0.150613 8.01314C0.000993102 8.2723 -0.0388025 8.57426 0.0386325 8.86338C0.116068 9.1525 0.301499 9.39408 0.56071 9.5437L2.21385 10.4981C2.38986 10.5998 2.58218 10.648 2.77216 10.648C2.84139 10.648 2.91025 10.6413 2.97793 10.6288L4.33098 11.9819C4.31027 12.0882 4.29953 12.1973 4.29953 12.3081C4.29953 12.7585 4.47493 13.182 4.79344 13.5005C5.0984 13.8054 5.49204 13.9687 5.89211 13.9907C5.88597 14.0495 5.88264 14.1089 5.88264 14.1688C5.88264 14.6192 6.05804 15.0427 6.37654 15.3611C6.69505 15.6796 7.11851 15.855 7.56891 15.855C7.58115 15.855 7.59324 15.8544 7.60543 15.8541C7.60515 15.8663 7.60454 15.8784 7.60454 15.8907C7.60454 16.3411 7.77994 16.7646 8.09844 17.083C8.41695 17.4015 8.84041 17.5769 9.29081 17.5769C9.30305 17.5769 9.31514 17.5763 9.32733 17.576C9.32705 17.5882 9.32644 17.6003 9.32644 17.6126C9.32644 18.063 9.50184 18.4865 9.82034 18.8049C10.1388 19.1234 10.5623 19.2988 11.0127 19.2988C11.4631 19.2988 11.8866 19.1234 12.2051 18.8049L12.8719 18.1382C13.0674 17.9426 13.2043 17.7105 13.2835 17.4638C13.5798 17.6824 13.9318 17.7918 14.284 17.7917C14.7157 17.7917 15.1477 17.6273 15.4763 17.2986C15.673 17.1019 15.8149 16.8652 15.8949 16.6068C16.1662 16.7843 16.4832 16.8797 16.815 16.8797C17.2654 16.8797 17.6889 16.7043 18.0073 16.3858C18.244 16.1491 18.4015 15.8544 18.4669 15.5338C18.6362 15.5899 18.815 15.6194 18.9986 15.6194C19.449 15.6194 19.8725 15.444 20.191 15.1255C20.8484 14.468 20.8484 13.3982 20.191 12.7407L19.0969 11.6467L21.0939 9.64973C21.1382 9.65503 21.1829 9.65803 21.2278 9.65803C21.4177 9.65803 21.6101 9.60975 21.7861 9.50817L23.4392 8.55378C23.6984 8.40411 23.8838 8.16253 23.9613 7.87341C24.0388 7.58429 23.999 7.28247 23.8494 7.02331ZM1.0294 8.73185C0.972307 8.6989 0.951495 8.64814 0.944182 8.62076C0.93687 8.59343 0.929511 8.53906 0.96251 8.48192L4.28814 2.72173C4.32109 2.66463 4.3719 2.64382 4.39923 2.63651C4.4109 2.63342 4.4275 2.63028 4.44709 2.63028C4.47348 2.63028 4.50531 2.63595 4.53802 2.65479L6.19116 3.60923C6.27848 3.65967 6.30858 3.77179 6.25814 3.85916L2.93251 9.61931C2.88203 9.70663 2.77 9.73673 2.68258 9.68629L1.0294 8.73185ZM5.237 12.3081C5.237 12.108 5.31491 11.92 5.45637 11.7785L5.86089 11.374C6.00685 11.228 6.19861 11.155 6.39042 11.155C6.58213 11.155 6.77394 11.2281 6.9199 11.374C7.06137 11.5155 7.13927 11.7035 7.13927 11.9035C7.13927 12.1035 7.06137 12.2916 6.9199 12.433L6.51538 12.8375C6.22341 13.1295 5.74834 13.1295 5.45637 12.8375C5.31491 12.6961 5.237 12.5081 5.237 12.3081ZM7.56896 14.9176C7.3689 14.9176 7.18089 14.8397 7.03948 14.6982C6.89801 14.5568 6.82011 14.3688 6.82011 14.1688C6.82011 13.9688 6.89801 13.7807 7.03948 13.6393L7.70625 12.9725C7.85222 12.8265 8.04398 12.7536 8.23574 12.7536C8.42754 12.7536 8.6193 12.8265 8.76527 12.9725C8.90673 13.1139 8.98463 13.302 8.98463 13.502C8.98463 13.702 8.90673 13.89 8.76527 14.0315L8.09849 14.6982C7.95703 14.8397 7.76897 14.9176 7.56896 14.9176ZM9.29086 16.6395C9.0908 16.6395 8.90279 16.5616 8.76138 16.4202C8.61991 16.2788 8.54201 16.0907 8.54201 15.8907C8.54201 15.6907 8.61991 15.5026 8.76138 15.3612L9.42815 14.6944C9.57412 14.5484 9.76588 14.4755 9.95764 14.4755C10.1494 14.4755 10.3412 14.5484 10.4872 14.6944C10.6286 14.8359 10.7065 15.0239 10.7065 15.2239C10.7065 15.4239 10.6286 15.612 10.4872 15.7534L9.82039 16.4202C9.67897 16.5616 9.49092 16.6395 9.29086 16.6395ZM12.2091 17.4753L11.5422 18.1421C11.4008 18.2836 11.2128 18.3615 11.0128 18.3615C10.8127 18.3615 10.6247 18.2836 10.4833 18.1421C10.3418 18.0007 10.2639 17.8127 10.2639 17.6127C10.2639 17.4126 10.3418 17.2246 10.4833 17.0831L11.1501 16.4163C11.296 16.2703 11.4878 16.1974 11.6796 16.1974C11.8713 16.1974 12.0631 16.2704 12.2091 16.4163C12.501 16.7082 12.501 17.1833 12.2091 17.4753ZM19.5282 14.4627C19.3867 14.6042 19.1987 14.6821 18.9986 14.6821C18.7986 14.6821 18.6106 14.6042 18.4692 14.4627L13.9951 9.98863C13.812 9.80563 13.5153 9.80558 13.3322 9.98863C13.1491 10.1717 13.1491 10.4685 13.3322 10.6515L17.3445 14.6639C17.486 14.8053 17.5639 14.9934 17.5639 15.1934C17.5639 15.3934 17.486 15.5815 17.3445 15.7229C17.2031 15.8644 17.0151 15.9423 16.815 15.9423C16.615 15.9423 16.427 15.8644 16.2856 15.7229L11.4641 10.9015C11.2811 10.7185 10.9843 10.7185 10.8012 10.9015C10.6181 11.0845 10.6181 11.3813 10.8012 11.5644L14.8135 15.5768C14.955 15.7182 15.0329 15.9063 15.0329 16.1063C15.0329 16.3063 14.955 16.4943 14.8135 16.6358C14.5216 16.9277 14.0466 16.9278 13.7545 16.6358L12.8721 15.7533C12.8709 15.7521 12.8695 15.7511 12.8683 15.7499C12.5307 15.4143 12.0854 15.2517 11.6431 15.2612C11.6434 15.2488 11.644 15.2364 11.644 15.2239C11.644 14.7735 11.4686 14.35 11.1501 14.0315C10.8121 13.6935 10.3651 13.5298 9.92117 13.5393C9.92145 13.5269 9.92206 13.5145 9.92206 13.502C9.92206 13.0516 9.74666 12.6281 9.42815 12.3096C9.05851 11.94 8.55851 11.7782 8.07477 11.8242C8.05541 11.4036 7.8825 11.0109 7.58279 10.7112C6.92529 10.0537 5.85545 10.0538 5.19796 10.7112L4.79344 11.1157C4.79297 11.1162 4.7925 11.1167 4.79203 11.1172L3.75116 10.0763L7.01416 4.42455H8.6388C8.79799 4.42455 8.95675 4.43299 9.11462 4.44939L8.5788 4.9852C8.2603 5.30371 8.0849 5.72721 8.0849 6.17762C8.0849 6.62807 8.2603 7.05153 8.5788 7.37004C8.90757 7.69876 9.33942 7.86314 9.77117 7.86314C10.203 7.86314 10.6349 7.69881 10.9636 7.37004L12.229 6.10464L19.5281 13.4037C19.8201 13.6957 19.8201 14.1708 19.5282 14.4627ZM15.0247 7.5744C15.7068 7.08073 16.1249 6.28407 16.1249 5.41855C16.1249 5.15967 15.915 4.94981 15.6561 4.94981C15.3973 4.94981 15.1874 5.15967 15.1874 5.41855C15.1874 6.03086 14.864 6.58936 14.348 6.89774L12.5626 5.11242C12.3795 4.92938 12.0833 4.9246 11.9002 5.10764L10.3007 6.7071C10.0087 6.99908 9.53366 6.99903 9.24169 6.7071C9.10023 6.56568 9.02232 6.37763 9.02232 6.17762C9.02232 5.97761 9.10023 5.78955 9.24169 5.64809L11.068 3.82175C11.3562 3.53358 11.7394 3.37486 12.147 3.37486H16.9513L20.2557 9.09822C20.2635 9.11176 20.272 9.12465 20.2803 9.13773L18.4342 10.9839L15.0247 7.5744Z" fill="#154D80"/>
</svg>
