<svg width="81" height="80" viewBox="0 0 81 80" fill="none" xmlns="http://www.w3.org/2000/svg">
<mask id="mask0" mask-type="alpha" maskUnits="userSpaceOnUse" x="0" y="0" width="81" height="80">
<circle cx="40.998" cy="40" r="40" fill="#C4C4C4"/>
</mask>
<g mask="url(#mask0)">
<g clip-path="url(#clip0)">
<path d="M40.9996 -1.59766C18.027 -1.59766 -0.600388 17.026 -0.600388 40.0005C-0.600388 62.975 18.0251 81.5987 40.9996 81.5987C63.9759 81.5987 82.5996 62.975 82.5996 40.0005C82.5996 17.026 63.9759 -1.59766 40.9996 -1.59766ZM40.9996 10.8407C48.6011 10.8407 54.7609 17.0023 54.7609 24.6001C54.7609 32.1998 48.6011 38.3596 40.9996 38.3596C33.4018 38.3596 27.242 32.1998 27.242 24.6001C27.242 17.0023 33.4018 10.8407 40.9996 10.8407ZM40.9905 70.7227C33.4091 70.7227 26.4654 67.9617 21.1096 63.3916C19.8049 62.2788 19.0521 60.647 19.0521 58.9349C19.0521 51.2292 25.2886 45.0621 32.9961 45.0621H49.0068C56.7161 45.0621 62.9289 51.2292 62.9289 58.9349C62.9289 60.6488 62.1797 62.277 60.8732 63.3898C55.5192 67.9617 48.5737 70.7227 40.9905 70.7227Z" fill="#F3F4F7"/>
</g>
</g>
<defs>
<clipPath id="clip0">
<rect width="83.2" height="83.2" fill="white" transform="translate(-0.600388 -1.60059)"/>
</clipPath>
</defs>
</svg>
