<svg width="140" height="140" viewBox="0 0 140 140" fill="none" xmlns="http://www.w3.org/2000/svg">
<g clip-path="url(#clip0)">
<path d="M79.5219 92.9991C78.9991 92.4266 78.3377 91.9983 77.6541 91.6416C76.1657 90.8654 74.538 90.3947 72.9219 89.9697V102.493C75.5451 102.197 78.5567 101.245 79.9341 98.7957C80.5916 97.6259 80.7224 96.1886 80.4545 94.8864C80.3093 94.1808 80.0092 93.5331 79.5219 92.9991Z" fill="#0D5394"/>
<path d="M79.9199 98.82C79.9252 98.8111 79.9281 98.8055 79.9337 98.7959C79.9291 98.8038 79.9245 98.8117 79.9199 98.82Z" fill="#0D5394"/>
<path d="M60.6174 72.9792C60.1664 73.6377 59.8835 74.3859 59.8054 75.1811C59.7273 75.978 59.7711 76.8645 60.0739 77.6146C60.3621 78.3294 60.966 78.8572 61.5892 79.2821C62.2886 79.7578 63.0578 80.1294 63.8412 80.4443C64.4984 80.7089 65.2376 80.9619 66.0345 81.2063V69.874C64.0214 70.3036 61.8218 71.2207 60.6174 72.9792Z" fill="#0D5394"/>
<path d="M79.9853 98.7021C79.9688 98.7315 79.9511 98.7621 79.9336 98.7944C79.954 98.7568 79.9702 98.7292 79.9853 98.7021Z" fill="#0D5394"/>
<path d="M80.0527 98.5853C80.057 98.5774 80.0577 98.5767 80.0527 98.5853V98.5853Z" fill="#0D5394"/>
<path d="M77.3337 30.4617C87.9838 21.5152 95.1 1.35982 90.7206 0.478268C84.9016 -0.693504 72.2655 4.44457 66.1579 5.34984C57.4953 6.39577 48.0605 -4.04378 42.7646 1.77522C38.4586 6.50646 45.8517 23.7124 57.4182 31.2082C22.91 48.1685 -25.5935 133.31 59.0235 139.488C176.106 148.036 117.478 46.9891 77.3337 30.4617Z" fill="#0D5394"/>
<path d="M59.9419 113C57.3025 113 55.1628 110.86 55.1628 108.221V105.254H52.3239C51.0405 105.254 50 104.213 50 102.93C50 101.646 51.0405 100.606 52.3239 100.606H55.1628V96.2394H54.2606C51.9075 96.2394 50 94.3319 50 91.9789C50 89.6258 51.9075 87.7183 54.2606 87.7183H55.1628V63H73.2326C75.6047 63 77.7674 63.4695 79.7209 64.4084C81.6744 65.3474 83.3256 66.615 84.6744 68.2113C86.0698 69.8075 87.1395 71.5915 87.8837 73.5634C88.6279 75.5352 89 77.554 89 79.6197C89 82.4366 88.3721 85.1127 87.1163 87.6479C85.907 90.1831 84.1395 92.2488 81.814 93.8451C79.5349 95.4413 76.814 96.2394 73.6512 96.2394H64.7209V100.606H71.6063C72.8898 100.606 73.9302 101.646 73.9302 102.93C73.9302 104.213 72.8898 105.254 71.6063 105.254H64.7209V108.221C64.7209 110.86 62.5813 113 59.9419 113ZM64.7209 87.7183H73.0233C75.2093 87.7183 76.7907 86.9906 77.7674 85.5352C78.7907 84.0329 79.3023 82.061 79.3023 79.6197C79.3023 77.0376 78.6977 75.0423 77.4884 73.6338C76.3256 72.2254 74.6977 71.5211 72.6047 71.5211H64.7209V87.7183Z" fill="white"/>
<path d="M79.8844 98.8838C79.8643 98.9197 79.8468 98.9513 79.833 98.9754C79.8449 98.9546 79.8627 98.9233 79.8844 98.8838Z" fill="#0D5394"/>
</g>
<defs>
<clipPath id="clip0">
<rect width="140" height="140" fill="white"/>
</clipPath>
</defs>
</svg>
