<svg width="24" height="24" viewBox="0 0 24 24" fill="none" xmlns="http://www.w3.org/2000/svg">
<g clip-path="url(#clip0)">
<path d="M8.08997 2.18182C8.08997 1.46637 8.64833 0.943488 9.36378 0.943488H14.6002C15.3154 0.943488 15.8738 1.46637 15.8738 2.18182V3.53808H16.8172V2.18182C16.8172 0.946252 15.8357 0 14.6002 0H9.36378C8.12821 0 7.14648 0.946252 7.14648 2.18182V3.53808H8.08997V2.18182Z" fill="#0D5394"/>
<path d="M6.40387 24.0005H17.5606C18.6363 24.0005 19.4711 23.0542 19.4711 21.8776V7.3125H4.49316V21.8776C4.49316 23.0542 5.32793 24.0005 6.40387 24.0005ZM14.9895 9.56503C14.9895 9.30451 15.2007 9.09329 15.4612 9.09329C15.7217 9.09329 15.933 9.30451 15.933 9.56503V20.71C15.933 20.9705 15.7217 21.1817 15.4612 21.1817C15.2007 21.1817 14.9895 20.9705 14.9895 20.71V9.56503ZM11.5104 9.56503C11.5104 9.30451 11.7216 9.09329 11.9821 9.09329C12.2426 9.09329 12.4539 9.30451 12.4539 9.56503V20.71C12.4539 20.9705 12.2426 21.1817 11.9821 21.1817C11.7216 21.1817 11.5104 20.9705 11.5104 20.71V9.56503ZM8.03125 9.56503C8.03125 9.30451 8.24247 9.09329 8.50299 9.09329C8.76351 9.09329 8.97474 9.30451 8.97474 9.56503V20.71C8.97474 20.9705 8.76351 21.1817 8.50299 21.1817C8.24247 21.1817 8.03125 20.9705 8.03125 20.71V9.56503Z" fill="#0D5394"/>
<path d="M4.00944 6.36849H19.9543C20.6057 6.36849 21.1337 5.84054 21.1337 5.18913C21.1337 4.53771 20.6057 4.00977 19.9543 4.00977H4.00944C3.35803 4.00977 2.83008 4.53771 2.83008 5.18913C2.83008 5.84054 3.35803 6.36849 4.00944 6.36849Z" fill="#0D5394"/>
</g>
<defs>
<clipPath id="clip0">
<rect width="24" height="24" fill="white"/>
</clipPath>
</defs>
</svg>
