<svg width="25" height="25" viewBox="0 0 25 25" fill="none" xmlns="http://www.w3.org/2000/svg">
<path d="M7.03594 17.693C8.54543 17.007 10.1452 16.6175 11.8008 16.5315V13.6982H0.505859C0.653059 16.2446 1.59245 18.5782 3.08179 20.4565C4.22354 19.2965 5.5511 18.3677 7.03594 17.693Z" fill="#CDD3D9"/>
<path d="M11.8016 8.04357V0.994141C8.77128 1.16946 6.04201 2.46666 4.02344 4.47736C6.08053 6.59397 8.86299 7.86722 11.8016 8.04357Z" fill="#CDD3D9"/>
<path d="M0.505859 12.2895H11.8008V9.45611C10.1452 9.37021 8.54538 8.98063 7.03584 8.29468C5.55105 7.61993 4.22377 6.69128 3.08179 5.53125C1.59245 7.40942 0.653059 9.74311 0.505859 12.2895Z" fill="#CDD3D9"/>
<path d="M20.9877 4.47693C18.9689 2.46628 16.2395 1.16922 13.209 0.994141V8.04361C16.1484 7.86736 18.9307 6.59397 20.9877 4.47693Z" fill="#CDD3D9"/>
<path d="M13.209 17.9443V24.9938C16.2395 24.8187 18.9689 23.5217 20.9877 21.511C18.9304 19.3939 16.1483 18.1206 13.209 17.9443Z" fill="#CDD3D9"/>
<path d="M24.5049 13.6982H13.209V16.5316C14.8677 16.6176 16.4703 17.0085 17.9823 17.6968C19.4642 18.3714 20.7889 19.2989 21.9286 20.4569C23.4182 18.5786 24.3577 16.2448 24.5049 13.6982Z" fill="#CDD3D9"/>
<path d="M21.8541 5.60769C20.7313 6.7305 19.4319 7.6316 17.9823 8.29154C16.4703 8.97988 14.8677 9.37072 13.209 9.45677V12.2901H24.505C24.3578 9.74348 23.4181 7.40961 21.9285 5.53125C21.9036 5.55656 21.8792 5.58257 21.8541 5.60769Z" fill="#CDD3D9"/>
<path d="M11.8016 17.9443C8.86304 18.1206 6.08063 19.3937 4.02344 21.5105C6.04206 23.5212 8.77132 24.8184 11.8016 24.9937V17.9443Z" fill="#CDD3D9"/>
</svg>
