<svg width="20" height="20" viewBox="0 0 20 20" fill="none" xmlns="http://www.w3.org/2000/svg">
<g clip-path="url(#clip0)">
<path d="M16.0528 10.268V8.39844C16.0528 5.67102 14.2399 3.35934 11.7559 2.6043V1.75781C11.7559 0.788555 10.9674 0 9.99809 0C9.02883 0 8.24028 0.788555 8.24028 1.75781V2.6043C5.7563 3.35934 3.9434 5.67098 3.9434 8.39844V10.268C3.9434 12.6638 3.0302 14.9355 1.37204 16.6648C1.20954 16.8342 1.16387 17.0843 1.25598 17.3002C1.34809 17.5161 1.5602 17.6562 1.79497 17.6562H7.12735C7.39954 18.9919 8.58329 20 9.99809 20C11.4129 20 12.5966 18.9919 12.8688 17.6562H18.2012C18.436 17.6562 18.6481 17.5161 18.7402 17.3002C18.8323 17.0843 18.7866 16.8342 18.6241 16.6648C16.966 14.9355 16.0528 12.6638 16.0528 10.268ZM9.41216 1.75781C9.41216 1.43473 9.67501 1.17188 9.99809 1.17188C10.3212 1.17188 10.584 1.43473 10.584 1.75781V2.37219C10.3912 2.35359 10.1957 2.34375 9.99809 2.34375C9.80044 2.34375 9.60501 2.35359 9.41216 2.37219V1.75781ZM9.99809 18.8281C9.23423 18.8281 8.58294 18.3382 8.34106 17.6562H11.6551C11.4132 18.3382 10.762 18.8281 9.99809 18.8281ZM3.05786 16.4844C4.39227 14.6956 5.11528 12.5309 5.11528 10.268V8.39844C5.11528 5.70605 7.30571 3.51562 9.99809 3.51562C12.6905 3.51562 14.8809 5.70605 14.8809 8.39844V10.268C14.8809 12.5309 15.6039 14.6956 16.9384 16.4844H3.05786Z" fill="#154D80"/>
<path d="M17.6175 8.39719C17.6175 8.72079 17.8798 8.98313 18.2034 8.98313C18.527 8.98313 18.7894 8.72079 18.7894 8.39719C18.7894 6.04954 17.8751 3.84239 16.2151 2.18235C15.9863 1.95356 15.6153 1.95352 15.3865 2.18235C15.1576 2.41118 15.1576 2.78215 15.3865 3.01098C16.8252 4.44969 17.6175 6.36254 17.6175 8.39719Z" fill="#154D80"/>
<path d="M1.79687 8.98408C2.12047 8.98408 2.38281 8.72174 2.38281 8.39814C2.38281 6.36353 3.17516 4.45068 4.61383 3.01197C4.84266 2.78314 4.84266 2.41217 4.61383 2.18334C4.38504 1.95451 4.01402 1.95451 3.7852 2.18334C2.12516 3.84338 1.21094 6.05049 1.21094 8.39814C1.21094 8.72174 1.47328 8.98408 1.79687 8.98408Z" fill="#154D80"/>
</g>
<defs>
<clipPath id="clip0">
<rect width="20" height="20" fill="white"/>
</clipPath>
</defs>
</svg>
