<svg width="24" height="24" viewBox="0 0 24 24" fill="none" xmlns="http://www.w3.org/2000/svg">
<path d="M12 20C16.4184 20 20 16.4184 20 12C20 7.58164 16.4184 4 12 4C7.58164 4 4 7.58164 4 12C4.00508 16.4162 7.58379 19.9949 12 20ZM4.8 12C4.80215 11.4271 4.87305 10.8566 5.01094 10.3006L8.33223 13.0979L6.94336 17.118C5.57148 15.7684 4.79941 13.9244 4.8 12ZM13.6102 9.17109C13.6668 9.30332 13.79 9.39492 13.933 9.41094L18.2305 9.89355L14.9424 12.6631C14.8158 12.7697 14.768 12.9432 14.8219 13.0996L16.1809 17.0328L12.0971 16.0119C12.0334 15.9961 11.9666 15.9961 11.9029 16.0119L7.81914 17.0328L9.17812 13.0996C9.23203 12.9432 9.18418 12.7697 9.05762 12.6631L5.76953 9.89355L10.067 9.41094C10.21 9.39492 10.3332 9.30332 10.3898 9.17109L12 5.41523L13.6102 9.17109ZM7.82637 17.8557L12 16.8123L16.1736 17.8557C13.6799 19.648 10.3201 19.648 7.82637 17.8557ZM17.0566 17.118L15.6678 13.0979L18.9891 10.3006C19.5998 12.7549 18.8645 15.3492 17.0566 17.118ZM18.5996 9.13008L14.2537 8.64199L12.6201 4.83145C15.2498 5.06172 17.5436 6.71074 18.5996 9.13008ZM11.3799 4.83145L9.74629 8.64199L5.40039 9.13008C6.45645 6.71074 8.7502 5.06172 11.3799 4.83145Z" fill="#154D80"/>
<path d="M2 12C2 17.5229 6.47715 22 12 22C17.5229 22 22 17.5229 22 12C22 6.47715 17.5229 2 12 2C6.47969 2.00625 2.00625 6.47969 2 12ZM12 2.8C17.0811 2.8 21.2 6.91895 21.2 12C21.2 17.0811 17.0811 21.2 12 21.2C6.91895 21.2 2.8 17.0811 2.8 12C2.80586 6.92129 6.92129 2.80586 12 2.8Z" fill="#154D80"/>
<path d="M10.6738 14.3793L11.6215 14.6951C11.6098 14.7289 11.6025 14.7641 11.6004 14.7998V15.1998C11.6004 15.4207 11.7795 15.5998 12.0004 15.5998C12.2213 15.5998 12.4004 15.4207 12.4004 15.1998V14.9549L13.0738 15.1793C13.1959 15.2199 13.3299 15.1994 13.4342 15.1242C13.5385 15.049 13.6004 14.9283 13.6004 14.7998V12.7998C13.6004 12.6277 13.4902 12.4748 13.327 12.4203L11.2004 11.7115V10.1547L12.8004 10.6881V11.1998C12.8004 11.4207 12.9795 11.5998 13.2004 11.5998C13.4213 11.5998 13.6004 11.4207 13.6004 11.1998V10.3998C13.6004 10.2277 13.4902 10.0748 13.327 10.0203L12.4004 9.71152V9.1998C12.4004 8.97891 12.2213 8.7998 12.0004 8.7998C11.7795 8.7998 11.6004 8.97891 11.6004 9.1998V9.44473L10.927 9.22031C10.8049 9.17969 10.6709 9.2002 10.5666 9.27539C10.4623 9.35059 10.4004 9.47129 10.4004 9.5998V11.9998C10.4004 12.1719 10.5105 12.3248 10.6738 12.3793L12.8004 13.0881V14.2449L11.2004 13.7115V13.5998C11.2004 13.3789 11.0213 13.1998 10.8004 13.1998C10.5795 13.1998 10.4004 13.3789 10.4004 13.5998V13.9998C10.4004 14.1719 10.5105 14.3248 10.6738 14.3793Z" fill="#154D80"/>
</svg>
