<svg width="25" height="25" viewBox="0 0 25 25" fill="none" xmlns="http://www.w3.org/2000/svg">
<g clip-path="url(#clip0)">
<path d="M5.1873 14.5984C4.7793 12.1522 6.16793 9.73267 8.48918 8.84533L9.17632 8.58264C9.61933 6.17359 11.372 4.21689 13.6739 3.48198C12.8979 2.34475 11.6868 1.52575 10.2775 1.26747C9.41046 1.10852 8.5383 1.018 7.6653 0.994141C6.77627 1.01908 5.88799 1.11344 5.00505 1.27834C2.87243 1.67669 1.19716 3.38148 0.836363 5.52044C0.395691 8.13306 0.395691 10.7824 0.836363 13.395C1.06296 14.7381 1.79407 15.9154 2.87585 16.7106H5.63983C5.61353 16.6205 5.28991 15.213 5.1873 14.5984Z" fill="#CDD3D9"/>
<path d="M8.26281 20.5057C7.0997 19.6628 6.19141 18.1162 6.19141 18.1162V21.4354H10.2756C9.58145 21.3265 8.88423 20.9561 8.26281 20.5057Z" fill="#CDD3D9"/>
<path d="M3.08398 18.1162H4.78653V21.4354H3.08398V18.1162Z" fill="#CDD3D9"/>
<path d="M20.0057 4.62454C18.5096 4.35904 16.4189 4.30734 14.7592 4.60884C14.7505 4.61044 14.7419 4.61198 14.7332 4.61358C12.562 5.01145 10.8598 6.7395 10.4973 8.91351C10.1292 11.1225 10.2179 12.9218 10.8141 15.32H10.7523H9.41565C8.96471 13.4039 8.82512 11.825 8.97362 10.1145C7.25293 10.7723 6.22464 12.5603 6.52717 14.3741C6.62406 14.9548 6.74471 15.5404 6.88585 16.1145C7.19701 17.3807 8.00073 18.5884 9.09118 19.4278C9.27001 19.5654 10.3055 20.0503 10.9424 20.0568H22.1349C23.2167 19.2616 23.9477 18.0843 24.1744 16.7412C24.6151 14.1286 24.6151 11.4793 24.1744 8.86664C23.8136 6.72764 22.1418 5.00362 20.0057 4.62454Z" fill="#CDD3D9"/>
<path d="M11.6797 21.4629H18.8202V24.9939H11.6797V21.4629Z" fill="#CDD3D9"/>
<path d="M20.2246 21.4629H21.9272V24.9939H20.2246V21.4629Z" fill="#CDD3D9"/>
</g>
<defs>
<clipPath id="clip0">
<rect width="24" height="24" fill="white" transform="translate(0.505859 0.994141)"/>
</clipPath>
</defs>
</svg>
