<svg width="15" height="15" viewBox="0 0 15 15" fill="none" xmlns="http://www.w3.org/2000/svg">
<g clip-path="url(#clip0)">
<path d="M5.09811 11.2847C4.1773 11.2847 3.43091 12.0311 3.43091 12.9517C3.43091 13.8726 4.1773 14.6189 5.09811 14.6189C6.01879 14.6189 6.76518 13.8726 6.76518 12.9517C6.76423 12.0314 6.01844 11.2856 5.09811 11.2847Z" fill="white"/>
<path d="M14.4298 4.41069C14.3715 4.33408 14.2809 4.28883 14.1847 4.28811H3.36361L3.14298 3.05306C3.00699 2.29279 2.41108 1.69819 1.65056 1.56375L0.85066 1.42273C0.683904 1.39317 0.52481 1.50426 0.495122 1.67101C0.465554 1.83765 0.576644 1.99686 0.7434 2.02643L1.54629 2.16745C2.05291 2.25723 2.4495 2.65383 2.53929 3.16032L3.6241 9.28036C3.75219 10.0126 4.38844 10.5467 5.13184 10.5459H11.5674C12.2436 10.5481 12.8407 10.1055 13.0354 9.45801L14.4758 4.68351C14.5061 4.59049 14.4888 4.48862 14.4298 4.41069Z" fill="white"/>
<path d="M11.5343 11.2847C10.6135 11.2847 9.86707 12.0311 9.86707 12.9517C9.86707 13.8726 10.6135 14.6189 11.5343 14.6189C12.455 14.6189 13.2013 13.8726 13.2013 12.9517C13.2004 12.0314 12.4546 11.2856 11.5343 11.2847Z" fill="white"/>
</g>
<defs>
<clipPath id="clip0">
<rect width="14" height="14" fill="white" transform="translate(0.490723 0.994141)"/>
</clipPath>
</defs>
</svg>
