<svg width="20" height="20" viewBox="0 0 20 20" fill="none" xmlns="http://www.w3.org/2000/svg">
<path d="M19.8846 4.17797C19.7701 4.01389 19.5859 3.91247 19.3858 3.90392L6.97957 3.36916C6.62362 3.35358 6.32616 3.62839 6.31094 3.98269C6.29581 4.33686 6.57018 4.63611 6.92443 4.65132L18.4907 5.14992L16.2165 12.2455H6.0962L4.26781 2.29006C4.22762 2.07186 4.07781 1.88984 3.87121 1.80878L0.876627 0.63233C0.546586 0.503116 0.174159 0.665227 0.0445415 0.994866C-0.0848523 1.32468 0.0772144 1.69733 0.407077 1.82695L3.06974 2.87298L4.9304 13.0032C4.98648 13.3077 5.25189 13.5289 5.56166 13.5289H5.87031L5.16551 15.4866C5.10652 15.6506 5.13082 15.8327 5.23121 15.9751C5.33147 16.1176 5.49452 16.2024 5.66858 16.2024H6.16293C5.85661 16.5433 5.66858 16.9922 5.66858 17.4858C5.66858 18.5474 6.53236 19.4109 7.59369 19.4109C8.65502 19.4109 9.5188 18.5474 9.5188 17.4858C9.5188 16.9922 9.33077 16.5433 9.0245 16.2024H13.2217C12.9153 16.5433 12.7273 16.9922 12.7273 17.4858C12.7273 18.5474 13.5908 19.4109 14.6524 19.4109C15.714 19.4109 16.5775 18.5474 16.5775 17.4858C16.5775 16.9922 16.3895 16.5433 16.0833 16.2024H16.6845C16.9799 16.2024 17.2192 15.963 17.2192 15.6677C17.2192 15.3723 16.9798 15.1329 16.6845 15.1329H6.42946L7.00692 13.5287H16.6844C16.9635 13.5287 17.2104 13.3484 17.2954 13.0829L19.9692 4.74071C20.0306 4.55031 19.9991 4.34214 19.8846 4.17797ZM7.59374 18.3416C7.12186 18.3416 6.73811 17.9579 6.73811 17.4861C6.73811 17.0142 7.12186 16.6304 7.59374 16.6304C8.06561 16.6304 8.44932 17.0142 8.44932 17.4861C8.44932 17.9579 8.06561 18.3416 7.59374 18.3416ZM14.6524 18.3416C14.1805 18.3416 13.7968 17.9579 13.7968 17.4861C13.7968 17.0142 14.1805 16.6304 14.6524 16.6304C15.1243 16.6304 15.508 17.0142 15.508 17.4861C15.508 17.9579 15.1243 18.3416 14.6524 18.3416Z" fill="#154D80"/>
</svg>
