<svg width="140" height="140" viewBox="0 0 140 140" fill="none" xmlns="http://www.w3.org/2000/svg">
<g clip-path="url(#clip0)">
<path d="M32.0684 86.4316H17.1045C12.5813 86.4316 8.90137 90.1116 8.90137 94.6348V131.797C8.90137 136.32 12.5813 140 17.1045 140H32.0684C36.5916 140 40.2715 136.32 40.2715 131.797V94.6348C40.2715 90.1116 36.5916 86.4316 32.0684 86.4316Z" fill="#CE091D"/>
<path d="M131.091 94.8216C130.94 89.4699 129.953 86.4183 127.888 84.9272C120.354 79.4886 107.305 85.8884 99.388 90.7017C101.416 94.2167 102.53 105.006 94.6613 108.292C89.5929 110.409 89.2306 110.467 70.2756 113.527C68.4354 113.822 66.7209 112.539 66.4319 110.674C66.1423 108.803 67.393 107.046 69.2259 106.75C87.7715 103.757 87.7715 103.757 92.1167 101.943C95.1098 100.693 94.0231 95.4116 93.5935 94.1713L82.8989 95.7742C79.7185 96.2462 76.4485 95.7354 73.4431 94.2949C71.8249 93.5195 69.3804 92.3483 65.2146 92.8785C55.8674 94.0707 56.8559 94.5298 53.5913 96.285C53.6186 96.285 52.2728 96.9957 50.3371 96.9957H48.4742V131.796C48.4742 132.952 48.3725 133.327 48.4003 133.327C49.1386 133.259 53.0644 133.29 53.8016 133.389C54.483 133.389 85.1665 135.898 87.687 135.898C96.3077 135.898 104.669 132.086 110.404 125.446L126.886 106.613C129.846 103.061 131.21 99.0741 131.091 94.8216Z" fill="#CE091D"/>
<path d="M78.9014 78.2031C100.462 78.2031 118.003 60.6624 118.003 39.1016C118.003 17.5407 100.462 0 78.9014 0C57.3405 0 39.7998 17.5407 39.7998 39.1016C39.7998 60.6624 57.3408 78.2031 78.9014 78.2031Z" fill="#CE091D"/>
<path d="M71.3502 60C69.1331 60 67.3358 58.2027 67.3358 55.9856V53.493H64.9511C63.873 53.493 62.999 52.619 62.999 51.5408C62.999 50.4627 63.873 49.5887 64.9511 49.5887H67.3358V45.9211H66.5779C64.6013 45.9211 62.999 44.3188 62.999 42.3423C62.999 40.3657 64.6013 38.7634 66.5779 38.7634H67.3358V18H82.5144C84.5069 18 86.3237 18.3944 87.9646 19.1831C89.6055 19.9718 90.9925 21.0366 92.1255 22.3775C93.2976 23.7183 94.1962 25.2169 94.8213 26.8732C95.4465 28.5296 95.759 30.2254 95.759 31.9606C95.759 34.3268 95.2316 36.5746 94.1767 38.7042C93.1609 40.8338 91.6762 42.569 89.7227 43.9099C87.8083 45.2507 85.5227 45.9211 82.866 45.9211H75.3646V49.5887H81.1483C82.2264 49.5887 83.1004 50.4627 83.1004 51.5408C83.1004 52.619 82.2264 53.493 81.1483 53.493H75.3646V55.9856C75.3646 58.2027 73.5673 60 71.3502 60ZM75.3646 38.7634H82.3386C84.1748 38.7634 85.5032 38.1521 86.3237 36.9296C87.1832 35.6676 87.613 34.0113 87.613 31.9606C87.613 29.7915 87.1051 28.1155 86.0893 26.9324C85.1125 25.7493 83.7451 25.1577 81.9869 25.1577H75.3646V38.7634Z" fill="white"/>
</g>
<defs>
<clipPath id="clip0">
<rect width="140" height="140" fill="white"/>
</clipPath>
</defs>
</svg>
