<svg width="24" height="24" viewBox="0 0 24 24" fill="none" xmlns="http://www.w3.org/2000/svg">
<g clip-path="url(#clip0)">
<path d="M11.0501 16.2778C11.233 16.0945 11.233 15.7979 11.0501 15.6146C10.867 15.4319 10.5703 15.4319 10.3871 15.6146C10.2043 15.7979 10.2043 16.0945 10.3871 16.2778C10.5703 16.4605 10.867 16.4605 11.0501 16.2778Z" fill="#154D80"/>
<path d="M8.83398 5.15479C8.83398 7.99713 11.1464 10.3098 13.9888 10.3098C16.8311 10.3098 19.1436 7.99713 19.1436 5.15479C19.1436 2.31244 16.8311 0 13.9888 0C11.1464 0 8.83398 2.31244 8.83398 5.15479ZM18.2064 5.15479C18.2064 7.48041 16.3144 9.37244 13.9888 9.37244C11.6631 9.37244 9.77112 7.48041 9.77112 5.15479C9.77112 2.82935 11.6631 0.937317 13.9888 0.937317C16.3144 0.937317 18.2064 2.82935 18.2064 5.15479Z" fill="#154D80"/>
<path d="M5.42116 23.8621C5.6028 24.0452 5.89852 24.0472 6.08254 23.8659L8.35451 21.6276C8.7405 21.2416 8.85787 20.6702 8.68813 20.1734L9.17684 19.7021C9.43996 19.4479 9.7864 19.3079 10.1526 19.3079H16.3824C17.4876 19.3079 18.5322 18.8834 19.3242 18.1127C19.3568 18.081 19.0768 18.4108 23.5742 13.0356C24.2413 12.2464 24.1415 11.0613 23.3516 10.3935C22.5666 9.73198 21.3907 9.82701 20.7218 10.6026L17.9566 13.4448C17.6074 13.0151 17.0749 12.7472 16.4996 12.7472H11.2739C10.5304 12.4361 9.74135 12.2786 8.92727 12.2786C6.67067 12.2786 4.70027 13.3209 3.64284 15.275C3.19734 15.1905 2.72749 15.3253 2.38948 15.6633L0.160172 17.8992C-0.021835 18.0818 -0.0222012 18.3771 0.159439 18.5602L5.42116 23.8621ZM8.92708 13.2157C9.64486 13.2157 10.3388 13.3602 10.9901 13.6451C11.0495 13.6711 11.1134 13.6845 11.178 13.6845H16.4996C17.0077 13.6845 17.4369 14.0989 17.4369 14.6216C17.4369 15.1385 17.0165 15.5589 16.4996 15.5589H12.6762C12.4174 15.5589 12.2076 15.7688 12.2076 16.0275C12.2076 16.2864 12.4174 16.4961 12.6762 16.4961H16.4996C17.5332 16.4961 18.374 15.6553 18.374 14.6216C18.374 14.5392 18.3682 14.4576 18.3576 14.3766C21.0326 11.6269 21.4098 11.2406 21.4259 11.2214C21.7599 10.8271 22.3527 10.7771 22.7472 11.1097C23.1419 11.4435 23.1919 12.036 22.857 12.4324L18.6538 17.4572C18.0401 18.0464 17.2342 18.3707 16.3824 18.3707H10.1526C9.54213 18.3707 8.96425 18.6042 8.5259 19.0277L8.12764 19.412L4.45638 15.741C5.31441 14.1313 6.92446 13.2157 8.92708 13.2157ZM3.05269 16.3256C3.20723 16.1711 3.44454 16.1432 3.63295 16.2597C3.71407 16.3091 3.48116 16.0971 7.69185 20.3019C7.87917 20.4892 7.8691 20.7877 7.69442 20.9624L5.75753 22.8705L1.15297 18.2308L3.05269 16.3256Z" fill="#154D80"/>
<path d="M13.4282 2.34277V2.89191C12.8827 3.08527 12.4909 3.6062 12.4909 4.21723C12.4909 4.99231 13.1215 5.62311 13.8968 5.62311C14.1551 5.62311 14.3653 5.83331 14.3653 6.09168C14.3653 6.35004 14.1551 6.56024 13.8968 6.56024C13.6966 6.56024 13.4804 6.43445 13.2883 6.20575C13.1217 6.00763 12.8262 5.98218 12.628 6.14862C12.4299 6.31525 12.4043 6.61078 12.5709 6.8089C12.8214 7.10681 13.116 7.31446 13.4282 7.41919V7.96613C13.4282 8.22504 13.6381 8.43469 13.8968 8.43469C14.1555 8.43469 14.3653 8.22504 14.3653 7.96613V7.41699C14.9108 7.22345 15.3027 6.70252 15.3027 6.09168C15.3027 5.31641 14.6721 4.68579 13.8968 4.68579C13.6384 4.68579 13.4282 4.47559 13.4282 4.21723C13.4282 3.95886 13.6384 3.74847 13.8968 3.74847C14.0629 3.74847 14.2381 3.83325 14.4036 3.99347C14.5897 4.17346 14.8863 4.16852 15.0663 3.98267C15.2463 3.79663 15.2413 3.5 15.0555 3.32001C14.8176 3.08984 14.5796 2.95966 14.3653 2.88861V2.34277C14.3653 2.08386 14.1555 1.87402 13.8968 1.87402C13.6381 1.87402 13.4282 2.08386 13.4282 2.34277Z" fill="#154D80"/>
</g>
<defs>
<clipPath id="clip0">
<rect width="23.9531" height="24" fill="white"/>
</clipPath>
</defs>
</svg>
