<svg width="25" height="20" viewBox="0 0 25 20" fill="none" xmlns="http://www.w3.org/2000/svg">
<path d="M19.5684 0.150879H5.41211C2.69812 0.150879 0.490234 2.35876 0.490234 5.07275V12.6746C0.490234 14.8401 1.91205 16.7263 3.97235 17.33L6.34943 19.7073C6.48145 19.8391 6.66016 19.9133 6.84674 19.9133C7.03314 19.9133 7.21204 19.8391 7.34387 19.7073L9.52448 17.5265H19.5684C22.2823 17.5265 24.4902 15.3186 24.4902 12.6046V5.07275C24.4902 2.35876 22.2823 0.150879 19.5684 0.150879ZM7.32263 10.0814C7.32263 9.69305 7.63739 9.3783 8.02576 9.3783H16.9547C17.3431 9.3783 17.6578 9.69305 17.6578 10.0814C17.6578 10.4698 17.3431 10.7845 16.9547 10.7845H8.02576C7.63739 10.7845 7.32263 10.4698 7.32263 10.0814ZM16.9547 8.29907H8.02576C7.63739 8.29907 7.32263 7.98431 7.32263 7.59595C7.32263 7.20776 7.63739 6.89282 8.02576 6.89282H16.9547C17.3431 6.89282 17.6578 7.20776 17.6578 7.59595C17.6578 7.98431 17.3431 8.29907 16.9547 8.29907Z" fill="#0D5394"/>
</svg>
