<svg width="23" height="23" viewBox="0 0 23 23" fill="none" xmlns="http://www.w3.org/2000/svg">
<path d="M19.6356 3.36462C15.1485 -1.12154 7.85123 -1.12154 3.36412 3.36462C-1.12105 7.85078 -1.12105 15.15 3.36412 19.6361C5.60767 21.8787 8.554 22.9995 11.5004 22.9995C14.4467 22.9995 17.3921 21.8787 19.6356 19.6361C24.1218 15.15 24.1218 7.85078 19.6356 3.36462ZM16.2454 14.8901C16.6202 15.265 16.6202 15.871 16.2454 16.2458C16.0584 16.4328 15.813 16.5268 15.5675 16.5268C15.322 16.5268 15.0766 16.4328 14.8896 16.2458L11.5003 12.8556L8.11198 16.2449C7.92408 16.4318 7.6786 16.5258 7.43411 16.5258C7.18868 16.5258 6.9432 16.4318 6.75624 16.2449C6.38137 15.87 6.38137 15.2631 6.75624 14.8892L10.1446 11.4999L6.75529 8.11059C6.38042 7.73572 6.38042 7.12882 6.75529 6.75489C7.12922 6.38002 7.73613 6.38002 8.111 6.75489L11.5003 10.1442L14.8896 6.75489C15.2644 6.38002 15.8704 6.38002 16.2453 6.75489C16.6201 7.12882 16.6201 7.73572 16.2453 8.11059L12.856 11.4999L16.2454 14.8901Z" fill="#88939E"/>
</svg>
