<svg width="21" height="14" viewBox="0 0 21 14" fill="none" xmlns="http://www.w3.org/2000/svg">
<path d="M10.5593 4.27832C9.05474 4.27832 7.83203 5.50103 7.83203 7.00559C7.83203 8.51015 9.05474 9.73286 10.5593 9.73286C12.0639 9.73286 13.2866 8.51015 13.2866 7.00559C13.2866 5.50103 12.0638 4.27832 10.5593 4.27832Z" fill="#CDD3D9"/>
<path d="M10.5606 0.1875C6.0151 0.1875 2.13329 3.01475 0.560547 7.00569C2.13329 10.9966 6.0151 13.8239 10.5606 13.8239C15.1106 13.8239 18.9878 10.9966 20.5606 7.00569C18.9878 3.01475 15.1106 0.1875 10.5606 0.1875ZM10.5606 11.5511C8.05148 11.5511 6.0151 9.51474 6.0151 7.00564C6.0151 4.49655 8.05148 2.46021 10.5606 2.46021C13.0697 2.46021 15.106 4.49659 15.106 7.00569C15.106 9.51478 13.0697 11.5511 10.5606 11.5511Z" fill="#CDD3D9"/>
</svg>
