<svg width="25" height="25" viewBox="0 0 25 25" fill="none" xmlns="http://www.w3.org/2000/svg">
<path d="M24.5059 12.9941C24.5059 6.36602 19.134 0.994141 12.5059 0.994141C5.87773 0.994141 0.505859 6.36602 0.505859 12.9941C0.505859 19.6223 5.87773 24.9941 12.5059 24.9941C12.5762 24.9941 12.6465 24.9941 12.7168 24.9895V15.652H10.1387V12.6473H12.7168V10.4348C12.7168 7.8707 14.2824 6.47383 16.5699 6.47383C17.6668 6.47383 18.609 6.55352 18.8809 6.59102V9.27227H17.3059C16.0637 9.27227 15.8199 9.86289 15.8199 10.7301V12.6426H18.7965L18.4074 15.6473H15.8199V24.5301C20.8355 23.091 24.5059 18.4738 24.5059 12.9941Z" fill="#CDD3D9"/>
</svg>
