<svg width="161" height="105" viewBox="0 0 161 105" fill="none" xmlns="http://www.w3.org/2000/svg">
<path d="M107.858 19.7422C107.461 18.5507 106.433 17.6862 105.194 17.4993L90.3118 15.3265L83.6531 1.84572C83.0924 0.724272 81.9476 0 80.6859 0C79.4243 0 78.2795 0.724272 77.7188 1.84572L71.0601 15.3265L56.1775 17.4993C54.9392 17.6862 53.9112 18.5507 53.514 19.7422C53.1168 20.9338 53.4439 22.2421 54.3551 23.13L65.1258 33.6202L62.5791 48.4561C62.3688 49.6944 62.8828 50.9326 63.8875 51.6803C64.9155 52.4279 66.2472 52.5214 67.3687 51.9373L80.6859 44.9282L94.0032 51.9373C94.5172 52.1943 96.176 52.6148 97.4844 51.6803C98.5124 50.956 99.003 49.6944 98.7928 48.4561L96.2461 33.6202L107.017 23.13C107.905 22.2655 108.232 20.9338 107.858 19.7422ZM90.4519 30.1157C89.6809 30.8633 89.3305 31.9614 89.494 33.0361L91.1996 42.989L82.2513 38.2929C80.7093 37.7789 80.7093 37.7789 79.1907 38.2929L70.2658 42.989L71.9713 33.0361C72.1582 31.9614 71.8078 30.8867 71.0134 30.1157L63.794 23.0599L73.7937 21.6113C74.8684 21.4478 75.8029 20.7702 76.2702 19.8123L80.7327 10.7706L85.1951 19.8123C85.6858 20.7936 86.5969 21.4712 87.6717 21.6113L97.6713 23.0599L90.4519 30.1157Z" fill="#E73A4B"/>
<path d="M107.858 71.6807C107.461 70.4892 106.433 69.6247 105.194 69.4378L90.3118 67.265L83.6531 53.7842C83.0924 52.6627 81.9476 51.9385 80.6859 51.9385C79.4243 51.9385 78.2795 52.6627 77.7188 53.7842L71.0601 67.265L56.1775 69.4378C54.9392 69.6247 53.9112 70.4892 53.514 71.6807C53.1168 72.8723 53.4439 74.1806 54.3551 75.0684L65.1258 85.5587L62.5791 100.395C62.3688 101.633 62.8828 102.871 63.8875 103.619C64.9155 104.366 66.2472 104.46 67.3687 103.876L80.6859 96.8667L94.0032 103.876C94.5172 104.133 96.176 104.553 97.4844 103.619C98.5124 102.894 99.003 101.633 98.7928 100.395L96.2461 85.5587L107.017 75.0684C107.905 74.204 108.232 72.8723 107.858 71.6807ZM90.4519 82.0542C89.6809 82.8018 89.3305 83.8999 89.494 84.9746L91.1996 94.9275L82.2513 90.2314C80.7093 89.7174 80.7093 89.7174 79.1907 90.2314L70.2658 94.9275L71.9713 84.9746C72.1582 83.8999 71.8078 82.8252 71.0134 82.0542L63.794 74.9984L73.7937 73.5498C74.8684 73.3863 75.8029 72.7087 76.2702 71.7508L80.7327 62.7091L85.1951 71.7508C85.6858 72.7321 86.5969 73.4096 87.6717 73.5498L97.6713 74.9984L90.4519 82.0542Z" fill="#E73A4B"/>
<path d="M160.677 56.9913C160.279 55.7997 159.251 54.9353 158.013 54.7484L143.131 52.5756L136.472 39.0947C135.911 37.9733 134.766 37.249 133.505 37.249C132.243 37.249 131.098 37.9733 130.538 39.0947L123.879 52.5756L108.996 54.7484C107.758 54.9353 106.73 55.7997 106.333 56.9913C105.936 58.1828 106.263 59.4912 107.174 60.379L117.945 70.8693L115.398 85.7051C115.188 86.9434 115.702 88.1817 116.706 88.9293C117.734 89.6769 119.066 89.7704 120.188 89.1863L133.505 82.1772L146.822 89.1863C147.313 89.4433 148.972 89.8639 150.303 88.9293C151.331 88.205 151.822 86.9434 151.612 85.7051L149.065 70.8693L159.836 60.379C160.747 59.4912 161.074 58.1828 160.677 56.9913ZM143.224 67.3413C142.453 68.089 142.103 69.1871 142.266 70.2618L143.972 80.2147L135.047 75.5186C133.505 75.0046 133.505 75.0046 131.986 75.5186L123.061 80.2147L124.767 70.2618C124.954 69.1871 124.603 68.1123 123.809 67.3413L116.59 60.3089L126.589 58.8604C127.664 58.6968 128.598 58.0193 129.066 57.0614L133.528 48.0196L137.991 57.0614C138.481 58.0426 139.392 58.7202 140.467 58.8604L150.467 60.3089L143.224 67.3413Z" fill="#E73A4B"/>
<path d="M55.0843 56.9913C54.6871 55.7997 53.6591 54.9119 52.4209 54.7484L37.5383 52.5756L30.8796 39.0947C30.3189 37.9733 29.1741 37.249 27.9125 37.249C26.6508 37.249 25.506 37.9733 24.9453 39.0947L18.2866 52.5756L3.40404 54.7484C2.16577 54.9353 1.13777 55.7997 0.740587 56.9913C0.343406 58.1828 0.670496 59.4912 1.58168 60.379L12.3523 70.8693L9.80566 85.7051C9.59539 86.9434 10.1094 88.1817 11.114 88.9293C12.142 89.6769 13.4737 89.7704 14.5952 89.1863L27.9125 82.1772L41.2297 89.1863C41.7203 89.4433 43.3792 89.8639 44.7109 88.9293C45.7389 88.205 46.2295 86.9434 46.0192 85.7051L43.4726 70.8693L54.2432 60.379C55.131 59.5145 55.4581 58.1828 55.0843 56.9913ZM37.6317 67.3413C36.8607 68.089 36.5103 69.1871 36.6738 70.2618L38.3793 80.2147L29.4544 75.5186C27.9125 75.0046 27.9125 75.0046 26.3938 75.5186L17.4689 80.2147L19.1745 70.2618C19.3614 69.1871 19.0109 68.1123 18.2166 67.3413L10.9738 60.3089L20.9735 58.8604C22.0482 58.6968 22.9827 58.0193 23.45 57.0614L27.9125 48.0196L32.3749 57.0614C32.8655 58.0426 33.7767 58.7202 34.8514 58.8604L44.8511 60.3089L37.6317 67.3413Z" fill="#E73A4B"/>
</svg>
