<svg width="24" height="24" viewBox="0 0 24 24" fill="none" xmlns="http://www.w3.org/2000/svg">
<path d="M22.8008 11.2H19.2008V2C19.1994 0.895898 18.3049 0.00136719 17.2008 0H4.00078C3.11719 0 2.40078 0.716406 2.40078 1.6V6.4H1.20078C0.979883 6.4 0.800781 6.5791 0.800781 6.8V9.2C0.800781 9.4209 0.979883 9.6 1.20078 9.6H2.40078V14C2.40078 14.2209 2.57988 14.4 2.80078 14.4H4.80078V22.4C4.80078 23.2836 5.51719 24 6.40078 24H19.6008C20.4844 24 21.2008 23.2836 21.2008 22.4C21.2008 21.5164 20.4844 20.8 19.6008 20.8H19.2008V14.4H22.8008C23.0217 14.4 23.2008 14.2209 23.2008 14V11.6C23.2008 11.3791 23.0217 11.2 22.8008 11.2ZM3.20078 1.6C3.20078 1.1582 3.55898 0.8 4.00078 0.8C4.44258 0.8 4.80078 1.1582 4.80078 1.6V6.4H3.20078V1.6ZM1.60078 7.2H12.8008C13.002 7.2 13.1719 7.05078 13.1977 6.85117L14.576 8L13.1977 9.14883C13.1719 8.94922 13.002 8.8 12.8008 8.8H1.60078V7.2ZM3.20078 13.6V9.6H4.80078V13.6H3.20078ZM20.4008 22.4C20.4008 22.8418 20.0426 23.2 19.6008 23.2H7.78594C7.92715 22.957 8.00117 22.6811 8.00078 22.4V21.6H19.6008C20.0426 21.6 20.4008 21.9582 20.4008 22.4ZM18.4008 20.8H7.60078C7.37988 20.8 7.20078 20.9791 7.20078 21.2V22.4C7.20078 22.8418 6.84258 23.2 6.40078 23.2C5.95898 23.2 5.60078 22.8418 5.60078 22.4V9.6H12.4008V10C12.4008 10.1553 12.4906 10.2967 12.6312 10.3625C12.7719 10.4283 12.9379 10.4068 13.0572 10.3072L15.4572 8.30723C15.5482 8.23125 15.601 8.11875 15.601 8C15.601 7.88125 15.5482 7.76875 15.4572 7.69277L13.0572 5.69277C12.9379 5.59316 12.7719 5.57168 12.6312 5.6375C12.4906 5.70332 12.4008 5.84473 12.4008 6V6.4H5.60078V1.6C5.59941 1.31836 5.52285 1.04219 5.3791 0.8H17.2008C17.8635 0.8 18.4008 1.3373 18.4008 2V11.2H11.6008V10.8C11.6008 10.6447 11.5109 10.5033 11.3703 10.4375C11.2297 10.3717 11.0637 10.3932 10.9443 10.4928L8.54433 12.4928C8.45332 12.5688 8.40058 12.6813 8.40058 12.8C8.40058 12.9187 8.45332 13.0312 8.54433 13.1072L10.9443 15.1072C11.0637 15.2068 11.2297 15.2283 11.3703 15.1625C11.5109 15.0967 11.6008 14.9553 11.6008 14.8V14.4H18.4008V20.8ZM22.4008 13.6H11.2008C11.1492 13.6002 11.0982 13.6105 11.0508 13.6305C11.0361 13.6381 11.0221 13.6467 11.0084 13.6561C10.9797 13.6709 10.9527 13.6891 10.9283 13.7104C10.9154 13.7248 10.9035 13.74 10.8928 13.7561C10.8732 13.7785 10.8566 13.8031 10.8428 13.8297C10.835 13.8484 10.8289 13.868 10.8244 13.8881C10.816 13.9076 10.8094 13.9279 10.8047 13.9488L9.42558 12.8L10.8039 11.6512C10.8086 11.6721 10.8152 11.6924 10.8236 11.7119C10.8279 11.732 10.8342 11.7516 10.842 11.7703C10.8557 11.7969 10.8725 11.8215 10.892 11.8439C10.9027 11.86 10.9146 11.8752 10.9275 11.8896C10.952 11.9109 10.9789 11.9291 11.0076 11.9439C11.0213 11.9533 11.0353 11.9619 11.05 11.9695C11.0977 11.9896 11.149 12 11.2008 12H22.4008V13.6Z" fill="#154D80"/>
<path d="M7.19922 2.40039H11.1992V3.20039H7.19922V2.40039Z" fill="#154D80"/>
<path d="M7.19922 4H11.1992V4.8H7.19922V4Z" fill="#154D80"/>
<path d="M8.79883 17.5996H16.7988V18.3996H8.79883V17.5996Z" fill="#154D80"/>
<path d="M8.79883 19.2002H16.7988V20.0002H8.79883V19.2002Z" fill="#154D80"/>
<path d="M14.4004 16H16.8004V16.8H14.4004V16Z" fill="#154D80"/>
</svg>
