<svg width="25" height="25" viewBox="0 0 25 25" fill="none" xmlns="http://www.w3.org/2000/svg">
<g clip-path="url(#clip0)">
<path d="M24.117 2.57465L21.1046 1.06837C20.9377 0.984931 20.7447 0.97129 20.5678 1.03021C20.3909 1.08918 20.2446 1.21602 20.1613 1.38281L12.0712 17.5629H4.2207C4.22056 17.5629 4.22061 17.5629 4.22047 17.5629C2.20119 17.5629 0.505859 19.1946 0.505859 21.2792C0.505859 23.3276 2.17236 24.9941 4.2207 24.9941H13.2589C13.5253 24.9941 13.7687 24.8436 13.8878 24.6054L24.4315 3.51796C24.6051 3.17062 24.4644 2.74827 24.117 2.57465Z" fill="#CDD3D9"/>
<path d="M7.13398 12.9445C9.99875 12.9445 12.3558 11.722 12.3558 9.98196V9.00293C12.1021 9.21251 11.816 9.40605 11.4989 9.58118C10.3265 10.2285 8.77639 10.5851 7.13398 10.5851C5.49411 10.5851 3.94541 10.2294 2.77325 9.58366C2.45445 9.40802 2.16692 9.21382 1.91211 9.00335V9.98196C1.91211 11.7269 4.27737 12.9445 7.13398 12.9445Z" fill="#CDD3D9"/>
<path d="M7.13398 9.17885C9.99875 9.17885 12.3558 7.95645 12.3558 6.2164C12.3558 4.47144 9.99055 3.25391 7.13398 3.25391C4.26922 3.25386 1.91211 4.47631 1.91211 6.21636C1.91211 7.96137 4.27737 9.17885 7.13398 9.17885Z" fill="#CDD3D9"/>
</g>
<defs>
<clipPath id="clip0">
<rect width="24" height="24" fill="white" transform="translate(0.505859 0.994141)"/>
</clipPath>
</defs>
</svg>
