<svg width="25" height="25" viewBox="0 0 25 25" fill="none" xmlns="http://www.w3.org/2000/svg">
<g clip-path="url(#clip0)">
<path d="M14.8027 12.9941C14.8027 14.2627 13.7744 15.291 12.5059 15.291C11.2373 15.291 10.209 14.2627 10.209 12.9941C10.209 11.7256 11.2373 10.6973 12.5059 10.6973C13.7744 10.6973 14.8027 11.7256 14.8027 12.9941Z" fill="#CDD3D9"/>
<path d="M17.8782 8.93036C17.7678 8.63116 17.5916 8.36035 17.3627 8.13806C17.1404 7.90918 16.8698 7.73303 16.5704 7.62262C16.3276 7.52832 15.9629 7.41608 15.2911 7.3855C14.5643 7.35236 14.3464 7.34521 12.5066 7.34521C10.6666 7.34521 10.4487 7.35217 9.72211 7.38531C9.05029 7.41608 8.68536 7.52832 8.44275 7.62262C8.14337 7.73303 7.87256 7.90918 7.65045 8.13806C7.42157 8.36035 7.24542 8.63098 7.13483 8.93036C7.04053 9.17316 6.92828 9.53809 6.89771 10.2099C6.86456 10.9365 6.85742 11.1544 6.85742 12.9944C6.85742 14.8342 6.86456 15.0521 6.89771 15.7789C6.92828 16.4507 7.04053 16.8154 7.13483 17.0582C7.24542 17.3576 7.42139 17.6282 7.65027 17.8505C7.87256 18.0794 8.14319 18.2556 8.44257 18.366C8.68536 18.4604 9.05029 18.5727 9.72211 18.6033C10.4487 18.6364 10.6664 18.6434 12.5064 18.6434C14.3466 18.6434 14.5645 18.6364 15.2909 18.6033C15.9627 18.5727 16.3276 18.4604 16.5704 18.366C17.1714 18.1342 17.6464 17.6592 17.8782 17.0582C17.9725 16.8154 18.0847 16.4507 18.1155 15.7789C18.1486 15.0521 18.1556 14.8342 18.1556 12.9944C18.1556 11.1544 18.1486 10.9365 18.1155 10.2099C18.0849 9.53809 17.9727 9.17316 17.8782 8.93036ZM12.5066 16.5325C10.5523 16.5325 8.96808 14.9485 8.96808 12.9942C8.96808 11.0399 10.5523 9.45587 12.5066 9.45587C14.4607 9.45587 16.0449 11.0399 16.0449 12.9942C16.0449 14.9485 14.4607 16.5325 12.5066 16.5325ZM16.1848 10.1429C15.7281 10.1429 15.3579 9.77264 15.3579 9.31598C15.3579 8.85931 15.7281 8.48907 16.1848 8.48907C16.6415 8.48907 17.0117 8.85931 17.0117 9.31598C17.0115 9.77264 16.6415 10.1429 16.1848 10.1429Z" fill="#CDD3D9"/>
<path d="M12.5059 0.994141C5.87946 0.994141 0.505859 6.36774 0.505859 12.9941C0.505859 19.6205 5.87946 24.9941 12.5059 24.9941C19.1323 24.9941 24.5059 19.6205 24.5059 12.9941C24.5059 6.36774 19.1323 0.994141 12.5059 0.994141ZM19.3549 15.835C19.3216 16.5685 19.205 17.0693 19.0347 17.5077C18.6767 18.4333 17.945 19.165 17.0194 19.5229C16.5812 19.6932 16.0803 19.8097 15.3469 19.8432C14.6121 19.8767 14.3774 19.8848 12.506 19.8848C10.6345 19.8848 10.4 19.8767 9.66498 19.8432C8.93164 19.8097 8.43066 19.6932 7.99249 19.5229C7.53253 19.3499 7.11615 19.0787 6.77191 18.7281C6.42145 18.384 6.15027 17.9675 5.97723 17.5077C5.80695 17.0695 5.69031 16.5685 5.65698 15.8352C5.62311 15.1002 5.61523 14.8655 5.61523 12.9941C5.61523 11.1228 5.62311 10.8881 5.6568 10.1533C5.69012 9.41974 5.80658 8.91895 5.97687 8.48059C6.1499 8.02081 6.42126 7.60425 6.77191 7.26019C7.11597 6.90955 7.53253 6.63837 7.99231 6.46533C8.43066 6.29504 8.93146 6.17859 9.66498 6.14508C10.3998 6.11157 10.6345 6.10352 12.5059 6.10352C14.3772 6.10352 14.6119 6.11157 15.3467 6.14526C16.0803 6.17859 16.5811 6.29504 17.0194 6.46515C17.4792 6.63818 17.8958 6.90955 18.24 7.26019C18.5905 7.60443 18.8618 8.02081 19.0347 8.48059C19.2051 8.91895 19.3216 9.41974 19.3551 10.1533C19.3886 10.8881 19.3965 11.1228 19.3965 12.9941C19.3965 14.8655 19.3886 15.1002 19.3549 15.835Z" fill="#CDD3D9"/>
</g>
<defs>
<clipPath id="clip0">
<rect width="24" height="24" fill="white" transform="translate(0.505859 0.994141)"/>
</clipPath>
</defs>
</svg>
