<svg width="39" height="38" viewBox="0 0 39 38" fill="none" xmlns="http://www.w3.org/2000/svg">
<path d="M19.5347 14C16.7803 14 14.5347 16.2456 14.5347 19C14.5347 21.7544 16.7803 24 19.5347 24C22.2891 24 24.5347 21.7544 24.5347 19C24.5347 16.2456 22.2891 14 19.5347 14Z" fill="#154D80"/>
<path d="M31.948 0H7.10257C3.48084 0 0.534668 2.94617 0.534668 6.5679V31.4321C0.534668 35.0538 3.48084 38 7.10257 38H31.9668C35.5885 38 38.5347 35.0538 38.5347 31.4321V6.5679C38.5159 2.94617 35.5697 0 31.948 0ZM19.5253 29.9684C13.4828 29.9684 8.54751 25.0519 8.54751 18.9906C8.54751 12.9294 13.4641 8.01284 19.5253 8.01284C25.5865 8.01284 30.5031 12.9294 30.5031 18.9906C30.5031 25.0519 25.5678 29.9684 19.5253 29.9684ZM34.5189 6.71803C34.5189 8.21926 33.2991 9.43901 31.7979 9.43901C30.2966 9.43901 29.0769 8.21926 29.0769 6.71803C29.0769 5.21679 30.2966 3.99704 31.7979 3.99704C33.2991 3.99704 34.5189 5.21679 34.5189 6.71803Z" fill="#154D80"/>
</svg>
