<svg width="31" height="31" viewBox="0 0 31 31" fill="none" xmlns="http://www.w3.org/2000/svg">
<g clip-path="url(#clip0)">
<path d="M29.874 21.5416C29.874 21.5416 29.9285 21.8708 29.874 22.3751C28.9275 27.789 17.9316 29.0143 15.4886 22.6679C13.0601 29.0026 2.05258 27.803 1.1043 22.3751C1.0498 21.8708 1.1043 21.5416 1.1043 21.5416C1.33627 19.3035 3.34293 18.8145 3.34293 18.8145C2.67403 19.7668 2.9827 20.847 2.9827 20.847C3.30368 22.453 6.66866 22.8303 8.76439 20.6103C10.2838 19.0013 11.7575 18.8537 11.7575 18.8537C13.9961 18.6223 15.4821 20.253 15.485 20.2507C15.5676 20.1663 17.0232 18.6264 19.2208 18.8537C19.2208 18.8537 20.6945 19.0013 22.2133 20.6103C24.3102 22.8308 27.6746 22.4524 27.9956 20.847C27.9956 20.847 28.3037 19.7669 27.6354 18.8145C27.6354 18.8144 29.6426 19.3035 29.874 21.5416Z" fill="#154D80"/>
<path d="M27.7048 9.96828C28.0287 9.96828 28.2905 9.7059 28.2905 9.38258C28.2905 9.05926 28.0287 8.79688 27.7048 8.79688C27.3815 8.79688 27.1191 9.05926 27.1191 9.38258C27.1191 9.7059 27.3815 9.96828 27.7048 9.96828Z" fill="#154D80"/>
<path d="M3.30836 9.96828C3.63168 9.96828 3.89406 9.7059 3.89406 9.38258C3.89406 9.05926 3.63168 8.79688 3.30836 8.79688C2.98445 8.79688 2.72266 9.05926 2.72266 9.38258C2.72266 9.7059 2.98445 9.96828 3.30836 9.96828Z" fill="#154D80"/>
<path d="M6.89465 16.9977C8.99471 16.9977 11.4138 15.8279 12.7774 14.1532C14.0233 12.6239 14.6939 10.8049 14.6042 9.22993C14.8222 9.00651 15.1266 8.79751 15.5037 8.79751C15.8809 8.79751 16.1853 9.00651 16.4032 9.22993C16.3135 10.8049 16.9841 12.6239 18.23 14.153C19.6369 15.8811 21.8938 16.9977 23.9798 16.9977C28.9562 16.9977 30.9291 11.5549 30.421 8.65969C29.8804 5.58416 27.301 4.45312 24.1784 4.45312C22.97 4.45312 21.8906 4.53674 20.9661 4.70174C20.9435 4.6991 20.9205 4.69734 20.8972 4.69734H10.1116C10.0779 4.69734 10.045 4.7008 10.0129 4.70631C9.05723 4.54049 7.91611 4.45312 6.69625 4.45312C2.84177 4.45312 1.00673 6.26983 0.586548 8.65987C0.0402193 11.7728 2.2819 16.9977 6.89465 16.9977ZM15.5037 7.62598C15.1019 7.62598 14.7109 7.73807 14.3513 7.94965C14.0681 7.10116 13.5892 6.3992 12.9194 5.86295H18.088C17.4178 6.39932 16.9389 7.10122 16.656 7.94954C16.2964 7.73807 15.9054 7.62598 15.5037 7.62598ZM29.2672 8.86243C29.6586 11.0929 28.1425 15.8263 23.9798 15.8263C22.259 15.8263 20.3134 14.8566 19.1384 13.4133C18.1257 12.1705 17.3195 10.3416 17.6348 8.81011C18.0079 7.00536 19.2189 6.23157 21.0133 5.88457C21.8902 5.71453 22.9846 5.62471 24.1784 5.62471C26.7036 5.62459 28.8319 6.38602 29.2672 8.86243ZM1.7402 8.86261C2.16729 6.43301 4.23876 5.62465 6.69607 5.62465C8.05164 5.62465 10.3318 5.7559 11.5383 6.36791C12.5508 6.88102 13.1337 7.65715 13.3725 8.80975C13.6886 10.3458 12.8816 12.1704 11.8689 13.4135C10.5192 15.0713 8.34426 15.8263 6.89459 15.8263C3.03325 15.8262 1.3229 11.2413 1.7402 8.86261Z" fill="#154D80"/>
<path d="M3.65348 11.1154C3.35535 11.2409 3.21543 11.5844 3.34099 11.8825C3.84338 13.0757 4.61049 13.9513 5.501 14.3481C5.79538 14.4793 6.1422 14.348 6.27438 14.0515C6.40599 13.756 6.27315 13.4097 5.97772 13.2781C5.36911 13.0069 4.80157 12.3325 4.42065 11.4279C4.29508 11.1298 3.95166 10.9898 3.65348 11.1154Z" fill="#154D80"/>
<path d="M25.2737 14.3989C25.3533 14.3989 25.4344 14.3826 25.5119 14.348C26.4019 13.9511 27.1684 13.0755 27.6701 11.8822C27.7955 11.584 27.6554 11.2406 27.3572 11.1153C27.0592 10.9899 26.7156 11.1299 26.5902 11.4282C26.2099 12.3326 25.643 13.0069 25.0349 13.2781C24.7394 13.4098 24.6067 13.7561 24.7384 14.0516C24.8356 14.2695 25.0494 14.3989 25.2737 14.3989Z" fill="#154D80"/>
</g>
<defs>
<clipPath id="clip0">
<rect width="30" height="30" fill="white" transform="translate(0.505859 0.994141)"/>
</clipPath>
</defs>
</svg>
