<svg width="29" height="28" viewBox="0 0 29 28" fill="none" xmlns="http://www.w3.org/2000/svg">
<g clip-path="url(#clip0)">
<path d="M14.5352 0C12.6793 0.00212286 10.9 0.740302 9.58775 2.0526C8.27546 3.36489 7.53728 5.14414 7.53516 7C7.53516 7.46413 7.71953 7.90925 8.04772 8.23744C8.37591 8.56563 8.82103 8.75 9.28516 8.75C9.74928 8.75 10.1944 8.56563 10.5226 8.23744C10.8508 7.90925 11.0352 7.46413 11.0352 7C11.0352 6.07174 11.4039 5.1815 12.0603 4.52513C12.7167 3.86875 13.6069 3.5 14.5352 3.5C15.4634 3.5 16.3537 3.86875 17.01 4.52513C17.6664 5.1815 18.0352 6.07174 18.0352 7C18.0352 8.51757 17.1431 9.44898 15.6768 10.8025C14.3198 12.0517 12.7852 13.4668 12.7852 15.75C12.7852 16.2141 12.9695 16.6592 13.2977 16.9874C13.6259 17.3156 14.071 17.5 14.5352 17.5C14.9993 17.5 15.4444 17.3156 15.7726 16.9874C16.1008 16.6592 16.2852 16.2141 16.2852 15.75C16.2852 15.0373 16.9551 14.3828 18.0488 13.3745C19.5185 12.0176 21.5352 10.1599 21.5352 7C21.533 5.14414 20.7949 3.36489 19.4826 2.0526C18.1703 0.740302 16.391 0.00212286 14.5352 0V0Z" fill="#CE091D"/>
<path d="M14.5352 21C13.8429 21 13.1662 21.2053 12.5907 21.5899C12.0151 21.9744 11.5665 22.5211 11.3016 23.1606C11.0367 23.8002 10.9674 24.5039 11.1024 25.1828C11.2375 25.8618 11.5708 26.4854 12.0603 26.9749C12.5498 27.4644 13.1734 27.7977 13.8523 27.9328C14.5313 28.0678 15.235 27.9985 15.8745 27.7336C16.5141 27.4687 17.0607 27.0201 17.4453 26.4445C17.8299 25.8689 18.0352 25.1922 18.0352 24.5C18.0342 23.572 17.6652 22.6823 17.009 22.0261C16.3528 21.37 15.4631 21.0009 14.5352 21Z" fill="#CE091D"/>
</g>
<defs>
<clipPath id="clip0">
<rect width="28" height="28" fill="white" transform="translate(0.535156)"/>
</clipPath>
</defs>
</svg>
