<svg width="25" height="25" viewBox="0 0 25 25" fill="none" xmlns="http://www.w3.org/2000/svg">
<g clip-path="url(#clip0)">
<path d="M20.9902 0.994141C19.3248 0.994141 17.702 1.1957 16.1457 1.5768L23.9218 9.35289C24.3095 7.76945 24.5059 6.14383 24.5059 4.50977C24.5059 2.57148 22.929 0.994141 20.9902 0.994141ZM14.6007 2.02117C11.536 3.03555 8.77789 4.76055 6.52508 7.01336C4.18977 9.34867 2.51445 12.1209 1.53383 15.0899L10.4105 23.9671C13.4757 22.9532 16.2338 21.2277 18.4866 18.9749C20.822 16.6396 22.4973 13.8674 23.4779 10.8984L14.6007 2.02117ZM17.9251 8.56961L16.313 10.1816L16.5188 10.3874C16.793 10.6621 16.793 11.1074 16.5188 11.3821C16.2441 11.6563 15.7988 11.6563 15.5241 11.3821L15.3184 11.1763L13.5005 12.9941L13.7063 13.1999C13.9805 13.4746 13.9805 13.9199 13.7063 14.1946C13.4316 14.4688 12.9863 14.4688 12.7116 14.1946L12.5059 13.9888L10.688 15.8066L10.8938 16.0124C11.168 16.2871 11.168 16.7324 10.8938 17.0071C10.6191 17.2813 10.1738 17.2813 9.89914 17.0071L9.69336 16.8013L8.08133 18.4134C7.80664 18.6876 7.36133 18.6876 7.08664 18.4134C6.81242 18.1387 6.81242 17.6934 7.08664 17.4187L8.69867 15.8066L8.49289 15.6009C8.21867 15.3262 8.21867 14.8809 8.49289 14.6062C8.76758 14.332 9.21289 14.332 9.48758 14.6062L9.69336 14.812L11.5112 12.9941L11.3054 12.7884C11.0312 12.5137 11.0312 12.0684 11.3054 11.7937C11.5801 11.5195 12.0254 11.5195 12.3001 11.7937L12.5059 11.9995L14.3237 10.1816L14.1179 9.97586C13.8437 9.70117 13.8437 9.25586 14.1179 8.98117C14.3926 8.70695 14.8379 8.70695 15.1126 8.98117L15.3184 9.18695L16.9304 7.57492C17.2051 7.3007 17.6504 7.3007 17.9251 7.57492C18.1993 7.84961 18.1993 8.29492 17.9251 8.56961ZM1.08992 16.6354C0.702266 18.2188 0.505859 19.8445 0.505859 21.4785C0.505859 23.4168 2.08273 24.9941 4.02148 24.9941C5.68695 24.9941 7.31023 24.7926 8.86648 24.4115L1.08992 16.6354Z" fill="#CDD3D9"/>
</g>
<defs>
<clipPath id="clip0">
<rect width="24" height="24" fill="white" transform="translate(0.505859 0.994141)"/>
</clipPath>
</defs>
</svg>
