<svg width="25" height="25" viewBox="0 0 25 25" fill="none" xmlns="http://www.w3.org/2000/svg">
<path d="M23.7405 22.8543L18.0285 16.9135C19.4972 15.1676 20.3019 12.971 20.3019 10.6841C20.3019 5.34115 15.9548 0.994141 10.6119 0.994141C5.26889 0.994141 0.921875 5.34115 0.921875 10.6841C0.921875 16.0271 5.26889 20.3741 10.6119 20.3741C12.6177 20.3741 14.5291 19.7691 16.1634 18.6207L21.9188 24.6065C22.1594 24.8564 22.4829 24.9941 22.8297 24.9941C23.1579 24.9941 23.4692 24.869 23.7056 24.6415C24.2078 24.1583 24.2238 23.357 23.7405 22.8543ZM10.6119 3.52196C14.5612 3.52196 17.774 6.73483 17.774 10.6841C17.774 14.6334 14.5612 17.8463 10.6119 17.8463C6.66256 17.8463 3.4497 14.6334 3.4497 10.6841C3.4497 6.73483 6.66256 3.52196 10.6119 3.52196Z" fill="#FCFDFF"/>
</svg>
