<svg width="27" height="26" viewBox="0 0 27 26" fill="none" xmlns="http://www.w3.org/2000/svg">
<path d="M13.5059 0.244141C6.47536 0.244141 0.755859 5.96356 0.755859 12.9946C0.755859 20.0252 6.47528 25.7442 13.5059 25.7442C20.5368 25.7442 26.2559 20.0252 26.2559 12.9946C26.2559 5.96356 20.5368 0.244141 13.5059 0.244141ZM5.31854 21.5526C3.06241 19.3936 1.65298 16.3561 1.65298 12.9946C1.65298 12.9236 1.65696 12.8544 1.65823 12.7848L4.95969 13.9216L7.2697 19.8764L5.31854 21.5526ZM8.02141 4.06273L14.0159 1.906L18.3072 5.90925L14.781 10.9578L8.22114 9.71117L8.02141 4.06273ZM21.4226 21.8062C21.1746 22.0296 20.917 22.242 20.6517 22.444L15.7237 24.5493L12.4958 21.185L16.6856 16.4696L22.2829 17.1582L21.4226 21.8062ZM23.0013 5.90705C24.4818 7.88529 25.3597 10.3392 25.3597 12.9945C25.3597 13.0655 25.3553 13.1361 25.354 13.2065L24.6861 13.0375L22.6702 7.35234L23.0013 5.90705Z" fill="#154D80"/>
</svg>
