<svg width="25" height="25" viewBox="0 0 25 25" fill="none" xmlns="http://www.w3.org/2000/svg">
<path d="M12.5059 0.994141C5.88936 0.994141 0.505859 6.37764 0.505859 12.9941C0.505859 19.6106 5.88936 24.9941 12.5059 24.9941C19.1224 24.9941 24.5059 19.6106 24.5059 12.9941C24.5059 6.37764 19.1224 0.994141 12.5059 0.994141ZM13.2679 4.89264L16.3534 3.23364C18.0619 3.91014 19.5529 5.01864 20.6869 6.42864L19.9519 9.82164L17.5984 10.9751L13.2679 7.82064V4.89264ZM8.68386 3.22464L11.7694 4.88964V7.82064L7.44186 10.9751L5.07636 9.82014L4.34136 6.40614C5.47836 4.99914 6.97236 3.89664 8.68386 3.22464ZM3.85086 18.9251C2.87136 17.5001 2.23386 15.8246 2.05836 14.0141L4.59786 11.2556L6.91386 12.3881L8.65836 17.3426L7.18386 19.1096L3.85086 18.9251ZM15.1804 23.1356C14.3239 23.3621 13.4314 23.4941 12.5059 23.4941C11.3869 23.4941 10.3099 23.3141 9.29736 22.9886L8.35386 20.0516L9.85836 18.2441H15.1594L16.6369 19.9931L15.1804 23.1356ZM17.8069 19.0586L16.3564 17.3411L18.1249 12.3881L20.4304 11.2586L22.9549 14.0156C22.8034 15.5771 22.3009 17.0336 21.5374 18.3221L17.8069 19.0586Z" fill="#CDD3D9"/>
</svg>
