<svg width="56" height="53" viewBox="0 0 56 53" fill="none" xmlns="http://www.w3.org/2000/svg">
<path d="M55.225 19.9678C54.8279 18.7763 53.7998 17.9118 52.5616 17.7249L37.6789 15.5521L31.0203 2.07131C30.4596 0.949858 29.3148 0.225586 28.0531 0.225586C26.7915 0.225586 25.6467 0.949858 25.0859 2.07131L18.4273 15.5521L3.54467 17.7249C2.30639 17.9118 1.27839 18.7763 0.881213 19.9678C0.484031 21.1594 0.811119 22.4677 1.7223 23.3556L12.4929 33.8458L9.9463 48.6817C9.73603 49.92 10.25 51.1582 11.2547 51.9059C12.2827 52.6535 13.6144 52.747 14.7358 52.1629L28.0531 45.1538L41.3704 52.1629C41.8844 52.4199 43.5432 52.8404 44.8516 51.9059C45.8796 51.1816 46.3702 49.92 46.1599 48.6817L43.6133 33.8458L54.3839 23.3556C55.2718 22.4911 55.5989 21.1594 55.225 19.9678ZM37.8191 30.3413C37.0481 31.0889 36.6977 32.187 36.8612 33.2617L38.5668 43.2146L29.6185 38.5185C28.0765 38.0045 28.0765 38.0045 26.5578 38.5185L17.6329 43.2146L19.3385 33.2617C19.5254 32.187 19.1749 31.1123 18.3806 30.3413L11.1612 23.2855L21.1608 21.8369C22.2356 21.6734 23.1701 20.9958 23.6374 20.0379L28.0998 10.9962L32.5623 20.0379C33.0529 21.0192 33.9641 21.6967 35.0388 21.8369L45.0385 23.2855L37.8191 30.3413Z" fill="#E73A4B"/>
</svg>
