<svg width="140" height="140" viewBox="0 0 140 140" fill="none" xmlns="http://www.w3.org/2000/svg">
<circle cx="95" cy="95" r="45" fill="#CE091D"/>
<circle cx="95" cy="95" r="33" fill="#CE091D" stroke="white" stroke-width="4"/>
<path d="M84.5908 118C83.3536 118 82.3508 116.997 82.3508 115.76V108.976H78.4787C77.5067 108.976 76.7188 108.188 76.7188 107.216C76.7188 106.244 77.5067 105.456 78.4787 105.456H82.3508V101.232H78.7027C77.607 101.232 76.7188 100.343 76.7188 99.2476C76.7188 98.1518 77.607 97.2636 78.7028 97.2636H82.3508V72.5596H97.9668C100.74 72.5596 103.129 73.2636 105.135 74.6716C107.183 76.0796 108.74 77.8716 109.807 80.0476C110.916 82.2236 111.471 84.4849 111.471 86.8316C111.471 89.3062 110.959 91.6529 109.935 93.8716C108.911 96.0476 107.417 97.8182 105.455 99.1836C103.492 100.549 101.145 101.232 98.4148 101.232H86.8308V105.456H96.2708C97.2428 105.456 98.0308 106.244 98.0308 107.216C98.0308 108.188 97.2428 108.976 96.2708 108.976H86.8308V115.76C86.8308 116.997 85.8279 118 84.5908 118ZM86.8308 97.2636H98.1588C100.249 97.2636 101.935 96.7729 103.215 95.7916C104.537 94.8102 105.497 93.5302 106.095 91.9516C106.692 90.3729 106.991 88.6662 106.991 86.8316C106.991 84.9542 106.628 83.2476 105.903 81.7116C105.177 80.1329 104.132 78.8742 102.767 77.9356C101.401 76.9969 99.7161 76.5276 97.7108 76.5276H86.8308V97.2636Z" fill="white"/>
<path d="M96.1234 33.123C96.0904 29.4653 94.6142 25.9687 92.016 23.3939C89.4178 20.8192 85.9078 19.3748 82.25 19.375C81.9516 19.375 81.6655 19.2565 81.4545 19.0455C81.2435 18.8345 81.125 18.5484 81.125 18.25C81.125 17.9516 81.2435 17.6655 81.4545 17.4545C81.6655 17.2435 81.9516 17.125 82.25 17.125C86.5064 17.1211 90.5914 18.8019 93.6125 21.8002C96.6335 24.7986 98.3452 28.8707 98.3735 33.127L97.25 34.625L96.1234 33.123ZM91.85 32.425L96.35 38.425C96.4548 38.5647 96.5907 38.6781 96.7469 38.7562C96.9031 38.8343 97.0753 38.875 97.25 38.875C97.4246 38.875 97.5969 38.8343 97.7531 38.7562C97.9093 38.6781 98.0452 38.5647 98.15 38.425L102.65 32.425C102.829 32.1863 102.906 31.8863 102.864 31.5909C102.821 31.2955 102.664 31.029 102.425 30.85C102.186 30.671 101.886 30.5941 101.591 30.6363C101.296 30.6785 101.029 30.8363 100.85 31.075L97.25 35.875L93.65 31.075C93.5614 30.9568 93.4503 30.8572 93.3232 30.782C93.1961 30.7067 93.0553 30.6572 92.9091 30.6363C92.7628 30.6154 92.6139 30.6235 92.4708 30.6602C92.3277 30.6969 92.1932 30.7614 92.075 30.85C91.8363 31.029 91.6785 31.2955 91.6363 31.5909C91.6154 31.7372 91.6235 31.8861 91.6602 32.0292C91.6969 32.1723 91.7614 32.3068 91.85 32.425Z" fill="#CE091D"/>
<path d="M33.123 96.1234C29.4653 96.0904 25.9687 94.6142 23.3939 92.016C20.8192 89.4178 19.3748 85.9078 19.375 82.25C19.375 81.9516 19.2565 81.6655 19.0455 81.4545C18.8345 81.2435 18.5484 81.125 18.25 81.125C17.9516 81.125 17.6655 81.2435 17.4545 81.4545C17.2435 81.6655 17.125 81.9516 17.125 82.25C17.1211 86.5064 18.8019 90.5914 21.8002 93.6125C24.7986 96.6335 28.8707 98.3452 33.127 98.3735L34.625 97.25L33.123 96.1234ZM32.425 91.85L38.425 96.35C38.5647 96.4548 38.6781 96.5907 38.7562 96.7469C38.8343 96.9031 38.875 97.0753 38.875 97.25C38.875 97.4246 38.8343 97.5969 38.7562 97.7531C38.6781 97.9093 38.5647 98.0452 38.425 98.15L32.425 102.65C32.1863 102.829 31.8863 102.906 31.5909 102.864C31.2955 102.821 31.029 102.664 30.85 102.425C30.671 102.186 30.5941 101.886 30.6363 101.591C30.6785 101.296 30.8363 101.029 31.075 100.85L35.875 97.25L31.075 93.65C30.9568 93.5614 30.8572 93.4503 30.782 93.3232C30.7067 93.1961 30.6572 93.0553 30.6363 92.9091C30.6154 92.7628 30.6235 92.6139 30.6602 92.4708C30.6969 92.3277 30.7614 92.1932 30.85 92.075C31.029 91.8363 31.2955 91.6785 31.5909 91.6363C31.7372 91.6154 31.8861 91.6235 32.0292 91.6602C32.1723 91.6969 32.3068 91.7614 32.425 91.85Z" fill="#CE091D"/>
<circle cx="35" cy="35" r="35" fill="#CE091D"/>
<path d="M35 60C48.8074 60 60 48.8074 60 35C60 21.1926 48.8074 10 35 10C21.1926 10 10 21.1926 10 35C10.0159 48.8007 21.1993 59.9841 35 60ZM12.5 35C12.5067 33.2098 12.7283 31.427 13.1592 29.6893L23.5382 38.4308L19.198 50.9937C14.9109 46.7761 12.4982 41.0138 12.5 35ZM40.0317 26.1597C40.2087 26.5729 40.5939 26.8591 41.0407 26.9092L54.4702 28.4174L44.195 37.0721C43.7994 37.4054 43.6499 37.9474 43.8184 38.4363L48.0652 50.7275L35.3034 47.5372C35.1044 47.4878 34.8956 47.4878 34.6967 47.5372L21.9348 50.7275L26.1816 38.4363C26.3501 37.9474 26.2006 37.4054 25.8051 37.0721L15.5298 28.4174L28.9594 26.9092C29.4061 26.8591 29.7913 26.5729 29.9683 26.1597L35 14.4226L40.0317 26.1597ZM21.9574 53.299L35 50.0385L48.0426 53.299C40.2496 58.9002 29.7504 58.9002 21.9574 53.299ZM50.802 50.9937L46.4618 38.4308L56.8408 29.6893C58.7494 37.359 56.4514 45.4663 50.802 50.9937ZM55.6238 26.0315L42.0429 24.5062L36.9379 12.5983C45.1556 13.3179 52.3236 18.4711 55.6238 26.0315ZM33.0621 12.5983L27.9572 24.5062L14.3762 26.0315C17.6764 18.4711 24.8444 13.3179 33.0621 12.5983Z" fill="white"/>
</svg>
