<svg width="140" height="140" viewBox="0 0 140 140" fill="none" xmlns="http://www.w3.org/2000/svg">
<circle cx="70" cy="70" r="70" fill="#154D80"/>
<path d="M70 120C97.6147 120 120 97.6147 120 70C120 42.3853 97.6147 20 70 20C42.3853 20 20 42.3853 20 70C20.0317 97.6013 42.3987 119.968 70 120ZM25 70C25.0134 66.4197 25.4565 62.854 26.3184 59.3787L47.0764 76.8616L38.396 101.987C29.8218 93.5522 24.9963 82.0276 25 70ZM80.0635 52.3193C80.4175 53.1458 81.1877 53.7183 82.0813 53.8184L108.94 56.8347L88.3899 74.1443C87.5989 74.8108 87.2998 75.8948 87.6367 76.8726L96.1304 101.455L70.6067 95.0745C70.2087 94.9756 69.7913 94.9756 69.3933 95.0745L43.8696 101.455L52.3633 76.8726C52.7002 75.8948 52.4011 74.8108 51.6101 74.1443L31.0596 56.8347L57.9187 53.8184C58.8123 53.7183 59.5825 53.1458 59.9365 52.3193L70 28.8452L80.0635 52.3193ZM43.9148 106.598L70 100.077L96.0852 106.598C80.4993 117.8 59.5007 117.8 43.9148 106.598ZM101.604 101.987L92.9236 76.8616L113.682 59.3787C117.499 74.718 112.903 90.9326 101.604 101.987ZM111.248 52.063L84.0857 49.0125L73.8757 25.1965C90.3113 26.6357 104.647 36.9421 111.248 52.063ZM66.1243 25.1965L55.9143 49.0125L28.7524 52.063C35.3528 36.9421 49.6887 26.6357 66.1243 25.1965Z" fill="white"/>
</svg>
