<svg width="20" height="20" viewBox="0 0 20 20" fill="none" xmlns="http://www.w3.org/2000/svg">
<g clip-path="url(#clip0)">
<path d="M14.5759 5.40702C14.509 5.20628 14.3358 5.06064 14.1272 5.02915L11.6199 4.6631L10.4981 2.392C10.4036 2.20307 10.2108 2.08105 9.99824 2.08105C9.78569 2.08105 9.59282 2.20307 9.49836 2.392L8.37658 4.6631L5.86932 5.02915C5.66071 5.06064 5.48752 5.20628 5.42061 5.40702C5.35369 5.60775 5.4088 5.82817 5.5623 5.97774L7.37682 7.74503L6.94779 10.2444C6.91237 10.453 6.99896 10.6616 7.16821 10.7876C7.3414 10.9135 7.56575 10.9293 7.75469 10.8309L9.99824 9.65007L12.2418 10.8309C12.3284 10.8742 12.6078 10.945 12.8283 10.7876C13.0014 10.6656 13.0841 10.453 13.0487 10.2444L12.6196 7.74503L14.4342 5.97774C14.5837 5.83211 14.6388 5.60775 14.5759 5.40702ZM11.6435 7.15462C11.5136 7.28057 11.4546 7.46557 11.4821 7.64663L11.7695 9.32338L10.262 8.53224C10.0022 8.44564 10.0022 8.44564 9.74633 8.53224L8.24276 9.32338L8.53009 7.64663C8.56158 7.46557 8.50254 7.28451 8.36871 7.15462L7.15247 5.96593L8.8371 5.7219C9.01816 5.69435 9.1756 5.5802 9.25432 5.41882L10.0061 3.89557L10.7579 5.41882C10.8406 5.58414 10.9941 5.69828 11.1751 5.7219L12.8597 5.96593L11.6435 7.15462Z" fill="#154D80"/>
<path d="M19.9704 12.4324C19.9035 12.2317 19.7303 12.086 19.5217 12.0545L17.0144 11.6885L15.8926 9.41739C15.7982 9.22846 15.6053 9.10645 15.3928 9.10645C15.1802 9.10645 14.9874 9.22846 14.8929 9.41739L13.7711 11.6885L11.2638 12.0545C11.0552 12.086 10.8821 12.2317 10.8151 12.4324C10.7482 12.6331 10.8033 12.8536 10.9568 13.0031L12.7714 14.7704L12.3423 17.2698C12.3069 17.4784 12.3935 17.687 12.5627 17.813C12.7359 17.9389 12.9603 17.9547 13.1492 17.8563L15.3928 16.6755L17.6363 17.8563C17.719 17.8996 17.9984 17.9704 18.2228 17.813C18.396 17.691 18.4786 17.4784 18.4432 17.2698L18.0142 14.7704L19.8287 13.0031C19.9822 12.8536 20.0373 12.6331 19.9704 12.4324ZM17.0302 14.1761C16.9003 14.302 16.8412 14.487 16.8688 14.6681L17.1561 16.3448L15.6525 15.5537C15.3928 15.4671 15.3928 15.4671 15.1369 15.5537L13.6334 16.3448L13.9207 14.6681C13.9522 14.487 13.8931 14.306 13.7593 14.1761L12.5431 12.9913L14.2277 12.7473C14.4088 12.7197 14.5662 12.6056 14.6449 12.4442L15.3967 10.921L16.1485 12.4442C16.2311 12.6095 16.3847 12.7237 16.5657 12.7473L18.2503 12.9913L17.0302 14.1761Z" fill="#154D80"/>
<path d="M9.18327 12.4324C9.11636 12.2317 8.94317 12.0821 8.73456 12.0545L6.2273 11.6885L5.10553 9.41739C5.01106 9.22846 4.8182 9.10645 4.60565 9.10645C4.3931 9.10645 4.20024 9.22846 4.10577 9.41739L2.984 11.6885L0.476737 12.0545C0.268127 12.086 0.0949407 12.2317 0.0280279 12.4324C-0.0388849 12.6331 0.0162198 12.8536 0.169726 13.0031L1.98424 14.7704L1.55521 17.2698C1.51979 17.4784 1.60638 17.687 1.77563 17.813C1.94882 17.9389 2.17317 17.9547 2.3621 17.8563L4.60565 16.6755L6.8492 17.8563C6.93185 17.8996 7.21131 17.9704 7.43567 17.813C7.60885 17.691 7.69151 17.4784 7.65609 17.2698L7.22706 14.7704L9.04158 13.0031C9.19115 12.8575 9.24625 12.6331 9.18327 12.4324ZM6.24305 14.1761C6.11316 14.302 6.05412 14.487 6.08167 14.6681L6.369 16.3448L4.86543 15.5537C4.60565 15.4671 4.60565 15.4671 4.34981 15.5537L2.84624 16.3448L3.13357 14.6681C3.16506 14.487 3.10602 14.306 2.97219 14.1761L1.75202 12.9913L3.43664 12.7473C3.6177 12.7197 3.77514 12.6056 3.85387 12.4442L4.60565 10.921L5.35744 12.4442C5.44009 12.6095 5.5936 12.7237 5.77466 12.7473L7.45928 12.9913L6.24305 14.1761Z" fill="#154D80"/>
</g>
<defs>
<clipPath id="clip0">
<rect width="20" height="20" fill="white"/>
</clipPath>
</defs>
</svg>
