<svg width="21" height="20" viewBox="0 0 21 20" fill="none" xmlns="http://www.w3.org/2000/svg">
<g clip-path="url(#clip0)">
<path d="M20.3052 7.70549C20.2363 7.49334 20.053 7.33873 19.8323 7.3067L13.6322 6.40573L10.8594 0.787536C10.7607 0.587538 10.557 0.460938 10.334 0.460938C10.1109 0.460938 9.90726 0.587538 9.80855 0.787536L7.0356 6.40573L0.835655 7.3067C0.614993 7.33873 0.431596 7.49334 0.36269 7.70545C0.293745 7.9176 0.351245 8.15045 0.51097 8.30611L4.99718 12.6793L3.93829 18.8543C3.90055 19.0742 3.99094 19.2963 4.17137 19.4274C4.27344 19.5016 4.39434 19.5393 4.51582 19.5393C4.6091 19.5393 4.70269 19.5171 4.7884 19.472L10.3339 16.5565L15.8792 19.472C16.0767 19.5757 16.3159 19.5585 16.4963 19.4274C16.6767 19.2963 16.7672 19.0741 16.7295 18.8543L15.6702 12.6793L20.1569 8.30607C20.3166 8.15044 20.3742 7.9176 20.3052 7.70549Z" fill="#0D5394"/>
</g>
<defs>
<clipPath id="clip0">
<rect width="19.9999" height="19.9999" fill="white" transform="translate(0.333984)"/>
</clipPath>
</defs>
</svg>
