<svg width="41" height="36" viewBox="0 0 41 36" fill="none" xmlns="http://www.w3.org/2000/svg">
<path d="M20.4892 3.96038C22.2219 3.96038 23.7185 2.85564 24.2561 1.23047C23.2304 1.51281 21.923 1.68322 20.4892 1.68322C19.0556 1.68322 17.7482 1.51281 16.7227 1.23047C17.26 2.8555 18.7565 3.96038 20.4892 3.96038Z" fill="#CDD3D9"/>
<path d="M40.4405 5.95883C40.3582 5.72792 40.187 5.53802 39.9639 5.43461L32.3378 1.91411C30.7156 1.36458 29.0629 0.93051 27.3942 0.613246C27.3354 0.601741 27.277 0.596191 27.2193 0.596191C26.8062 0.596191 26.4363 0.881378 26.3443 1.29962C25.7349 3.98229 23.3602 5.99078 20.4902 5.99078C17.6203 5.99078 15.2454 3.98242 14.6362 1.29962C14.5431 0.881378 14.1738 0.596191 13.761 0.596191C13.7033 0.596191 13.6449 0.601741 13.5861 0.613246C11.9175 0.93051 10.2649 1.36458 8.6401 1.91411L1.01668 5.43448C0.792265 5.53789 0.619827 5.72779 0.541458 5.9587C0.460382 6.19231 0.475 6.44447 0.589237 6.66483L3.89994 13.1985C4.05492 13.5086 4.37016 13.6947 4.70366 13.6947C4.78975 13.6947 4.87705 13.6823 4.96313 13.6564L8.64024 12.5666V34.4895C8.64024 34.9873 9.04643 35.3934 9.54561 35.3934H31.4351C31.9329 35.3934 32.3379 34.9872 32.3379 34.4895V12.5668L36.0176 13.6567C36.1037 13.6826 36.1908 13.695 36.2768 13.695C36.6096 13.695 36.9236 13.5089 37.0808 13.1988L40.3927 6.6651C40.5042 6.44461 40.5202 6.19245 40.4405 5.95883Z" fill="#CDD3D9"/>
</svg>
