<svg width="20" height="18" viewBox="0 0 20 18" fill="none" xmlns="http://www.w3.org/2000/svg">
<path d="M15.0787 0L14.8009 0.283771V0H13.4324C12.8154 0.972043 11.5127 1.64395 10.0003 1.64395C8.48842 1.64395 7.18574 0.972043 6.56872 0H5.20019V0.283771L4.92183 0L0 5.02044L2.69223 7.76732L5.20019 5.20943V18H14.7998V5.20999L17.3083 7.76788L20 5.02044L15.0787 0Z" fill="#0D5394"/>
<path d="M14.3212 17.9441H5.67867C5.12864 17.9441 4.68224 17.4977 4.68224 16.9477V8.05853L4.12524 8.61554C3.9384 8.80287 3.68481 8.90749 3.42026 8.90749C3.1562 8.90749 2.90211 8.80237 2.71528 8.61554L0.291457 6.18972C-0.0971523 5.80061 -0.0971523 5.17037 0.291457 4.78076L4.72359 0.347131C4.93982 0.130406 5.2522 0.0252828 5.55312 0.0631473C5.59448 0.0581651 5.63633 0.0551758 5.67867 0.0551758H6.91076C7.24856 0.0551758 7.56393 0.226562 7.74727 0.510048C8.13937 1.11588 9.0237 1.50698 10.0002 1.50698C10.9767 1.50698 11.8615 1.11588 12.2536 0.510048C12.437 0.226562 12.7519 0.0551758 13.0901 0.0551758H14.3222C14.3646 0.0551758 14.4064 0.0576669 14.4478 0.0631473C14.4886 0.0581651 14.53 0.0551758 14.5718 0.0551758C14.8359 0.0551758 15.09 0.160299 15.2773 0.347131L19.7085 4.78026C20.0971 5.16937 20.0971 5.79961 19.7085 6.18922L17.2851 8.61554C17.0983 8.80237 16.8447 8.90749 16.5807 8.90749C16.3166 8.90799 16.0625 8.80287 15.8757 8.61603L15.3182 8.05803V16.9477C15.3177 17.4982 14.8718 17.9441 14.3212 17.9441ZM6.67511 15.9513H13.3248V5.65264C13.3248 5.24958 13.5674 4.88638 13.9396 4.73194C14.3123 4.57699 14.7402 4.66268 15.0257 4.94816L16.5792 6.5016L17.5945 5.48524L14.4064 2.29516C14.2475 2.30961 14.0911 2.2847 13.9411 2.22292C13.837 2.18007 13.7428 2.12028 13.6611 2.04804H13.5754C12.7529 2.9548 11.4346 3.49985 10.0002 3.49985C8.56584 3.49985 7.24806 2.9548 6.425 2.04804H6.33931C6.2581 2.12028 6.16394 2.17957 6.05981 2.22292C5.90885 2.28519 5.74843 2.30712 5.59348 2.29516L2.40489 5.48574L3.42026 6.5021L4.9732 4.94816C5.25818 4.66268 5.68665 4.57749 6.05931 4.73194C6.43198 4.88638 6.67461 5.24958 6.67461 5.65264L6.67511 15.9513Z" fill="#0D5394"/>
</svg>
