<svg width="20" height="18" viewBox="0 0 20 18" fill="none" xmlns="http://www.w3.org/2000/svg">
<rect x="5" y="2" width="10" height="15" fill="#0D5394"/>
<rect x="14" y="2" width="4" height="5" rx="2" fill="#0D5394"/>
<rect x="2" y="2" width="4" height="6" rx="2" fill="#0D5394"/>
<path d="M14.3212 17.889H5.67867C5.12864 17.889 4.68224 17.4426 4.68224 16.8925V8.00335L4.12524 8.56036C3.9384 8.74769 3.68481 8.85232 3.42026 8.85232C3.1562 8.85232 2.90211 8.74719 2.71528 8.56036L0.291457 6.13454C-0.0971523 5.74544 -0.0971523 5.11519 0.291457 4.72559L4.72359 0.291955C4.93982 0.0752307 5.2522 -0.029893 5.55312 0.00797148C5.59448 0.00298932 5.63633 0 5.67867 0H6.91076C7.24856 0 7.56393 0.171386 7.74727 0.454872C8.13937 1.0607 9.0237 1.4518 10.0002 1.4518C10.9767 1.4518 11.8615 1.0607 12.2536 0.454872C12.437 0.171386 12.7519 0 13.0901 0H14.3222C14.3646 0 14.4064 0.0024911 14.4478 0.00797148C14.4886 0.00298932 14.53 0 14.5718 0C14.5723 0 14.5723 0 14.5723 0C14.8364 0 15.09 0.105124 15.2773 0.291955L19.7085 4.72509C20.0971 5.1142 20.0971 5.74444 19.7085 6.13404L17.2851 8.56036C17.0983 8.74719 16.8447 8.85232 16.5807 8.85232C16.5802 8.85232 16.5802 8.85232 16.5802 8.85232C16.3161 8.85281 16.0625 8.74769 15.8757 8.56086L15.3182 8.00286V16.8925C15.3177 17.4431 14.8718 17.889 14.3212 17.889ZM6.67511 15.8961H13.3248V5.59746C13.3248 5.19441 13.5674 4.83121 13.9396 4.67676C14.3123 4.52182 14.7402 4.60751 15.0257 4.89299L16.5792 6.44643L17.5945 5.43006L14.4064 2.23998C14.2475 2.25443 14.0911 2.22952 13.9411 2.16774C13.837 2.12489 13.7428 2.06511 13.6611 1.99287H13.5754C12.7529 2.89962 11.4346 3.44467 10.0002 3.44467C8.56584 3.44467 7.24806 2.89962 6.425 1.99287H6.33931C6.2581 2.06511 6.16394 2.1244 6.05981 2.16774C5.90885 2.23002 5.74842 2.25194 5.59348 2.23998L2.40489 5.43056L3.42026 6.44692L4.9732 4.89299C5.25818 4.60751 5.68665 4.52231 6.05931 4.67676C6.43198 4.83121 6.67461 5.19441 6.67461 5.59746V15.8961H6.67511Z" fill="#0D5394"/>
</svg>
