<svg width="21" height="20" viewBox="0 0 21 20" fill="none" xmlns="http://www.w3.org/2000/svg">
<path d="M10.666 11.25C11.3564 11.25 11.916 10.6903 11.916 9.99999C11.916 9.30964 11.3564 8.75 10.666 8.75C9.97566 8.75 9.41602 9.30964 9.41602 9.99999C9.41602 10.6903 9.97566 11.25 10.666 11.25Z" fill="#0D5394"/>
<path d="M18.6748 9.21871C18.3055 5.40404 15.2619 2.36042 11.4472 1.99116V0H9.88473V1.99116C6.07006 2.36042 3.02644 5.40404 2.65718 9.21871H0.666016V10.7812H2.65718C3.02644 14.5959 6.07006 17.6395 9.88473 18.0088V19.9999H11.4472V18.0088C15.2619 17.6395 18.3055 14.5958 18.6748 10.7812H20.6659V9.21871H18.6748ZM17.1031 10.7812C16.747 13.7334 14.3994 16.0809 11.4472 16.4371V14.4531H9.88473V16.4371C6.93251 16.0809 4.58498 13.7334 4.22881 10.7812H6.21287V9.21871H4.22881C4.58498 6.2665 6.93251 3.91897 9.88473 3.5628V5.54685H11.4472V3.5628C14.3994 3.91893 16.747 6.26646 17.1031 9.21871H15.1191V10.7812H17.1031Z" fill="#0D5394"/>
</svg>
