<svg width="25" height="25" viewBox="0 0 25 25" fill="none" xmlns="http://www.w3.org/2000/svg">
<g clip-path="url(#clip0)">
<path d="M14.9618 18.9347C15.7567 18.8473 16.5602 18.6004 17.38 18.1905C17.4096 18.1782 17.4382 18.1633 17.4661 18.1468C18.6004 17.5647 19.7667 16.6706 20.986 15.4513C22.2131 14.2242 23.1092 13.0543 23.6904 11.9165C23.6982 11.9023 23.7054 11.8879 23.7122 11.8733C24.054 11.1951 24.2841 10.5283 24.4049 9.86735C24.5952 8.82702 24.513 7.80133 24.1614 6.79644C24.1505 6.7542 24.1355 6.71295 24.1165 6.67297C23.7148 5.59453 23.0022 4.54042 21.9803 3.51852C21.9781 3.51627 21.9758 3.51416 21.9736 3.51191C21.9732 3.51154 21.9729 3.51111 21.9725 3.51074C21.9719 3.51018 21.9713 3.50966 21.9707 3.5091C20.944 2.48462 19.885 1.77215 18.8014 1.37342C18.7623 1.35504 18.7221 1.34037 18.6808 1.32959C17.6829 0.984436 16.6645 0.905121 15.6315 1.09403C14.9709 1.21488 14.3043 1.44476 13.6264 1.7864C13.6115 1.79333 13.5967 1.80069 13.5822 1.80876C12.4444 2.38983 11.2746 3.28601 10.0476 4.51295C8.82825 5.7323 7.93418 6.89858 7.35202 8.03294C7.33557 8.06083 7.32071 8.08938 7.30843 8.11887C6.89845 8.93883 6.65155 9.74238 6.56417 10.5374L5.8953 16.6205L1.12273 21.3931C0.300237 22.2155 0.300237 23.5538 1.12273 24.3763C1.53393 24.7875 2.07413 24.9931 2.61428 24.9931C3.15444 24.9931 3.69464 24.7875 4.10584 24.3763L8.8785 19.6036L14.9616 18.9347C14.9617 18.9348 14.9617 18.9347 14.9618 18.9347ZM8.81466 18.1959L7.30308 16.6843L7.53728 14.5546C7.92729 15.1924 8.42943 15.8204 9.04402 16.4363C9.04454 16.4368 9.04501 16.4374 9.04552 16.4379C9.0459 16.4383 9.04627 16.4386 9.04665 16.4389C9.0489 16.4411 9.05105 16.4434 9.0533 16.4457C9.67202 17.0645 10.3029 17.5698 10.9438 17.9618L8.81466 18.1959ZM10.5533 6.01295L12.0287 7.48833L10.0399 9.47711L8.82703 8.26428C9.24925 7.54318 9.82306 6.79517 10.5533 6.01295ZM13.7987 3.29197L15.0118 4.50513L13.023 6.49395L11.5475 5.01847C12.3306 4.28734 13.0781 3.71381 13.7987 3.29197ZM20.465 4.02399L18.4922 5.99673L17.0006 4.50513L18.6715 2.83427C19.2709 3.10399 19.8673 3.49977 20.465 4.02399ZM22.6549 6.80614L20.9783 8.48277L19.4866 6.99116L21.4602 5.01753C21.9854 5.61366 22.3829 6.20847 22.6549 6.80614ZM23.0216 9.61431C22.9779 9.85347 22.9155 10.0949 22.8346 10.3392L21.9726 9.47711L23.0799 8.36979C23.1174 8.78123 23.0982 9.19557 23.0216 9.61431ZM20.4805 13.9514L18.9894 12.4603L20.9782 10.4715L22.207 11.7003C21.7852 12.4209 21.2117 13.1684 20.4805 13.9514ZM17.2346 16.6719L16.0062 15.4435L17.995 13.4547L19.486 14.9457C18.7038 15.6759 17.9558 16.2497 17.2346 16.6719ZM10.5523 15.9255L12.5259 13.9519L14.0175 15.4435L12.34 17.1209C11.7431 16.8491 11.1488 16.4513 10.5523 15.9255ZM8.3683 13.1375L10.0399 11.4659L11.5315 12.9575L9.55891 14.9301C9.03408 14.332 8.63789 13.7361 8.3683 13.1375ZM11.0342 10.4715L13.0231 8.48272L14.5147 9.97432L12.5259 11.9631L11.0342 10.4715ZM13.5202 12.9575L15.5091 10.9687L17.0007 12.4603L15.0118 14.4491L13.5202 12.9575ZM16.5034 9.97432L18.4923 7.9855L19.9839 9.47711L17.995 11.4659L16.5034 9.97432ZM17.4979 6.99112L15.5091 8.97994L14.0175 7.48833L16.0063 5.49951L17.4979 6.99112ZM9.04548 10.4715L7.95054 11.5665C7.92612 11.2765 7.92977 10.9849 7.96207 10.6912C7.96207 10.6912 7.96207 10.6911 7.96207 10.6911C8.00056 10.3412 8.0794 9.98618 8.19903 9.62514L9.04548 10.4715ZM13.9035 17.5463L15.0119 16.4379L15.8739 17.2999C15.5128 17.4195 15.1578 17.4984 14.8079 17.5368C14.5044 17.5703 14.203 17.5735 13.9035 17.5463ZM15.8846 2.47735C16.1663 2.42584 16.4457 2.40005 16.7238 2.40005C16.8498 2.40005 16.9753 2.40568 17.1007 2.41632L16.0062 3.51079L15.1598 2.66434C15.404 2.58353 15.6455 2.52109 15.8846 2.47735Z" fill="#CDD3D9"/>
<path d="M21.6934 19.3691C20.1426 19.3691 18.8809 20.6309 18.8809 22.1817C18.8809 23.7326 20.1426 24.9943 21.6934 24.9943C23.2443 24.9943 24.506 23.7326 24.506 22.1817C24.506 20.6309 23.2443 19.3691 21.6934 19.3691Z" fill="#CDD3D9"/>
</g>
<defs>
<clipPath id="clip0">
<rect width="24" height="24" fill="white" transform="translate(0.505859 0.994141)"/>
</clipPath>
</defs>
</svg>
