<svg width="119" height="95" viewBox="0 0 119 95" fill="none" xmlns="http://www.w3.org/2000/svg">
<path d="M86.6411 20.1934C86.2439 19.0019 85.2159 18.1374 83.9776 17.9505L69.095 15.7777L62.4363 2.2969C61.8756 1.17544 60.7308 0.451172 59.4691 0.451172C58.2075 0.451172 57.0627 1.17544 56.502 2.2969L49.8433 15.7777L34.9607 17.9505C33.7224 18.1374 32.6944 19.0019 32.2972 20.1934C31.9 21.385 32.2271 22.6933 33.1383 23.5811L43.909 34.0714L41.3623 48.9073C41.152 50.1455 41.666 51.3838 42.6707 52.1315C43.6987 52.8791 45.0304 52.9725 46.1519 52.3885L59.4691 45.3794L72.7864 52.3885C73.3004 52.6455 74.9592 53.066 76.2676 52.1315C77.2956 51.4072 77.7862 50.1455 77.576 48.9073L75.0293 34.0714L85.8 23.5811C86.6878 22.7167 87.0149 21.385 86.6411 20.1934ZM69.2351 30.5669C68.4641 31.3145 68.1137 32.4126 68.2772 33.4873L69.9828 43.4402L61.0345 38.7441C59.4925 38.2301 59.4925 38.2301 57.9739 38.7441L49.049 43.4402L50.7545 33.4873C50.9414 32.4126 50.591 31.3379 49.7966 30.5669L42.5772 23.511L52.5769 22.0625C53.6516 21.899 54.5861 21.2214 55.0534 20.2635L59.5159 11.2218L63.9783 20.2635C64.469 21.2448 65.3801 21.9223 66.4549 22.0625L76.4545 23.511L69.2351 30.5669Z" fill="#E73A4B"/>
<path d="M118.685 61.8946C118.288 60.703 117.26 59.8386 116.022 59.6517L101.139 57.4789L94.4805 43.9981C93.9198 42.8766 92.775 42.1523 91.5133 42.1523C90.2517 42.1523 89.1069 42.8766 88.5461 43.9981L81.8875 57.4789L67.0049 59.6517C65.7666 59.8386 64.7386 60.703 64.3414 61.8946C63.9442 63.0861 64.2713 64.3945 65.1825 65.2823L75.9531 75.7726L73.4065 90.6085C73.1962 91.8467 73.7102 93.085 74.7149 93.8326C75.7429 94.5803 77.0746 94.6737 78.1961 94.0896L91.5133 87.0806L104.831 94.0896C105.321 94.3466 106.98 94.7672 108.312 93.8326C109.34 93.1084 109.83 91.8467 109.62 90.6085L107.074 75.7726L117.844 65.2823C118.755 64.3945 119.082 63.0861 118.685 61.8946ZM101.233 72.2447C100.462 72.9923 100.111 74.0904 100.275 75.1651L101.98 85.118L93.0553 80.4219C91.5133 79.9079 91.5133 79.9079 89.9947 80.4219L81.0698 85.118L82.7753 75.1651C82.9622 74.0904 82.6118 73.0157 81.8174 72.2447L74.5981 65.2122L84.5977 63.7637C85.6724 63.6001 86.607 62.9226 87.0742 61.9647L91.5367 52.923L95.9991 61.9647C96.4898 62.9459 97.401 63.6235 98.4757 63.7637L108.475 65.2122L101.233 72.2447Z" fill="#E73A4B"/>
<path d="M54.6468 61.8946C54.2496 60.703 53.2216 59.8152 51.9834 59.6517L37.1008 57.4789L30.4421 43.9981C29.8814 42.8766 28.7366 42.1523 27.475 42.1523C26.2133 42.1523 25.0685 42.8766 24.5078 43.9981L17.8491 57.4789L2.96654 59.6517C1.72827 59.8386 0.700268 60.703 0.303087 61.8946C-0.0940944 63.0861 0.232996 64.3945 1.14418 65.2823L11.9148 75.7726L9.36816 90.6085C9.15789 91.8467 9.67189 93.085 10.6765 93.8326C11.7045 94.5803 13.0362 94.6737 14.1577 94.0896L27.475 87.0806L40.7922 94.0896C41.2828 94.3466 42.9417 94.7672 44.2734 93.8326C45.3014 93.1084 45.792 91.8467 45.5817 90.6085L43.0351 75.7726L53.8057 65.2823C54.6935 64.4179 55.0206 63.0861 54.6468 61.8946ZM37.1942 72.2447C36.4232 72.9923 36.0728 74.0904 36.2363 75.1651L37.9418 85.118L29.0169 80.4219C27.475 79.9079 27.475 79.9079 25.9563 80.4219L17.0314 85.118L18.737 75.1651C18.9239 74.0904 18.5734 73.0157 17.7791 72.2447L10.5363 65.2122L20.536 63.7637C21.6107 63.6001 22.5452 62.9226 23.0125 61.9647L27.475 52.923L31.9374 61.9647C32.428 62.9459 33.3392 63.6235 34.4139 63.7637L44.4136 65.2122L37.1942 72.2447Z" fill="#E73A4B"/>
</svg>
