<svg width="120" height="53" viewBox="0 0 120 53" fill="none" xmlns="http://www.w3.org/2000/svg">
<path d="M118.983 19.9688C118.586 18.7773 117.558 17.9128 116.32 17.7259L101.437 15.5531L94.7786 2.07229C94.2179 0.950833 93.0731 0.226562 91.8114 0.226562C90.5498 0.226562 89.405 0.950833 88.8442 2.07229L82.1856 15.5531L67.303 17.7259C66.0647 17.9128 65.0367 18.7773 64.6395 19.9688C64.2423 21.1604 64.5694 22.4687 65.4806 23.3565L76.2512 33.8468L73.7046 48.6827C73.4943 49.9209 74.0083 51.1592 75.013 51.9069C76.041 52.6545 77.3727 52.7479 78.4941 52.1639L91.8114 45.1548L105.129 52.1639C105.619 52.4209 107.278 52.8414 108.61 51.9069C109.638 51.1826 110.129 49.9209 109.918 48.6827L107.372 33.8468L118.142 23.3565C119.053 22.4687 119.381 21.1604 118.983 19.9688ZM101.531 30.3189C100.76 31.0665 100.409 32.1646 100.573 33.2393L102.278 43.1922L93.3534 38.4961C91.8114 37.9821 91.8114 37.9821 90.2928 38.4961L81.3679 43.1922L83.0734 33.2393C83.2603 32.1646 82.9099 31.0899 82.1155 30.3189L74.8961 23.2864L84.8958 21.8379C85.9705 21.6744 86.9051 20.9968 87.3723 20.0389L91.8348 10.9972L96.2972 20.0389C96.7879 21.0202 97.6991 21.6977 98.7738 21.8379L108.773 23.2864L101.531 30.3189Z" fill="#E73A4B"/>
<path d="M54.9437 19.9678C54.5465 18.7763 53.5185 17.8885 52.2802 17.7249L37.3976 15.5521L30.739 2.07131C30.1783 0.949856 29.0335 0.225586 27.7718 0.225586C26.5102 0.225586 25.3654 0.949856 24.8046 2.07131L18.146 15.5521L3.26341 17.7249C2.02514 17.9118 0.997143 18.7763 0.599962 19.9678C0.202781 21.1594 0.529871 22.4677 1.44105 23.3556L12.2117 33.8458L9.66504 48.6817C9.45477 49.92 9.96876 51.1582 10.9734 51.9059C12.0014 52.6535 13.3331 52.747 14.4546 52.1629L27.7718 45.1538L41.0891 52.1629C41.5797 52.4199 43.2385 52.8404 44.5703 51.9059C45.5983 51.1816 46.0889 49.92 45.8786 48.6817L43.332 33.8458L54.1026 23.3556C54.9904 22.4911 55.3175 21.1594 54.9437 19.9678ZM37.4911 30.3179C36.7201 31.0655 36.3696 32.1636 36.5332 33.2384L38.2387 43.1913L29.3138 38.4952C27.7718 37.9812 27.7718 37.9812 26.2532 38.4952L17.3283 43.1913L19.0338 33.2384C19.2207 32.1636 18.8703 31.0889 18.0759 30.3179L10.8332 23.2855L20.8328 21.8369C21.9076 21.6734 22.8421 20.9958 23.3094 20.0379L27.7718 10.9962L32.2343 20.0379C32.7249 21.0192 33.6361 21.6967 34.7108 21.8369L44.7104 23.2855L37.4911 30.3179Z" fill="#E73A4B"/>
</svg>
