<svg width="25" height="25" viewBox="0 0 25 25" fill="none" xmlns="http://www.w3.org/2000/svg">
<g clip-path="url(#clip0)">
<path d="M12.5059 24.9941C19.1333 24.9941 24.5059 19.6216 24.5059 12.9941C24.5059 6.36672 19.1333 0.994141 12.5059 0.994141C5.87844 0.994141 0.505859 6.36672 0.505859 12.9941C0.505859 19.6216 5.87844 24.9941 12.5059 24.9941Z" fill="#CDD3D9"/>
<path fill-rule="evenodd" clip-rule="evenodd" d="M12.053 18.2571H12.9949C12.9949 18.2571 13.2794 18.2259 13.4246 18.0693C13.5583 17.9256 13.554 17.6556 13.554 17.6556C13.554 17.6556 13.5356 16.3918 14.1222 16.2057C14.7004 16.0224 15.4429 17.4271 16.2298 17.9673C16.8249 18.3761 17.2771 18.2864 17.2771 18.2864L19.3814 18.2571C19.3814 18.2571 20.4822 18.1893 19.9602 17.3238C19.9175 17.253 19.6563 16.6836 18.3957 15.5135C17.0763 14.2888 17.253 14.4869 18.8423 12.3686C19.8103 11.0785 20.1973 10.2908 20.0764 9.95351C19.9611 9.63221 19.2492 9.71713 19.2492 9.71713L16.8799 9.73189C16.8799 9.73189 16.7043 9.70793 16.574 9.7858C16.4467 9.86216 16.3648 10.0401 16.3648 10.0401C16.3648 10.0401 15.9898 11.0385 15.4897 11.8875C14.4347 13.679 14.0129 13.7735 13.8404 13.6623C13.4394 13.403 13.5395 12.6208 13.5395 12.065C13.5395 10.3289 13.8028 9.60504 13.0267 9.41766C12.7692 9.35541 12.5797 9.31434 11.921 9.30771C11.0756 9.29894 10.3601 9.31027 9.95496 9.50878C9.68543 9.64077 9.47751 9.93489 9.60414 9.95179C9.76073 9.97276 10.1154 10.0474 10.3034 10.3035C10.5462 10.6337 10.5377 11.3756 10.5377 11.3756C10.5377 11.3756 10.6771 13.4193 10.2119 13.6732C9.8925 13.8473 9.45441 13.4918 8.51384 11.8665C8.0319 11.034 7.66803 10.1137 7.66803 10.1137C7.66803 10.1137 7.59787 9.94174 7.47273 9.84976C7.32086 9.73831 7.10865 9.7028 7.10865 9.7028L4.85724 9.71756C4.85724 9.71756 4.51926 9.72697 4.39519 9.87393C4.28481 10.0046 4.38642 10.275 4.38642 10.275C4.38642 10.275 6.14905 14.3988 8.14484 16.4769C9.97485 18.3823 12.053 18.2571 12.053 18.2571Z" fill="white"/>
</g>
<defs>
<clipPath id="clip0">
<rect width="24" height="24" fill="white" transform="translate(0.505859 0.994141)"/>
</clipPath>
</defs>
</svg>
