<svg width="41" height="23" viewBox="0 0 41 23" fill="none" xmlns="http://www.w3.org/2000/svg">
<path d="M38.9656 1.01043H32.4746C32.2097 1.01043 31.9497 1.08322 31.7224 1.22106C31.495 1.35889 31.3088 1.55661 31.1835 1.79318C31.1835 1.79318 28.5946 6.62475 27.7631 8.25212C25.526 12.6299 24.0773 11.2556 24.0773 9.22379V2.2182C24.0773 1.63279 23.8478 1.07135 23.4393 0.657407C23.0308 0.24346 22.4768 0.0109063 21.8992 0.0109063H17.0188C16.3542 -0.0391706 15.688 0.0837664 15.0834 0.368041C14.4789 0.652316 13.9561 1.08849 13.5647 1.63514C13.5647 1.63514 16.0429 1.22909 16.0429 4.61288C16.0429 5.45197 16.0855 7.8658 16.1244 9.89038C16.1317 10.1887 16.0485 10.4822 15.8861 10.7311C15.7236 10.98 15.4897 11.1724 15.2159 11.2823C14.9421 11.3922 14.6416 11.4144 14.355 11.3457C14.0684 11.2771 13.8095 11.121 13.6132 10.8985C11.6156 8.08303 9.96092 5.03332 8.68512 1.81565C8.57555 1.57495 8.40015 1.37115 8.17973 1.22843C7.95931 1.0857 7.70311 1.01005 7.44154 1.01043C6.03385 1.01043 3.21695 1.01043 1.54408 1.01043C1.38186 1.00931 1.2218 1.04812 1.07765 1.12352C0.933494 1.19892 0.809558 1.30865 0.716487 1.4433C0.623417 1.57795 0.563994 1.73348 0.543324 1.89653C0.522655 2.05959 0.541356 2.22529 0.597821 2.3794C2.38857 7.35716 10.1026 23 18.9073 23H22.6132C23.0015 23 23.3739 22.8437 23.6485 22.5654C23.923 22.2872 24.0773 21.9098 24.0773 21.5163V19.2486C24.0773 18.9641 24.1594 18.6859 24.3136 18.4481C24.4677 18.2104 24.6871 18.0235 24.9448 17.9106C25.2024 17.7976 25.487 17.7635 25.7636 17.8125C26.0401 17.8614 26.2965 17.9913 26.5011 18.1861L30.9368 22.4095C31.3351 22.7888 31.8612 23 32.4078 23H38.2327C41.042 23 41.042 21.0245 39.5103 19.4958C38.4324 18.42 34.5425 14.265 34.5425 14.265C34.2094 13.9153 34.0108 13.4564 33.9824 12.9712C33.954 12.486 34.0979 12.0065 34.3879 11.6194C35.6453 9.94267 37.7018 7.198 38.5739 6.02219C39.766 4.41508 41.9236 1.01043 38.9656 1.01043Z" fill="#154D80"/>
</svg>
